<ttFont>
    <TTGlyph name=".notdef" xMin="47" yMin="23" xMax="465" yMax="458">
      <contour>
        <pt x="47" y="458" on="1"/>
        <pt x="465" y="458" on="1"/>
        <pt x="465" y="23" on="1"/>
        <pt x="47" y="23" on="1"/>
      </contour>
      <contour>
        <pt x="393" y="105" on="1"/>
        <pt x="393" y="377" on="1"/>
        <pt x="121" y="377" on="1"/>
        <pt x="121" y="105" on="1"/>
      </contour>
    </TTGlyph>
    <TTGlyph name="A" xMin="-20" yMin="0" xMax="711" yMax="678">
      <contour>
        <pt x="-20" y="32" on="1"/>
        <pt x="-1" y="42" on="0"/>
        <pt x="41" y="60" on="0"/>
        <pt x="63" y="67" on="1"/>
        <pt x="291" y="622" on="1"/>
        <pt x="281" y="647" on="1"/>
        <pt x="386" y="678" on="1"/>
        <pt x="639" y="58" on="1"/>
        <pt x="711" y="49" on="1"/>
        <pt x="710" y="0" on="1"/>
        <pt x="419" y="0" on="1"/>
        <pt x="413" y="32" on="1"/>
        <pt x="434" y="43" on="0"/>
        <pt x="481" y="62" on="0"/>
        <pt x="505" y="70" on="1"/>
        <pt x="458" y="191" on="1"/>
        <pt x="204" y="191" on="1"/>
        <pt x="154" y="62" on="1"/>
        <pt x="252" y="49" on="1"/>
        <pt x="251" y="0" on="1"/>
        <pt x="-14" y="0" on="1"/>
      </contour>
      <contour>
        <pt x="230" y="260" on="1"/>
        <pt x="431" y="260" on="1"/>
        <pt x="331" y="519" on="1"/>
      </contour>
    </TTGlyph>
    <TTGlyph name="AE" xMin="-20" yMin="0" xMax="855" yMax="654">
      <contour>
        <pt x="-20" y="35" on="1"/>
        <pt x="-11" y="40" on="0"/>
        <pt x="16" y="52" on="0"/>
        <pt x="44" y="63" on="0"/>
        <pt x="69" y="72" on="0"/>
        <pt x="75" y="74" on="1"/>
        <pt x="355" y="598" on="1"/>
        <pt x="294" y="604" on="1"/>
        <pt x="295" y="654" on="1"/>
        <pt x="845" y="654" on="1"/>
        <pt x="845" y="654" on="1"/>
        <pt x="846" y="654" on="1"/>
        <pt x="848" y="627" on="0"/>
        <pt x="842" y="524" on="0"/>
        <pt x="833" y="477" on="1"/>
        <pt x="764" y="477" on="1"/>
        <pt x="749" y="571" on="1"/>
        <pt x="548" y="581" on="1"/>
        <pt x="548" y="359" on="1"/>
        <pt x="772" y="377" on="1"/>
        <pt x="772" y="283" on="1"/>
        <pt x="548" y="292" on="1"/>
        <pt x="548" y="76" on="1"/>
        <pt x="757" y="86" on="1"/>
        <pt x="787" y="194" on="1"/>
        <pt x="855" y="189" on="1"/>
        <pt x="856" y="168" on="0"/>
        <pt x="854" y="118" on="0"/>
        <pt x="851" y="66" on="0"/>
        <pt x="846" y="18" on="0"/>
        <pt x="843" y="0" on="1"/>
        <pt x="839" y="1" on="1"/>
        <pt x="839" y="0" on="1"/>
        <pt x="349" y="0" on="1"/>
        <pt x="343" y="35" on="1"/>
        <pt x="359" y="44" on="0"/>
        <pt x="412" y="64" on="0"/>
        <pt x="428" y="71" on="1"/>
        <pt x="428" y="191" on="1"/>
        <pt x="227" y="191" on="1"/>
        <pt x="160" y="61" on="1"/>
        <pt x="252" y="49" on="1"/>
        <pt x="251" y="0" on="1"/>
        <pt x="-14" y="0" on="1"/>
      </contour>
      <contour>
        <pt x="263" y="260" on="1"/>
        <pt x="428" y="260" on="1"/>
        <pt x="428" y="580" on="1"/>
      </contour>
    </TTGlyph>
    <TTGlyph name="Aacute" xMin="-20" yMin="0" xMax="711" yMax="886">
      <component glyphName="A" x="0" y="0" flags="0x204"/>
      <component glyphName="acutecomb.case" x="340" y="0" flags="0x4"/>
    </TTGlyph>
    <TTGlyph name="Abreve" xMin="-20" yMin="0" xMax="711" yMax="864">
      <component glyphName="A" x="0" y="0" flags="0x204"/>
      <component glyphName="uni0306.case" x="342" y="0" flags="0x4"/>
    </TTGlyph>
    <TTGlyph name="Acircumflex" xMin="-20" yMin="0" xMax="711" yMax="891">
      <component glyphName="A" x="0" y="0" flags="0x204"/>
      <component glyphName="uni0302.case" x="342" y="35" flags="0x4"/>
    </TTGlyph>
    <TTGlyph name="Adieresis" xMin="-20" yMin="0" xMax="711" yMax="878">
      <component glyphName="A" x="0" y="0" flags="0x204"/>
      <component glyphName="uni0308.case" x="341" y="180" flags="0x4"/>
    </TTGlyph>
    <TTGlyph name="Agrave" xMin="-20" yMin="0" xMax="711" yMax="886">
      <component glyphName="A" x="0" y="0" flags="0x204"/>
      <component glyphName="gravecomb.case" x="343" y="0" flags="0x4"/>
    </TTGlyph>
    <TTGlyph name="Alpha" xMin="-20" yMin="0" xMax="711" yMax="678">
      <component glyphName="A" x="0" y="0" flags="0x204"/>
    </TTGlyph>
    <TTGlyph name="Alphaacute" xMin="-20" yMin="0" xMax="711" yMax="678">
      <component glyphName="Alpha" x="0" y="0" flags="0x204"/>
      <component glyphName="grAcute.case" x="4" y="0" flags="0x4"/>
    </TTGlyph>
    <TTGlyph name="Alphaasper" xMin="-20" yMin="0" xMax="711" yMax="678">
      <component glyphName="Alpha" x="0" y="0" flags="0x204"/>
      <component glyphName="asper.case" x="-8" y="0" flags="0x4"/>
    </TTGlyph>
    <TTGlyph name="Alphaasperacute" xMin="-146" yMin="0" xMax="711" yMax="678">
      <component glyphName="asperacute.case" x="-45" y="0" flags="0x4"/>
      <component glyphName="Alpha" x="0" y="0" flags="0x204"/>
    </TTGlyph>
    <TTGlyph name="Alphaasperacuteiotasub" xMin="-146" yMin="-224" xMax="711" yMax="678">
      <component glyphName="asperacute.case" x="-45" y="0" flags="0x4"/>
      <component glyphName="Alpha" x="0" y="0" flags="0x204"/>
      <component glyphName="iotaadscript.case" x="219" y="0" flags="0x4"/>
    </TTGlyph>
    <TTGlyph name="Alphaaspergrave" xMin="-152" yMin="0" xMax="711" yMax="678">
      <component glyphName="Alpha" x="0" y="0" flags="0x204"/>
      <component glyphName="aspergrave.case" x="-47" y="0" flags="0x4"/>
    </TTGlyph>
    <TTGlyph name="Alphaaspergraveiotasub" xMin="-152" yMin="-224" xMax="711" yMax="678">
      <component glyphName="Alpha" x="0" y="0" flags="0x204"/>
      <component glyphName="iotaadscript.case" x="219" y="0" flags="0x4"/>
      <component glyphName="aspergrave.case" x="-47" y="0" flags="0x4"/>
    </TTGlyph>
    <TTGlyph name="Alphaasperiotasub" xMin="-20" yMin="-224" xMax="711" yMax="678">
      <component glyphName="Alpha" x="0" y="0" flags="0x204"/>
      <component glyphName="iotaadscript.case" x="219" y="0" flags="0x4"/>
      <component glyphName="asper.case" x="-8" y="0" flags="0x4"/>
    </TTGlyph>
    <TTGlyph name="Alphaaspertilde" xMin="-162" yMin="0" xMax="711" yMax="678">
      <component glyphName="Alpha" x="0" y="0" flags="0x204"/>
      <component glyphName="aspertilde.case" x="-14" y="0" flags="0x4"/>
    </TTGlyph>
    <TTGlyph name="Alphaaspertildeiotasub" xMin="-162" yMin="-224" xMax="711" yMax="678">
      <component glyphName="Alpha" x="0" y="0" flags="0x204"/>
      <component glyphName="aspertilde.case" x="-14" y="0" flags="0x4"/>
      <component glyphName="iotaadscript.case" x="219" y="0" flags="0x4"/>
    </TTGlyph>
    <TTGlyph name="Alphabreve" xMin="-20" yMin="0" xMax="711" yMax="864">
      <component glyphName="Alpha" x="0" y="0" flags="0x204"/>
      <component glyphName="uni0306.case" x="342" y="0" flags="0x4"/>
    </TTGlyph>
    <TTGlyph name="Alphagrave" xMin="-20" yMin="0" xMax="711" yMax="678">
      <component glyphName="Alpha" x="0" y="0" flags="0x204"/>
      <component glyphName="grGrave.case" x="-12" y="0" flags="0x4"/>
    </TTGlyph>
    <TTGlyph name="Alphaiotasub" xMin="-20" yMin="-224" xMax="711" yMax="678">
      <component glyphName="Alpha" x="0" y="0" flags="0x204"/>
      <component glyphName="iotaadscript.case" x="219" y="0" flags="0x4"/>
    </TTGlyph>
    <TTGlyph name="Alphalenis" xMin="-20" yMin="0" xMax="711" yMax="678">
      <component glyphName="Alpha" x="0" y="0" flags="0x204"/>
      <component glyphName="lenis.case" x="4" y="0" flags="0x4"/>
    </TTGlyph>
    <TTGlyph name="Alphalenisacute" xMin="-132" yMin="0" xMax="711" yMax="678">
      <component glyphName="Alpha" x="0" y="0" flags="0x204"/>
      <component glyphName="lenisacute.case" x="-15" y="0" flags="0x4"/>
    </TTGlyph>
    <TTGlyph name="Alphalenisacuteiotasub" xMin="-132" yMin="-224" xMax="711" yMax="678">
      <component glyphName="Alpha" x="0" y="0" flags="0x204"/>
      <component glyphName="lenisacute.case" x="-15" y="0" flags="0x4"/>
      <component glyphName="iotaadscript.case" x="219" y="0" flags="0x4"/>
    </TTGlyph>
    <TTGlyph name="Alphalenisgrave" xMin="-154" yMin="0" xMax="711" yMax="678">
      <component glyphName="Alpha" x="0" y="0" flags="0x204"/>
      <component glyphName="lenisgrave.case" x="-21" y="0" flags="0x4"/>
    </TTGlyph>
    <TTGlyph name="Alphalenisgraveiotasub" xMin="-154" yMin="-224" xMax="711" yMax="678">
      <component glyphName="Alpha" x="0" y="0" flags="0x204"/>
      <component glyphName="lenisgrave.case" x="-21" y="0" flags="0x4"/>
      <component glyphName="iotaadscript.case" x="219" y="0" flags="0x4"/>
    </TTGlyph>
    <TTGlyph name="Alphalenisiotasub" xMin="-20" yMin="-224" xMax="711" yMax="678">
      <component glyphName="Alpha" x="0" y="0" flags="0x204"/>
      <component glyphName="lenis.case" x="4" y="0" flags="0x4"/>
      <component glyphName="iotaadscript.case" x="219" y="0" flags="0x4"/>
    </TTGlyph>
    <TTGlyph name="Alphalenistilde" xMin="-162" yMin="0" xMax="711" yMax="678">
      <component glyphName="Alpha" x="0" y="0" flags="0x204"/>
      <component glyphName="lenistilde.case" x="-14" y="0" flags="0x4"/>
    </TTGlyph>
    <TTGlyph name="Alphalenistildeiotasub" xMin="-162" yMin="-224" xMax="711" yMax="678">
      <component glyphName="Alpha" x="0" y="0" flags="0x204"/>
      <component glyphName="lenistilde.case" x="-14" y="0" flags="0x4"/>
      <component glyphName="iotaadscript.case" x="219" y="0" flags="0x4"/>
    </TTGlyph>
    <TTGlyph name="Alphawithmacron" xMin="-20" yMin="0" xMax="711" yMax="821">
      <component glyphName="Alpha" x="0" y="0" flags="0x204"/>
      <component glyphName="uni0304.case" x="340" y="0" flags="0x4"/>
    </TTGlyph>
    <TTGlyph name="Alphawithtonos" xMin="-20" yMin="0" xMax="711" yMax="678">
      <component glyphName="Alpha" x="0" y="0" flags="0x204"/>
      <component glyphName="tonos.case" x="4" y="0" flags="0x4"/>
    </TTGlyph>
    <TTGlyph name="Amacron" xMin="-20" yMin="0" xMax="711" yMax="821">
      <component glyphName="A" x="0" y="0" flags="0x204"/>
      <component glyphName="uni0304.case" x="340" y="0" flags="0x4"/>
    </TTGlyph>
    <TTGlyph name="Aogonek" xMin="-20" yMin="-264" xMax="711" yMax="678">
      <component glyphName="A" x="0" y="0" flags="0x204"/>
      <component glyphName="uni0328.case" x="652" y="-9" flags="0x4"/>
    </TTGlyph>
    <TTGlyph name="Aring" xMin="-20" yMin="0" xMax="711" yMax="937">
      <component glyphName="A" x="0" y="0" flags="0x204"/>
      <component glyphName="uni030A.case" x="341" y="0" flags="0x4"/>
    </TTGlyph>
    <TTGlyph name="Atilde" xMin="-20" yMin="0" xMax="711" yMax="875">
      <component glyphName="A" x="0" y="0" flags="0x204"/>
      <component glyphName="tildecomb.case" x="342" y="0" flags="0x4"/>
    </TTGlyph>
    <TTGlyph name="B" xMin="28" yMin="0" xMax="610" yMax="662">
      <contour>
        <pt x="28" y="32" on="1"/>
        <pt x="47" y="42" on="0"/>
        <pt x="91" y="60" on="0"/>
        <pt x="113" y="68" on="1"/>
        <pt x="113" y="597" on="1"/>
        <pt x="42" y="604" on="1"/>
        <pt x="43" y="654" on="1"/>
        <pt x="75" y="655" on="0"/>
        <pt x="150" y="658" on="0"/>
        <pt x="225" y="661" on="0"/>
        <pt x="299" y="662" on="0"/>
        <pt x="330" y="662" on="1"/>
        <pt x="395" y="662" on="0"/>
        <pt x="489" y="633" on="0"/>
        <pt x="549" y="586" on="0"/>
        <pt x="577" y="526" on="0"/>
        <pt x="577" y="494" on="1"/>
        <pt x="577" y="446" on="0"/>
        <pt x="511" y="358" on="0"/>
        <pt x="442" y="348" on="1"/>
        <pt x="524" y="336" on="0"/>
        <pt x="610" y="240" on="0"/>
        <pt x="610" y="181" on="1"/>
        <pt x="610" y="146" on="0"/>
        <pt x="578" y="80" on="0"/>
        <pt x="512" y="30" on="0"/>
        <pt x="410" y="0" on="0"/>
        <pt x="339" y="0" on="1"/>
        <pt x="34" y="0" on="1"/>
      </contour>
      <contour>
        <pt x="359" y="594" on="1"/>
        <pt x="235" y="579" on="1"/>
        <pt x="235" y="372" on="1"/>
        <pt x="284" y="372" on="1"/>
        <pt x="373" y="372" on="0"/>
        <pt x="448" y="441" on="0"/>
        <pt x="448" y="483" on="1"/>
        <pt x="448" y="520" on="0"/>
        <pt x="399" y="586" on="0"/>
      </contour>
      <contour>
        <pt x="325" y="69" on="1"/>
        <pt x="363" y="66" on="0"/>
        <pt x="420" y="82" on="0"/>
        <pt x="457" y="114" on="0"/>
        <pt x="476" y="158" on="0"/>
        <pt x="476" y="181" on="1"/>
        <pt x="476" y="205" on="0"/>
        <pt x="456" y="252" on="0"/>
        <pt x="418" y="289" on="0"/>
        <pt x="362" y="312" on="0"/>
        <pt x="325" y="312" on="1"/>
        <pt x="235" y="312" on="1"/>
        <pt x="235" y="77" on="1"/>
      </contour>
    </TTGlyph>
    <TTGlyph name="Beta" xMin="28" yMin="0" xMax="610" yMax="662">
      <component glyphName="B" x="0" y="0" flags="0x204"/>
    </TTGlyph>
    <TTGlyph name="C" xMin="17" yMin="-16" xMax="556" yMax="674">
      <contour>
        <pt x="355" y="-16" on="1"/>
        <pt x="265" y="-18" on="0"/>
        <pt x="137" y="39" on="0"/>
        <pt x="55" y="133" on="0"/>
        <pt x="17" y="256" on="0"/>
        <pt x="17" y="319" on="1"/>
        <pt x="17" y="385" on="0"/>
        <pt x="57" y="513" on="0"/>
        <pt x="137" y="612" on="0"/>
        <pt x="259" y="674" on="0"/>
        <pt x="340" y="674" on="1"/>
        <pt x="412" y="674" on="0"/>
        <pt x="511" y="632" on="0"/>
        <pt x="539" y="612" on="1"/>
        <pt x="538" y="609" on="1"/>
        <pt x="541" y="581" on="0"/>
        <pt x="532" y="486" on="0"/>
        <pt x="519" y="444" on="1"/>
        <pt x="443" y="444" on="1"/>
        <pt x="427" y="559" on="1"/>
        <pt x="389" y="578" on="0"/>
        <pt x="303" y="596" on="0"/>
        <pt x="254" y="593" on="1"/>
        <pt x="224" y="574" on="0"/>
        <pt x="183" y="517" on="0"/>
        <pt x="157" y="450" on="0"/>
        <pt x="146" y="377" on="0"/>
        <pt x="146" y="343" on="1"/>
        <pt x="146" y="287" on="0"/>
        <pt x="175" y="187" on="0"/>
        <pt x="233" y="115" on="0"/>
        <pt x="319" y="76" on="0"/>
        <pt x="375" y="79" on="1"/>
        <pt x="534" y="133" on="1"/>
        <pt x="556" y="73" on="1"/>
      </contour>
    </TTGlyph>
    <TTGlyph name="Cacute" xMin="17" yMin="-16" xMax="556" yMax="886">
      <component glyphName="C" x="0" y="0" flags="0x204"/>
      <component glyphName="acutecomb.case" x="324" y="0" flags="0x4"/>
    </TTGlyph>
    <TTGlyph name="Ccaron" xMin="17" yMin="-16" xMax="556" yMax="892">
      <component glyphName="C" x="0" y="0" flags="0x204"/>
      <component glyphName="uni030C.case" x="326" y="35" flags="0x4"/>
    </TTGlyph>
    <TTGlyph name="Ccedilla" xMin="17" yMin="-267" xMax="556" yMax="674">
      <component glyphName="C" x="0" y="0" flags="0x204"/>
      <component glyphName="uni0327.case" x="325" y="0" flags="0x4"/>
    </TTGlyph>
    <TTGlyph name="Chi" xMin="6" yMin="0" xMax="682" yMax="654">
      <component glyphName="X" x="0" y="0" flags="0x204"/>
    </TTGlyph>
    <TTGlyph name="D" xMin="28" yMin="0" xMax="664" yMax="662">
      <contour>
        <pt x="28" y="32" on="1"/>
        <pt x="47" y="42" on="0"/>
        <pt x="91" y="60" on="0"/>
        <pt x="113" y="68" on="1"/>
        <pt x="113" y="597" on="1"/>
        <pt x="42" y="604" on="1"/>
        <pt x="43" y="654" on="1"/>
        <pt x="121" y="658" on="0"/>
        <pt x="275" y="662" on="0"/>
        <pt x="352" y="662" on="1"/>
        <pt x="426" y="662" on="0"/>
        <pt x="543" y="604" on="0"/>
        <pt x="622" y="512" on="0"/>
        <pt x="664" y="393" on="0"/>
        <pt x="664" y="332" on="1"/>
        <pt x="664" y="270" on="0"/>
        <pt x="624" y="150" on="0"/>
        <pt x="541" y="57" on="0"/>
        <pt x="412" y="0" on="0"/>
        <pt x="324" y="0" on="1"/>
        <pt x="34" y="0" on="1"/>
      </contour>
      <contour>
        <pt x="400" y="594" on="1"/>
        <pt x="235" y="579" on="1"/>
        <pt x="235" y="87" on="1"/>
        <pt x="258" y="80" on="0"/>
        <pt x="301" y="75" on="0"/>
        <pt x="320" y="75" on="1"/>
        <pt x="374" y="75" on="0"/>
        <pt x="454" y="119" on="0"/>
        <pt x="506" y="190" on="0"/>
        <pt x="531" y="282" on="0"/>
        <pt x="531" y="329" on="1"/>
        <pt x="531" y="372" on="0"/>
        <pt x="511" y="454" on="0"/>
        <pt x="477" y="523" on="0"/>
        <pt x="428" y="578" on="0"/>
      </contour>
    </TTGlyph>
    <TTGlyph name="Dcaron" xMin="28" yMin="0" xMax="664" yMax="892">
      <component glyphName="D" x="0" y="0" flags="0x204"/>
      <component glyphName="uni030C.case" x="323" y="35" flags="0x4"/>
    </TTGlyph>
    <TTGlyph name="Dcroat" xMin="16" yMin="0" xMax="664" yMax="662">
      <contour>
        <pt x="28" y="32" on="1"/>
        <pt x="47" y="42" on="0"/>
        <pt x="91" y="60" on="0"/>
        <pt x="113" y="68" on="1"/>
        <pt x="113" y="280" on="1"/>
        <pt x="22" y="280" on="1"/>
        <pt x="16" y="311" on="1"/>
        <pt x="59" y="354" on="1"/>
        <pt x="113" y="354" on="1"/>
        <pt x="113" y="597" on="1"/>
        <pt x="42" y="604" on="1"/>
        <pt x="43" y="654" on="1"/>
        <pt x="121" y="658" on="0"/>
        <pt x="275" y="662" on="0"/>
        <pt x="352" y="662" on="1"/>
        <pt x="426" y="662" on="0"/>
        <pt x="543" y="604" on="0"/>
        <pt x="622" y="512" on="0"/>
        <pt x="664" y="393" on="0"/>
        <pt x="664" y="332" on="1"/>
        <pt x="664" y="270" on="0"/>
        <pt x="624" y="150" on="0"/>
        <pt x="541" y="57" on="0"/>
        <pt x="412" y="0" on="0"/>
        <pt x="324" y="0" on="1"/>
        <pt x="34" y="0" on="1"/>
      </contour>
      <contour>
        <pt x="344" y="280" on="1"/>
        <pt x="235" y="280" on="1"/>
        <pt x="235" y="87" on="1"/>
        <pt x="258" y="80" on="0"/>
        <pt x="301" y="75" on="0"/>
        <pt x="320" y="75" on="1"/>
        <pt x="374" y="75" on="0"/>
        <pt x="454" y="119" on="0"/>
        <pt x="506" y="190" on="0"/>
        <pt x="531" y="282" on="0"/>
        <pt x="531" y="329" on="1"/>
        <pt x="531" y="372" on="0"/>
        <pt x="511" y="454" on="0"/>
        <pt x="477" y="523" on="0"/>
        <pt x="428" y="578" on="0"/>
        <pt x="400" y="594" on="1"/>
        <pt x="235" y="579" on="1"/>
        <pt x="235" y="354" on="1"/>
        <pt x="381" y="354" on="1"/>
        <pt x="387" y="323" on="1"/>
      </contour>
    </TTGlyph>
    <TTGlyph name="Delta" xMin="27" yMin="0" xMax="610" yMax="678">
      <contour>
        <pt x="27" y="70" on="1"/>
        <pt x="264" y="622" on="1"/>
        <pt x="254" y="647" on="1"/>
        <pt x="359" y="678" on="1"/>
        <pt x="610" y="77" on="1"/>
        <pt x="581" y="0" on="1"/>
        <pt x="51" y="0" on="1"/>
      </contour>
      <contour>
        <pt x="303" y="524" on="1"/>
        <pt x="129" y="87" on="1"/>
        <pt x="476" y="90" on="1"/>
      </contour>
    </TTGlyph>
    <TTGlyph name="E" xMin="28" yMin="0" xMax="540" yMax="654">
      <contour>
        <pt x="28" y="32" on="1"/>
        <pt x="47" y="42" on="0"/>
        <pt x="91" y="60" on="0"/>
        <pt x="113" y="68" on="1"/>
        <pt x="113" y="597" on="1"/>
        <pt x="41" y="604" on="1"/>
        <pt x="42" y="654" on="1"/>
        <pt x="531" y="654" on="1"/>
        <pt x="533" y="627" on="0"/>
        <pt x="527" y="524" on="0"/>
        <pt x="518" y="477" on="1"/>
        <pt x="449" y="477" on="1"/>
        <pt x="434" y="573" on="1"/>
        <pt x="235" y="586" on="1"/>
        <pt x="235" y="359" on="1"/>
        <pt x="458" y="377" on="1"/>
        <pt x="458" y="283" on="1"/>
        <pt x="235" y="292" on="1"/>
        <pt x="235" y="74" on="1"/>
        <pt x="442" y="86" on="1"/>
        <pt x="472" y="194" on="1"/>
        <pt x="540" y="189" on="1"/>
        <pt x="541" y="168" on="0"/>
        <pt x="539" y="118" on="0"/>
        <pt x="536" y="66" on="0"/>
        <pt x="531" y="18" on="0"/>
        <pt x="528" y="0" on="1"/>
        <pt x="34" y="0" on="1"/>
      </contour>
    </TTGlyph>
    <TTGlyph name="Eacute" xMin="28" yMin="0" xMax="540" yMax="886">
      <component glyphName="E" x="0" y="0" flags="0x204"/>
      <component glyphName="acutecomb.case" x="300" y="0" flags="0x4"/>
    </TTGlyph>
    <TTGlyph name="Ecaron" xMin="28" yMin="0" xMax="540" yMax="892">
      <component glyphName="E" x="0" y="0" flags="0x204"/>
      <component glyphName="uni030C.case" x="302" y="35" flags="0x4"/>
    </TTGlyph>
    <TTGlyph name="Ecircumflex" xMin="28" yMin="0" xMax="540" yMax="891">
      <component glyphName="E" x="0" y="0" flags="0x204"/>
      <component glyphName="uni0302.case" x="302" y="35" flags="0x4"/>
    </TTGlyph>
    <TTGlyph name="Edieresis" xMin="28" yMin="0" xMax="540" yMax="878">
      <component glyphName="E" x="0" y="0" flags="0x204"/>
      <component glyphName="uni0308.case" x="301" y="180" flags="0x4"/>
    </TTGlyph>
    <TTGlyph name="Edotaccent" xMin="28" yMin="0" xMax="540" yMax="878">
      <component glyphName="E" x="0" y="0" flags="0x204"/>
      <component glyphName="uni0307.case" x="301" y="180" flags="0x4"/>
    </TTGlyph>
    <TTGlyph name="Egrave" xMin="28" yMin="0" xMax="540" yMax="886">
      <component glyphName="E" x="0" y="0" flags="0x204"/>
      <component glyphName="gravecomb.case" x="303" y="0" flags="0x4"/>
    </TTGlyph>
    <TTGlyph name="Emacron" xMin="28" yMin="0" xMax="540" yMax="821">
      <component glyphName="E" x="0" y="0" flags="0x204"/>
      <component glyphName="uni0304.case" x="300" y="0" flags="0x4"/>
    </TTGlyph>
    <TTGlyph name="Eogonek" xMin="28" yMin="-265" xMax="567" yMax="654">
      <component glyphName="E" x="0" y="0" flags="0x204"/>
      <component glyphName="uni0328.case" x="538" y="-10" flags="0x4"/>
    </TTGlyph>
    <TTGlyph name="Epsilon" xMin="28" yMin="0" xMax="540" yMax="654">
      <component glyphName="E" x="0" y="0" flags="0x204"/>
    </TTGlyph>
    <TTGlyph name="Epsilonacute" xMin="-175" yMin="0" xMax="540" yMax="659">
      <component glyphName="Epsilon" x="0" y="0" flags="0x204"/>
      <component glyphName="grAcute.case" x="-184" y="0" flags="0x4"/>
    </TTGlyph>
    <TTGlyph name="Epsilonasper" xMin="-168" yMin="0" xMax="540" yMax="660">
      <component glyphName="Epsilon" x="0" y="0" flags="0x204"/>
      <component glyphName="asper.case" x="-196" y="0" flags="0x4"/>
    </TTGlyph>
    <TTGlyph name="Epsilonasperacute" xMin="-334" yMin="0" xMax="540" yMax="660">
      <component glyphName="asperacute.case" x="-233" y="0" flags="0x4"/>
      <component glyphName="Epsilon" x="0" y="0" flags="0x204"/>
    </TTGlyph>
    <TTGlyph name="Epsilonaspergrave" xMin="-340" yMin="0" xMax="540" yMax="660">
      <component glyphName="Epsilon" x="0" y="0" flags="0x204"/>
      <component glyphName="aspergrave.case" x="-235" y="0" flags="0x4"/>
    </TTGlyph>
    <TTGlyph name="Epsilongrave" xMin="-182" yMin="0" xMax="540" yMax="659">
      <component glyphName="Epsilon" x="0" y="0" flags="0x204"/>
      <component glyphName="grGrave.case" x="-199" y="0" flags="0x4"/>
    </TTGlyph>
    <TTGlyph name="Epsilonlenis" xMin="-161" yMin="0" xMax="540" yMax="660">
      <component glyphName="Epsilon" x="0" y="0" flags="0x204"/>
      <component glyphName="lenis.case" x="-184" y="0" flags="0x4"/>
    </TTGlyph>
    <TTGlyph name="Epsilonlenisacute" xMin="-319" yMin="0" xMax="540" yMax="660">
      <component glyphName="Epsilon" x="0" y="0" flags="0x204"/>
      <component glyphName="lenisacute.case" x="-202" y="0" flags="0x4"/>
    </TTGlyph>
    <TTGlyph name="Epsilonlenisgrave" xMin="-342" yMin="0" xMax="540" yMax="660">
      <component glyphName="Epsilon" x="0" y="0" flags="0x204"/>
      <component glyphName="lenisgrave.case" x="-209" y="0" flags="0x4"/>
    </TTGlyph>
    <TTGlyph name="Epsilonwithtonos" xMin="-175" yMin="0" xMax="540" yMax="660">
      <component glyphName="Epsilon" x="0" y="0" flags="0x204"/>
      <component glyphName="tonos.case" x="-184" y="0" flags="0x4"/>
    </TTGlyph>
    <TTGlyph name="Eta" xMin="28" yMin="0" xMax="749" yMax="654">
      <component glyphName="H" x="0" y="0" flags="0x204"/>
    </TTGlyph>
    <TTGlyph name="Etaacute" xMin="-178" yMin="0" xMax="749" yMax="659">
      <component glyphName="Eta" x="0" y="0" flags="0x204"/>
      <component glyphName="grAcute.case" x="-187" y="0" flags="0x4"/>
    </TTGlyph>
    <TTGlyph name="Etaasper" xMin="-171" yMin="0" xMax="749" yMax="660">
      <component glyphName="Eta" x="0" y="0" flags="0x204"/>
      <component glyphName="asper.case" x="-199" y="0" flags="0x4"/>
    </TTGlyph>
    <TTGlyph name="Etaasperacute" xMin="-337" yMin="0" xMax="749" yMax="660">
      <component glyphName="asperacute.case" x="-236" y="0" flags="0x4"/>
      <component glyphName="Eta" x="0" y="0" flags="0x204"/>
    </TTGlyph>
    <TTGlyph name="Etaasperacuteiotasub" xMin="-337" yMin="-224" xMax="749" yMax="660">
      <component glyphName="asperacute.case" x="-236" y="0" flags="0x4"/>
      <component glyphName="Eta" x="0" y="0" flags="0x204"/>
      <component glyphName="iotaadscript.case" x="276" y="0" flags="0x4"/>
    </TTGlyph>
    <TTGlyph name="Etaaspergrave" xMin="-343" yMin="0" xMax="749" yMax="660">
      <component glyphName="aspergrave.case" x="-238" y="0" flags="0x4"/>
      <component glyphName="Eta" x="0" y="0" flags="0x204"/>
    </TTGlyph>
    <TTGlyph name="Etaaspergraveiotasub" xMin="-343" yMin="-224" xMax="749" yMax="660">
      <component glyphName="aspergrave.case" x="-238" y="0" flags="0x4"/>
      <component glyphName="Eta" x="0" y="0" flags="0x204"/>
      <component glyphName="iotaadscript.case" x="276" y="0" flags="0x4"/>
    </TTGlyph>
    <TTGlyph name="Etaasperiotasub" xMin="-171" yMin="-224" xMax="749" yMax="660">
      <component glyphName="Eta" x="0" y="0" flags="0x204"/>
      <component glyphName="iotaadscript.case" x="276" y="0" flags="0x4"/>
      <component glyphName="asper.case" x="-199" y="0" flags="0x4"/>
    </TTGlyph>
    <TTGlyph name="Etaaspertilde" xMin="-353" yMin="0" xMax="749" yMax="673">
      <component glyphName="aspertilde.case" x="-205" y="0" flags="0x4"/>
      <component glyphName="Eta" x="0" y="0" flags="0x204"/>
    </TTGlyph>
    <TTGlyph name="Etaaspertildeiotasub" xMin="-353" yMin="-224" xMax="749" yMax="673">
      <component glyphName="aspertilde.case" x="-205" y="0" flags="0x4"/>
      <component glyphName="Eta" x="0" y="0" flags="0x204"/>
      <component glyphName="iotaadscript.case" x="276" y="0" flags="0x4"/>
    </TTGlyph>
    <TTGlyph name="Etagrave" xMin="-186" yMin="0" xMax="749" yMax="659">
      <component glyphName="Eta" x="0" y="0" flags="0x204"/>
      <component glyphName="grGrave.case" x="-203" y="0" flags="0x4"/>
    </TTGlyph>
    <TTGlyph name="Etaiotasub" xMin="28" yMin="-224" xMax="749" yMax="654">
      <component glyphName="Eta" x="0" y="0" flags="0x204"/>
      <component glyphName="iotaadscript.case" x="276" y="0" flags="0x4"/>
    </TTGlyph>
    <TTGlyph name="Etalenis" xMin="-164" yMin="0" xMax="749" yMax="660">
      <component glyphName="Eta" x="0" y="0" flags="0x204"/>
      <component glyphName="lenis.case" x="-187" y="0" flags="0x4"/>
    </TTGlyph>
    <TTGlyph name="Etalenisacute" xMin="-323" yMin="0" xMax="749" yMax="660">
      <component glyphName="Eta" x="0" y="0" flags="0x204"/>
      <component glyphName="lenisacute.case" x="-206" y="0" flags="0x4"/>
    </TTGlyph>
    <TTGlyph name="Etalenisacuteiotasub" xMin="-323" yMin="-224" xMax="749" yMax="660">
      <component glyphName="Eta" x="0" y="0" flags="0x204"/>
      <component glyphName="lenisacute.case" x="-206" y="0" flags="0x4"/>
      <component glyphName="iotaadscript.case" x="276" y="0" flags="0x4"/>
    </TTGlyph>
    <TTGlyph name="Etalenisgrave" xMin="-345" yMin="0" xMax="749" yMax="660">
      <component glyphName="Eta" x="0" y="0" flags="0x204"/>
      <component glyphName="lenisgrave.case" x="-212" y="0" flags="0x4"/>
    </TTGlyph>
    <TTGlyph name="Etalenisgraveiotasub" xMin="-345" yMin="-224" xMax="749" yMax="660">
      <component glyphName="Eta" x="0" y="0" flags="0x204"/>
      <component glyphName="lenisgrave.case" x="-212" y="0" flags="0x4"/>
      <component glyphName="iotaadscript.case" x="276" y="0" flags="0x4"/>
    </TTGlyph>
    <TTGlyph name="Etalenisiotasub" xMin="-164" yMin="-224" xMax="749" yMax="660">
      <component glyphName="Eta" x="0" y="0" flags="0x204"/>
      <component glyphName="lenis.case" x="-187" y="0" flags="0x4"/>
      <component glyphName="iotaadscript.case" x="276" y="0" flags="0x4"/>
    </TTGlyph>
    <TTGlyph name="Etalenistilde" xMin="-353" yMin="0" xMax="749" yMax="673">
      <component glyphName="Eta" x="0" y="0" flags="0x204"/>
      <component glyphName="lenistilde.case" x="-205" y="0" flags="0x4"/>
    </TTGlyph>
    <TTGlyph name="Etalenistildeiotasub" xMin="-353" yMin="-224" xMax="749" yMax="673">
      <component glyphName="Eta" x="0" y="0" flags="0x204"/>
      <component glyphName="lenistilde.case" x="-205" y="0" flags="0x4"/>
      <component glyphName="iotaadscript.case" x="276" y="0" flags="0x4"/>
    </TTGlyph>
    <TTGlyph name="Etawithtonos" xMin="-178" yMin="0" xMax="749" yMax="660">
      <component glyphName="Eta" x="0" y="0" flags="0x204"/>
      <component glyphName="tonos.case" x="-187" y="0" flags="0x4"/>
    </TTGlyph>
    <TTGlyph name="Eth" xMin="16" yMin="0" xMax="664" yMax="662">
      <component glyphName="Dcroat" x="0" y="0" flags="0x204"/>
    </TTGlyph>
    <TTGlyph name="Euro" xMin="-30" yMin="-21" xMax="593" yMax="670">
      <contour>
        <pt x="-30" y="227" on="1"/>
        <pt x="6" y="267" on="1"/>
        <pt x="86" y="267" on="1"/>
        <pt x="85" y="278" on="0"/>
        <pt x="84" y="301" on="0"/>
        <pt x="84" y="312" on="1"/>
        <pt x="84" y="321" on="0"/>
        <pt x="85" y="340" on="0"/>
        <pt x="86" y="349" on="1"/>
        <pt x="2" y="349" on="1"/>
        <pt x="-4" y="370" on="1"/>
        <pt x="32" y="410" on="1"/>
        <pt x="95" y="410" on="1"/>
        <pt x="107" y="461" on="0"/>
        <pt x="156" y="556" on="0"/>
        <pt x="231" y="627" on="0"/>
        <pt x="336" y="670" on="0"/>
        <pt x="403" y="670" on="1"/>
        <pt x="460" y="670" on="0"/>
        <pt x="555" y="638" on="0"/>
        <pt x="592" y="609" on="1"/>
        <pt x="592" y="609" on="1"/>
        <pt x="593" y="609" on="1"/>
        <pt x="590" y="568" on="0"/>
        <pt x="576" y="487" on="0"/>
        <pt x="568" y="462" on="1"/>
        <pt x="505" y="462" on="1"/>
        <pt x="495" y="560" on="1"/>
        <pt x="455" y="582" on="0"/>
        <pt x="375" y="601" on="0"/>
        <pt x="335" y="597" on="1"/>
        <pt x="292" y="569" on="0"/>
        <pt x="232" y="471" on="0"/>
        <pt x="219" y="410" on="1"/>
        <pt x="536" y="410" on="1"/>
        <pt x="542" y="389" on="1"/>
        <pt x="507" y="349" on="1"/>
        <pt x="211" y="349" on="1"/>
        <pt x="210" y="342" on="0"/>
        <pt x="210" y="326" on="0"/>
        <pt x="210" y="319" on="1"/>
        <pt x="210" y="306" on="0"/>
        <pt x="212" y="280" on="0"/>
        <pt x="213" y="267" on="1"/>
        <pt x="496" y="267" on="1"/>
        <pt x="502" y="246" on="1"/>
        <pt x="466" y="206" on="1"/>
        <pt x="227" y="206" on="1"/>
        <pt x="247" y="150" on="0"/>
        <pt x="343" y="77" on="0"/>
        <pt x="425" y="73" on="1"/>
        <pt x="571" y="114" on="1"/>
        <pt x="592" y="56" on="1"/>
        <pt x="407" y="-21" on="1"/>
        <pt x="341" y="-20" on="0"/>
        <pt x="237" y="16" on="0"/>
        <pt x="160" y="77" on="0"/>
        <pt x="110" y="159" on="0"/>
        <pt x="97" y="206" on="1"/>
        <pt x="-24" y="206" on="1"/>
      </contour>
    </TTGlyph>
    <TTGlyph name="F" xMin="28" yMin="0" xMax="529" yMax="654">
      <contour>
        <pt x="28" y="32" on="1"/>
        <pt x="47" y="42" on="0"/>
        <pt x="89" y="60" on="0"/>
        <pt x="111" y="67" on="1"/>
        <pt x="111" y="597" on="1"/>
        <pt x="39" y="604" on="1"/>
        <pt x="40" y="654" on="1"/>
        <pt x="529" y="654" on="1"/>
        <pt x="530" y="641" on="0"/>
        <pt x="530" y="599" on="0"/>
        <pt x="527" y="550" on="0"/>
        <pt x="520" y="499" on="0"/>
        <pt x="516" y="475" on="1"/>
        <pt x="447" y="475" on="1"/>
        <pt x="432" y="572" on="1"/>
        <pt x="233" y="586" on="1"/>
        <pt x="233" y="340" on="1"/>
        <pt x="460" y="357" on="1"/>
        <pt x="460" y="261" on="1"/>
        <pt x="233" y="270" on="1"/>
        <pt x="233" y="65" on="1"/>
        <pt x="352" y="49" on="1"/>
        <pt x="351" y="0" on="1"/>
        <pt x="34" y="0" on="1"/>
      </contour>
    </TTGlyph>
    <TTGlyph name="G" xMin="17" yMin="-20" xMax="661" yMax="674">
      <contour>
        <pt x="381" y="-20" on="1"/>
        <pt x="286" y="-25" on="0"/>
        <pt x="147" y="31" on="0"/>
        <pt x="59" y="127" on="0"/>
        <pt x="17" y="251" on="0"/>
        <pt x="17" y="314" on="1"/>
        <pt x="17" y="382" on="0"/>
        <pt x="62" y="512" on="0"/>
        <pt x="150" y="612" on="0"/>
        <pt x="284" y="674" on="0"/>
        <pt x="372" y="674" on="1"/>
        <pt x="447" y="674" on="0"/>
        <pt x="553" y="631" on="0"/>
        <pt x="578" y="613" on="1"/>
        <pt x="577" y="610" on="1"/>
        <pt x="580" y="583" on="0"/>
        <pt x="571" y="499" on="0"/>
        <pt x="559" y="456" on="1"/>
        <pt x="484" y="456" on="1"/>
        <pt x="467" y="557" on="1"/>
        <pt x="430" y="575" on="0"/>
        <pt x="324" y="599" on="0"/>
        <pt x="261" y="593" on="1"/>
        <pt x="231" y="574" on="0"/>
        <pt x="187" y="517" on="0"/>
        <pt x="159" y="447" on="0"/>
        <pt x="145" y="368" on="0"/>
        <pt x="145" y="328" on="1"/>
        <pt x="145" y="278" on="0"/>
        <pt x="172" y="184" on="0"/>
        <pt x="226" y="112" on="0"/>
        <pt x="307" y="67" on="0"/>
        <pt x="360" y="66" on="1"/>
        <pt x="386" y="65" on="0"/>
        <pt x="443" y="74" on="0"/>
        <pt x="468" y="80" on="1"/>
        <pt x="468" y="226" on="1"/>
        <pt x="443" y="234" on="0"/>
        <pt x="388" y="255" on="0"/>
        <pt x="363" y="268" on="1"/>
        <pt x="369" y="302" on="1"/>
        <pt x="660" y="302" on="1"/>
        <pt x="661" y="254" on="1"/>
        <pt x="584" y="241" on="1"/>
        <pt x="584" y="71" on="1"/>
        <pt x="585" y="70" on="1"/>
      </contour>
    </TTGlyph>
    <TTGlyph name="Gamma" xMin="28" yMin="0" xMax="526" yMax="654">
      <contour>
        <pt x="28" y="32" on="1"/>
        <pt x="47" y="42" on="0"/>
        <pt x="91" y="60" on="0"/>
        <pt x="113" y="68" on="1"/>
        <pt x="113" y="597" on="1"/>
        <pt x="41" y="604" on="1"/>
        <pt x="42" y="654" on="1"/>
        <pt x="526" y="654" on="1"/>
        <pt x="527" y="626" on="0"/>
        <pt x="523" y="519" on="0"/>
        <pt x="513" y="470" on="1"/>
        <pt x="444" y="470" on="1"/>
        <pt x="430" y="573" on="1"/>
        <pt x="235" y="586" on="1"/>
        <pt x="235" y="65" on="1"/>
        <pt x="354" y="49" on="1"/>
        <pt x="353" y="0" on="1"/>
        <pt x="34" y="0" on="1"/>
      </contour>
    </TTGlyph>
    <TTGlyph name="Gbreve" xMin="17" yMin="-20" xMax="661" yMax="864">
      <component glyphName="G" x="0" y="0" flags="0x204"/>
      <component glyphName="uni0306.case" x="349" y="0" flags="0x4"/>
    </TTGlyph>
    <TTGlyph name="Gcommaaccent" xMin="17" yMin="-281" xMax="661" yMax="674">
      <component glyphName="G" x="0" y="0" flags="0x204"/>
      <component glyphName="uni0326.case" x="348" y="0" flags="0x4"/>
    </TTGlyph>
    <TTGlyph name="H" xMin="28" yMin="0" xMax="749" yMax="654">
      <contour>
        <pt x="28" y="32" on="1"/>
        <pt x="47" y="42" on="0"/>
        <pt x="91" y="60" on="0"/>
        <pt x="113" y="68" on="1"/>
        <pt x="113" y="595" on="1"/>
        <pt x="36" y="605" on="1"/>
        <pt x="37" y="654" on="1"/>
        <pt x="314" y="654" on="1"/>
        <pt x="320" y="622" on="1"/>
        <pt x="301" y="612" on="0"/>
        <pt x="257" y="594" on="0"/>
        <pt x="235" y="586" on="1"/>
        <pt x="235" y="364" on="1"/>
        <pt x="532" y="364" on="1"/>
        <pt x="532" y="595" on="1"/>
        <pt x="455" y="605" on="1"/>
        <pt x="456" y="654" on="1"/>
        <pt x="733" y="654" on="1"/>
        <pt x="739" y="622" on="1"/>
        <pt x="720" y="612" on="0"/>
        <pt x="676" y="594" on="0"/>
        <pt x="654" y="586" on="1"/>
        <pt x="654" y="61" on="1"/>
        <pt x="749" y="49" on="1"/>
        <pt x="748" y="0" on="1"/>
        <pt x="453" y="0" on="1"/>
        <pt x="447" y="32" on="1"/>
        <pt x="466" y="42" on="0"/>
        <pt x="510" y="60" on="0"/>
        <pt x="532" y="68" on="1"/>
        <pt x="532" y="286" on="1"/>
        <pt x="235" y="286" on="1"/>
        <pt x="235" y="61" on="1"/>
        <pt x="330" y="49" on="1"/>
        <pt x="329" y="0" on="1"/>
        <pt x="34" y="0" on="1"/>
      </contour>
    </TTGlyph>
    <TTGlyph name="I" xMin="28" yMin="0" xMax="330" yMax="654">
      <contour>
        <pt x="28" y="32" on="1"/>
        <pt x="47" y="42" on="0"/>
        <pt x="91" y="60" on="0"/>
        <pt x="113" y="68" on="1"/>
        <pt x="113" y="595" on="1"/>
        <pt x="36" y="605" on="1"/>
        <pt x="37" y="654" on="1"/>
        <pt x="314" y="654" on="1"/>
        <pt x="320" y="622" on="1"/>
        <pt x="301" y="612" on="0"/>
        <pt x="257" y="594" on="0"/>
        <pt x="235" y="586" on="1"/>
        <pt x="235" y="61" on="1"/>
        <pt x="330" y="49" on="1"/>
        <pt x="329" y="0" on="1"/>
        <pt x="34" y="0" on="1"/>
      </contour>
    </TTGlyph>
    <TTGlyph name="Iacute" xMin="28" yMin="0" xMax="340" yMax="886">
      <component glyphName="I" x="0" y="0" flags="0x204"/>
      <component glyphName="acutecomb.case" x="174" y="0" flags="0x4"/>
    </TTGlyph>
    <TTGlyph name="Icircumflex" xMin="-19" yMin="0" xMax="374" yMax="891">
      <component glyphName="I" x="0" y="0" flags="0x204"/>
      <component glyphName="uni0302.case" x="176" y="35" flags="0x4"/>
    </TTGlyph>
    <TTGlyph name="Idieresis" xMin="-2" yMin="0" xMax="353" yMax="878">
      <component glyphName="I" x="0" y="0" flags="0x204"/>
      <component glyphName="uni0308.case" x="175" y="180" flags="0x4"/>
    </TTGlyph>
    <TTGlyph name="Idotaccent" xMin="28" yMin="0" xMax="330" yMax="878">
      <component glyphName="I" x="0" y="0" flags="0x204"/>
      <component glyphName="uni0307.case" x="175" y="180" flags="0x4"/>
    </TTGlyph>
    <TTGlyph name="Igrave" xMin="28" yMin="0" xMax="330" yMax="886">
      <component glyphName="I" x="0" y="0" flags="0x204"/>
      <component glyphName="gravecomb.case" x="177" y="0" flags="0x4"/>
    </TTGlyph>
    <TTGlyph name="Imacron" xMin="28" yMin="0" xMax="349" yMax="800">
      <contour>
        <pt x="28" y="775" on="1"/>
        <pt x="57" y="790" on="0"/>
        <pt x="118" y="800" on="0"/>
        <pt x="141" y="800" on="1"/>
        <pt x="344" y="800" on="1"/>
        <pt x="349" y="759" on="1"/>
        <pt x="302" y="721" on="1"/>
        <pt x="34" y="721" on="1"/>
      </contour>
      <contour>
        <pt x="36" y="32" on="1"/>
        <pt x="55" y="42" on="0"/>
        <pt x="99" y="60" on="0"/>
        <pt x="121" y="68" on="1"/>
        <pt x="121" y="595" on="1"/>
        <pt x="44" y="605" on="1"/>
        <pt x="45" y="654" on="1"/>
        <pt x="322" y="654" on="1"/>
        <pt x="328" y="622" on="1"/>
        <pt x="309" y="612" on="0"/>
        <pt x="265" y="594" on="0"/>
        <pt x="243" y="586" on="1"/>
        <pt x="243" y="61" on="1"/>
        <pt x="338" y="49" on="1"/>
        <pt x="337" y="0" on="1"/>
        <pt x="42" y="0" on="1"/>
      </contour>
    </TTGlyph>
    <TTGlyph name="Iogonek" xMin="28" yMin="-264" xMax="330" yMax="654">
      <component glyphName="I" x="0" y="0" flags="0x204"/>
      <component glyphName="uni0328.case" x="263" y="-9" flags="0x4"/>
    </TTGlyph>
    <TTGlyph name="Iota" xMin="28" yMin="0" xMax="330" yMax="654">
      <component glyphName="I" x="0" y="0" flags="0x204"/>
    </TTGlyph>
    <TTGlyph name="Iotaacute" xMin="-179" yMin="0" xMax="330" yMax="659">
      <component glyphName="grAcute.case" x="-188" y="0" flags="0x4"/>
      <component glyphName="Iota" x="0" y="0" flags="0x204"/>
    </TTGlyph>
    <TTGlyph name="Iotaasper" xMin="-171" yMin="0" xMax="330" yMax="660">
      <component glyphName="Iota" x="0" y="0" flags="0x204"/>
      <component glyphName="asper.case" x="-199" y="0" flags="0x4"/>
    </TTGlyph>
    <TTGlyph name="Iotaasperacute" xMin="-338" yMin="0" xMax="330" yMax="660">
      <component glyphName="asperacute.case" x="-237" y="0" flags="0x4"/>
      <component glyphName="Iota" x="0" y="0" flags="0x204"/>
    </TTGlyph>
    <TTGlyph name="Iotaaspergrave" xMin="-344" yMin="0" xMax="330" yMax="660">
      <component glyphName="aspergrave.case" x="-239" y="0" flags="0x4"/>
      <component glyphName="Iota" x="0" y="0" flags="0x204"/>
    </TTGlyph>
    <TTGlyph name="Iotaaspertilde" xMin="-353" yMin="0" xMax="330" yMax="673">
      <component glyphName="aspertilde.case" x="-205" y="0" flags="0x4"/>
      <component glyphName="Iota" x="0" y="0" flags="0x204"/>
    </TTGlyph>
    <TTGlyph name="Iotabreve" xMin="26" yMin="0" xMax="333" yMax="864">
      <component glyphName="uni0306.case" x="179" y="0" flags="0x4"/>
      <component glyphName="Iota" x="0" y="0" flags="0x204"/>
    </TTGlyph>
    <TTGlyph name="Iotadieresis" xMin="1" yMin="0" xMax="356" yMax="879">
      <component glyphName="uni0308" x="178" y="181" flags="0x4"/>
      <component glyphName="Iota" x="0" y="0" flags="0x204"/>
    </TTGlyph>
    <TTGlyph name="Iotagrave" xMin="-186" yMin="0" xMax="330" yMax="659">
      <component glyphName="Iota" x="0" y="0" flags="0x204"/>
      <component glyphName="grGrave.case" x="-203" y="0" flags="0x4"/>
    </TTGlyph>
    <TTGlyph name="Iotalenis" xMin="-165" yMin="0" xMax="330" yMax="660">
      <component glyphName="lenis.case" x="-188" y="0" flags="0x4"/>
      <component glyphName="Iota" x="0" y="0" flags="0x204"/>
    </TTGlyph>
    <TTGlyph name="Iotalenisacute" xMin="-323" yMin="0" xMax="330" yMax="660">
      <component glyphName="lenisacute.case" x="-206" y="0" flags="0x4"/>
      <component glyphName="Iota" x="0" y="0" flags="0x204"/>
    </TTGlyph>
    <TTGlyph name="Iotalenisgrave" xMin="-346" yMin="0" xMax="330" yMax="660">
      <component glyphName="Iota" x="0" y="0" flags="0x204"/>
      <component glyphName="lenisgrave.case" x="-213" y="0" flags="0x4"/>
    </TTGlyph>
    <TTGlyph name="Iotalenistilde" xMin="-353" yMin="0" xMax="330" yMax="673">
      <component glyphName="Iota" x="0" y="0" flags="0x204"/>
      <component glyphName="lenistilde.case" x="-205" y="0" flags="0x4"/>
    </TTGlyph>
    <TTGlyph name="Iotawithmacron" xMin="-13" yMin="0" xMax="387" yMax="821">
      <component glyphName="uni0304.case" x="177" y="0" flags="0x4"/>
      <component glyphName="Iota" x="0" y="0" flags="0x204"/>
    </TTGlyph>
    <TTGlyph name="Iotawithtonos" xMin="-179" yMin="0" xMax="330" yMax="660">
      <component glyphName="Iota" x="0" y="0" flags="0x204"/>
      <component glyphName="tonos.case" x="-188" y="0" flags="0x4"/>
    </TTGlyph>
    <TTGlyph name="J" xMin="-11" yMin="-184" xMax="339" yMax="654">
      <contour>
        <pt x="-11" y="-131" on="1"/>
        <pt x="21" y="-111" on="0"/>
        <pt x="74" y="-65" on="0"/>
        <pt x="112" y="-4" on="0"/>
        <pt x="133" y="78" on="0"/>
        <pt x="133" y="134" on="1"/>
        <pt x="133" y="593" on="1"/>
        <pt x="39" y="605" on="1"/>
        <pt x="40" y="654" on="1"/>
        <pt x="333" y="654" on="1"/>
        <pt x="339" y="622" on="1"/>
        <pt x="320" y="612" on="0"/>
        <pt x="277" y="594" on="0"/>
        <pt x="255" y="586" on="1"/>
        <pt x="255" y="105" on="1"/>
        <pt x="255" y="48" on="0"/>
        <pt x="218" y="-40" on="0"/>
        <pt x="155" y="-109" on="0"/>
        <pt x="71" y="-162" on="0"/>
        <pt x="25" y="-184" on="1"/>
      </contour>
    </TTGlyph>
    <TTGlyph name="K" xMin="28" yMin="0" xMax="674" yMax="654">
      <contour>
        <pt x="28" y="32" on="1"/>
        <pt x="47" y="42" on="0"/>
        <pt x="91" y="60" on="0"/>
        <pt x="113" y="68" on="1"/>
        <pt x="113" y="595" on="1"/>
        <pt x="35" y="605" on="1"/>
        <pt x="36" y="654" on="1"/>
        <pt x="314" y="654" on="1"/>
        <pt x="320" y="622" on="1"/>
        <pt x="301" y="612" on="0"/>
        <pt x="257" y="594" on="0"/>
        <pt x="235" y="586" on="1"/>
        <pt x="235" y="345" on="1"/>
        <pt x="469" y="596" on="1"/>
        <pt x="401" y="605" on="1"/>
        <pt x="402" y="654" on="1"/>
        <pt x="635" y="654" on="1"/>
        <pt x="641" y="622" on="1"/>
        <pt x="625" y="613" on="0"/>
        <pt x="585" y="598" on="0"/>
        <pt x="565" y="591" on="1"/>
        <pt x="370" y="384" on="1"/>
        <pt x="615" y="57" on="1"/>
        <pt x="674" y="50" on="1"/>
        <pt x="673" y="0" on="1"/>
        <pt x="504" y="0" on="1"/>
        <pt x="289" y="297" on="1"/>
        <pt x="235" y="240" on="1"/>
        <pt x="235" y="61" on="1"/>
        <pt x="326" y="49" on="1"/>
        <pt x="325" y="0" on="1"/>
        <pt x="34" y="0" on="1"/>
      </contour>
    </TTGlyph>
    <TTGlyph name="KORONIS" xMin="108" yMin="530" xMax="245" yMax="775">
      <component glyphName="lenis" x="0" y="0" flags="0x204"/>
    </TTGlyph>
    <TTGlyph name="Kappa" xMin="28" yMin="0" xMax="674" yMax="654">
      <component glyphName="K" x="0" y="0" flags="0x204"/>
    </TTGlyph>
    <TTGlyph name="Kcommaaccent" xMin="28" yMin="-281" xMax="674" yMax="654">
      <component glyphName="K" x="0" y="0" flags="0x204"/>
      <component glyphName="uni0326.case" x="376" y="0" flags="0x4"/>
    </TTGlyph>
    <TTGlyph name="L" xMin="28" yMin="0" xMax="561" yMax="654">
      <contour>
        <pt x="28" y="32" on="1"/>
        <pt x="47" y="42" on="0"/>
        <pt x="91" y="60" on="0"/>
        <pt x="113" y="68" on="1"/>
        <pt x="113" y="595" on="1"/>
        <pt x="36" y="605" on="1"/>
        <pt x="37" y="654" on="1"/>
        <pt x="314" y="654" on="1"/>
        <pt x="320" y="622" on="1"/>
        <pt x="301" y="612" on="0"/>
        <pt x="257" y="594" on="0"/>
        <pt x="235" y="586" on="1"/>
        <pt x="235" y="75" on="1"/>
        <pt x="456" y="89" on="1"/>
        <pt x="489" y="220" on="1"/>
        <pt x="561" y="215" on="1"/>
        <pt x="561" y="191" on="0"/>
        <pt x="560" y="132" on="0"/>
        <pt x="557" y="74" on="0"/>
        <pt x="552" y="20" on="0"/>
        <pt x="548" y="0" on="1"/>
        <pt x="34" y="0" on="1"/>
      </contour>
    </TTGlyph>
    <TTGlyph name="Lacute" xMin="28" yMin="0" xMax="561" yMax="886">
      <component glyphName="L" x="0" y="0" flags="0x204"/>
      <component glyphName="acutecomb.case" x="177" y="0" flags="0x4"/>
    </TTGlyph>
    <TTGlyph name="Lamda" xMin="-20" yMin="0" xMax="711" yMax="678">
      <contour>
        <pt x="-20" y="32" on="1"/>
        <pt x="-1" y="42" on="0"/>
        <pt x="41" y="60" on="0"/>
        <pt x="63" y="67" on="1"/>
        <pt x="291" y="622" on="1"/>
        <pt x="281" y="647" on="1"/>
        <pt x="386" y="678" on="1"/>
        <pt x="639" y="58" on="1"/>
        <pt x="711" y="49" on="1"/>
        <pt x="710" y="0" on="1"/>
        <pt x="419" y="0" on="1"/>
        <pt x="413" y="32" on="1"/>
        <pt x="433" y="43" on="0"/>
        <pt x="481" y="62" on="0"/>
        <pt x="505" y="70" on="1"/>
        <pt x="331" y="519" on="1"/>
        <pt x="154" y="62" on="1"/>
        <pt x="252" y="49" on="1"/>
        <pt x="251" y="0" on="1"/>
        <pt x="-14" y="0" on="1"/>
      </contour>
    </TTGlyph>
    <TTGlyph name="Lcaron" xMin="28" yMin="0" xMax="561" yMax="761">
      <component glyphName="L" x="0" y="0" flags="0x204"/>
      <component glyphName="uni030C.calt" x="422" y="1" flags="0x4"/>
    </TTGlyph>
    <TTGlyph name="Lcommaaccent" xMin="28" yMin="-281" xMax="561" yMax="654">
      <component glyphName="L" x="0" y="0" flags="0x204"/>
      <component glyphName="uni0326.case" x="287" y="0" flags="0x4"/>
    </TTGlyph>
    <TTGlyph name="Lslash" xMin="28" yMin="0" xMax="577" yMax="654">
      <contour>
        <pt x="44" y="32" on="1"/>
        <pt x="63" y="42" on="0"/>
        <pt x="107" y="60" on="0"/>
        <pt x="129" y="68" on="1"/>
        <pt x="129" y="242" on="1"/>
        <pt x="60" y="205" on="1"/>
        <pt x="28" y="264" on="1"/>
        <pt x="129" y="319" on="1"/>
        <pt x="129" y="595" on="1"/>
        <pt x="52" y="605" on="1"/>
        <pt x="53" y="654" on="1"/>
        <pt x="330" y="654" on="1"/>
        <pt x="336" y="622" on="1"/>
        <pt x="317" y="612" on="0"/>
        <pt x="273" y="594" on="0"/>
        <pt x="251" y="586" on="1"/>
        <pt x="251" y="386" on="1"/>
        <pt x="384" y="458" on="1"/>
        <pt x="401" y="435" on="1"/>
        <pt x="389" y="382" on="1"/>
        <pt x="251" y="308" on="1"/>
        <pt x="251" y="75" on="1"/>
        <pt x="472" y="89" on="1"/>
        <pt x="505" y="220" on="1"/>
        <pt x="577" y="215" on="1"/>
        <pt x="577" y="191" on="0"/>
        <pt x="576" y="132" on="0"/>
        <pt x="573" y="74" on="0"/>
        <pt x="568" y="20" on="0"/>
        <pt x="564" y="0" on="1"/>
        <pt x="50" y="0" on="1"/>
      </contour>
    </TTGlyph>
    <TTGlyph name="M" xMin="28" yMin="-7" xMax="899" yMax="650">
      <contour>
        <pt x="28" y="32" on="1"/>
        <pt x="48" y="42" on="0"/>
        <pt x="94" y="61" on="0"/>
        <pt x="116" y="69" on="1"/>
        <pt x="133" y="590" on="1"/>
        <pt x="52" y="603" on="1"/>
        <pt x="53" y="650" on="1"/>
        <pt x="286" y="650" on="1"/>
        <pt x="471" y="133" on="1"/>
        <pt x="658" y="650" on="1"/>
        <pt x="866" y="650" on="1"/>
        <pt x="872" y="618" on="1"/>
        <pt x="855" y="608" on="0"/>
        <pt x="814" y="592" on="0"/>
        <pt x="794" y="585" on="1"/>
        <pt x="803" y="62" on="1"/>
        <pt x="899" y="47" on="1"/>
        <pt x="898" y="0" on="1"/>
        <pt x="605" y="0" on="1"/>
        <pt x="599" y="32" on="1"/>
        <pt x="618" y="42" on="0"/>
        <pt x="663" y="61" on="0"/>
        <pt x="685" y="68" on="1"/>
        <pt x="681" y="381" on="1"/>
        <pt x="695" y="550" on="1"/>
        <pt x="500" y="18" on="1"/>
        <pt x="500" y="16" on="1"/>
        <pt x="399" y="-7" on="1"/>
        <pt x="200" y="545" on="1"/>
        <pt x="217" y="381" on="1"/>
        <pt x="210" y="61" on="1"/>
        <pt x="295" y="47" on="1"/>
        <pt x="294" y="0" on="1"/>
        <pt x="34" y="0" on="1"/>
      </contour>
    </TTGlyph>
    <TTGlyph name="Mu" xMin="28" yMin="-7" xMax="899" yMax="650">
      <component glyphName="M" x="0" y="0" flags="0x204"/>
    </TTGlyph>
    <TTGlyph name="N" xMin="28" yMin="-12" xMax="731" yMax="654">
      <contour>
        <pt x="28" y="32" on="1"/>
        <pt x="47" y="42" on="0"/>
        <pt x="91" y="60" on="0"/>
        <pt x="113" y="68" on="1"/>
        <pt x="113" y="596" on="1"/>
        <pt x="45" y="605" on="1"/>
        <pt x="46" y="654" on="1"/>
        <pt x="247" y="654" on="1"/>
        <pt x="572" y="139" on="1"/>
        <pt x="556" y="267" on="1"/>
        <pt x="556" y="592" on="1"/>
        <pt x="458" y="605" on="1"/>
        <pt x="459" y="654" on="1"/>
        <pt x="725" y="654" on="1"/>
        <pt x="731" y="622" on="1"/>
        <pt x="712" y="612" on="0"/>
        <pt x="670" y="594" on="0"/>
        <pt x="648" y="587" on="1"/>
        <pt x="646" y="0" on="1"/>
        <pt x="525" y="-12" on="1"/>
        <pt x="525" y="-12" on="1"/>
        <pt x="525" y="-12" on="1"/>
        <pt x="524" y="-12" on="1"/>
        <pt x="525" y="-11" on="1"/>
        <pt x="189" y="514" on="1"/>
        <pt x="205" y="384" on="1"/>
        <pt x="205" y="60" on="1"/>
        <pt x="293" y="49" on="1"/>
        <pt x="292" y="0" on="1"/>
        <pt x="34" y="0" on="1"/>
      </contour>
    </TTGlyph>
    <TTGlyph name="Nacute" xMin="28" yMin="-12" xMax="731" yMax="886">
      <component glyphName="N" x="0" y="0" flags="0x204"/>
      <component glyphName="acutecomb.case" x="359" y="0" flags="0x4"/>
    </TTGlyph>
    <TTGlyph name="Ncaron" xMin="28" yMin="-12" xMax="731" yMax="892">
      <component glyphName="N" x="0" y="0" flags="0x204"/>
      <component glyphName="uni030C.case" x="361" y="35" flags="0x4"/>
    </TTGlyph>
    <TTGlyph name="Ncommaaccent" xMin="28" yMin="-281" xMax="731" yMax="654">
      <component glyphName="N" x="0" y="0" flags="0x204"/>
      <component glyphName="uni0326.case" x="386" y="0" flags="0x4"/>
    </TTGlyph>
    <TTGlyph name="Ntilde" xMin="28" yMin="-12" xMax="731" yMax="875">
      <component glyphName="N" x="0" y="0" flags="0x204"/>
      <component glyphName="tildecomb.case" x="361" y="0" flags="0x4"/>
    </TTGlyph>
    <TTGlyph name="Nu" xMin="28" yMin="-12" xMax="731" yMax="654">
      <component glyphName="N" x="0" y="0" flags="0x204"/>
    </TTGlyph>
    <TTGlyph name="O" xMin="17" yMin="-20" xMax="647" yMax="674">
      <contour>
        <pt x="335" y="-20" on="1"/>
        <pt x="275" y="-20" on="0"/>
        <pt x="160" y="23" on="0"/>
        <pt x="71" y="108" on="0"/>
        <pt x="17" y="238" on="0"/>
        <pt x="17" y="323" on="1"/>
        <pt x="17" y="402" on="0"/>
        <pt x="65" y="532" on="0"/>
        <pt x="148" y="624" on="0"/>
        <pt x="262" y="674" on="0"/>
        <pt x="328" y="674" on="1"/>
        <pt x="391" y="674" on="0"/>
        <pt x="507" y="627" on="0"/>
        <pt x="595" y="537" on="0"/>
        <pt x="647" y="404" on="0"/>
        <pt x="647" y="319" on="1"/>
        <pt x="647" y="233" on="0"/>
        <pt x="594" y="105" on="0"/>
        <pt x="507" y="21" on="0"/>
        <pt x="394" y="-20" on="0"/>
      </contour>
      <contour>
        <pt x="353" y="60" on="1"/>
        <pt x="369" y="60" on="0"/>
        <pt x="403" y="65" on="0"/>
        <pt x="420" y="69" on="1"/>
        <pt x="462" y="99" on="0"/>
        <pt x="514" y="231" on="0"/>
        <pt x="514" y="314" on="1"/>
        <pt x="514" y="367" on="0"/>
        <pt x="490" y="469" on="0"/>
        <pt x="442" y="548" on="0"/>
        <pt x="366" y="596" on="0"/>
        <pt x="315" y="596" on="1"/>
        <pt x="296" y="596" on="0"/>
        <pt x="252" y="588" on="0"/>
        <pt x="230" y="580" on="1"/>
        <pt x="193" y="551" on="0"/>
        <pt x="148" y="418" on="0"/>
        <pt x="148" y="339" on="1"/>
        <pt x="148" y="284" on="0"/>
        <pt x="172" y="182" on="0"/>
        <pt x="222" y="106" on="0"/>
        <pt x="300" y="60" on="0"/>
      </contour>
    </TTGlyph>
    <TTGlyph name="OE" xMin="17" yMin="-13" xMax="865" yMax="669">
      <contour>
        <pt x="337" y="-13" on="1"/>
        <pt x="278" y="-13" on="0"/>
        <pt x="163" y="27" on="0"/>
        <pt x="73" y="111" on="0"/>
        <pt x="17" y="242" on="0"/>
        <pt x="17" y="333" on="1"/>
        <pt x="17" y="421" on="0"/>
        <pt x="79" y="548" on="0"/>
        <pt x="176" y="630" on="0"/>
        <pt x="297" y="669" on="0"/>
        <pt x="356" y="669" on="1"/>
        <pt x="383" y="669" on="0"/>
        <pt x="436" y="661" on="0"/>
        <pt x="461" y="654" on="1"/>
        <pt x="856" y="654" on="1"/>
        <pt x="858" y="627" on="0"/>
        <pt x="852" y="524" on="0"/>
        <pt x="843" y="477" on="1"/>
        <pt x="774" y="477" on="1"/>
        <pt x="759" y="571" on="1"/>
        <pt x="561" y="580" on="1"/>
        <pt x="561" y="360" on="1"/>
        <pt x="777" y="377" on="1"/>
        <pt x="777" y="283" on="1"/>
        <pt x="561" y="292" on="1"/>
        <pt x="561" y="77" on="1"/>
        <pt x="767" y="87" on="1"/>
        <pt x="797" y="194" on="1"/>
        <pt x="865" y="189" on="1"/>
        <pt x="866" y="168" on="0"/>
        <pt x="864" y="118" on="0"/>
        <pt x="861" y="66" on="0"/>
        <pt x="856" y="18" on="0"/>
        <pt x="853" y="0" on="1"/>
        <pt x="443" y="0" on="1"/>
        <pt x="418" y="-7" on="0"/>
        <pt x="364" y="-13" on="0"/>
      </contour>
      <contour>
        <pt x="145" y="330" on="1"/>
        <pt x="145" y="280" on="0"/>
        <pt x="169" y="185" on="0"/>
        <pt x="219" y="111" on="0"/>
        <pt x="296" y="66" on="0"/>
        <pt x="349" y="66" on="1"/>
        <pt x="372" y="66" on="0"/>
        <pt x="420" y="72" on="0"/>
        <pt x="439" y="81" on="1"/>
        <pt x="439" y="572" on="1"/>
        <pt x="417" y="581" on="0"/>
        <pt x="364" y="589" on="0"/>
        <pt x="338" y="589" on="1"/>
        <pt x="312" y="589" on="0"/>
        <pt x="261" y="581" on="0"/>
        <pt x="239" y="573" on="1"/>
        <pt x="195" y="539" on="0"/>
        <pt x="145" y="404" on="0"/>
      </contour>
    </TTGlyph>
    <TTGlyph name="Oacute" xMin="17" yMin="-20" xMax="647" yMax="886">
      <component glyphName="O" x="0" y="0" flags="0x204"/>
      <component glyphName="acutecomb.case" x="330" y="0" flags="0x4"/>
    </TTGlyph>
    <TTGlyph name="Ocircumflex" xMin="17" yMin="-20" xMax="647" yMax="891">
      <component glyphName="O" x="0" y="0" flags="0x204"/>
      <component glyphName="uni0302.case" x="332" y="35" flags="0x4"/>
    </TTGlyph>
    <TTGlyph name="Odieresis" xMin="17" yMin="-20" xMax="647" yMax="878">
      <component glyphName="O" x="0" y="0" flags="0x204"/>
      <component glyphName="uni0308.case" x="331" y="180" flags="0x4"/>
    </TTGlyph>
    <TTGlyph name="Ograve" xMin="17" yMin="-20" xMax="647" yMax="886">
      <component glyphName="O" x="0" y="0" flags="0x204"/>
      <component glyphName="gravecomb.case" x="333" y="0" flags="0x4"/>
    </TTGlyph>
    <TTGlyph name="Ohungarumlaut" xMin="17" yMin="-20" xMax="647" yMax="921">
      <component glyphName="O" x="0" y="0" flags="0x204"/>
      <component glyphName="uni030B.case" x="331" y="180" flags="0x4"/>
    </TTGlyph>
    <TTGlyph name="Omacron" xMin="17" yMin="-20" xMax="647" yMax="821">
      <component glyphName="O" x="0" y="0" flags="0x204"/>
      <component glyphName="uni0304.case" x="330" y="0" flags="0x4"/>
    </TTGlyph>
    <TTGlyph name="Omega" xMin="17" yMin="0" xMax="777" yMax="674">
      <contour>
        <pt x="30" y="0" on="1"/>
        <pt x="27" y="21" on="0"/>
        <pt x="21" y="72" on="0"/>
        <pt x="18" y="123" on="0"/>
        <pt x="17" y="171" on="0"/>
        <pt x="18" y="189" on="1"/>
        <pt x="79" y="194" on="1"/>
        <pt x="108" y="86" on="1"/>
        <pt x="256" y="76" on="1"/>
        <pt x="175" y="122" on="0"/>
        <pt x="82" y="276" on="0"/>
        <pt x="82" y="366" on="1"/>
        <pt x="82" y="431" on="0"/>
        <pt x="130" y="544" on="0"/>
        <pt x="214" y="627" on="0"/>
        <pt x="329" y="674" on="0"/>
        <pt x="395" y="674" on="1"/>
        <pt x="461" y="674" on="0"/>
        <pt x="575" y="627" on="0"/>
        <pt x="658" y="546" on="0"/>
        <pt x="706" y="435" on="0"/>
        <pt x="706" y="372" on="1"/>
        <pt x="706" y="288" on="0"/>
        <pt x="614" y="129" on="0"/>
        <pt x="540" y="76" on="1"/>
        <pt x="686" y="86" on="1"/>
        <pt x="716" y="194" on="1"/>
        <pt x="777" y="189" on="1"/>
        <pt x="778" y="171" on="0"/>
        <pt x="776" y="123" on="0"/>
        <pt x="773" y="72" on="0"/>
        <pt x="768" y="21" on="0"/>
        <pt x="765" y="0" on="1"/>
        <pt x="764" y="0" on="1"/>
        <pt x="764" y="0" on="1"/>
        <pt x="459" y="0" on="1"/>
        <pt x="438" y="64" on="1"/>
        <pt x="508" y="130" on="0"/>
        <pt x="574" y="267" on="0"/>
        <pt x="574" y="351" on="1"/>
        <pt x="574" y="460" on="0"/>
        <pt x="463" y="596" on="0"/>
        <pt x="375" y="596" on="1"/>
        <pt x="353" y="596" on="0"/>
        <pt x="312" y="587" on="0"/>
        <pt x="292" y="580" on="1"/>
        <pt x="256" y="552" on="0"/>
        <pt x="214" y="444" on="0"/>
        <pt x="214" y="378" on="1"/>
        <pt x="214" y="284" on="0"/>
        <pt x="282" y="131" on="0"/>
        <pt x="356" y="64" on="1"/>
        <pt x="335" y="0" on="1"/>
      </contour>
    </TTGlyph>
    <TTGlyph name="Omegaacute" xMin="-88" yMin="0" xMax="777" yMax="674">
      <component glyphName="Omega" x="0" y="0" flags="0x204"/>
      <component glyphName="grAcute.case" x="-97" y="0" flags="0x4"/>
    </TTGlyph>
    <TTGlyph name="Omegaasper" xMin="-81" yMin="0" xMax="777" yMax="674">
      <component glyphName="Omega" x="0" y="0" flags="0x204"/>
      <component glyphName="asper.case" x="-109" y="0" flags="0x4"/>
    </TTGlyph>
    <TTGlyph name="Omegaasperacute" xMin="-247" yMin="0" xMax="777" yMax="674">
      <component glyphName="asperacute.case" x="-146" y="0" flags="0x4"/>
      <component glyphName="Omega" x="0" y="0" flags="0x204"/>
    </TTGlyph>
    <TTGlyph name="Omegaasperacuteiotasub" xMin="-247" yMin="-224" xMax="777" yMax="674">
      <component glyphName="asperacute.case" x="-146" y="0" flags="0x4"/>
      <component glyphName="Omega" x="0" y="0" flags="0x204"/>
      <component glyphName="iotaadscript.case" x="285" y="0" flags="0x4"/>
    </TTGlyph>
    <TTGlyph name="Omegaaspergrave" xMin="-253" yMin="0" xMax="777" yMax="674">
      <component glyphName="aspergrave.case" x="-148" y="0" flags="0x4"/>
      <component glyphName="Omega" x="0" y="0" flags="0x204"/>
    </TTGlyph>
    <TTGlyph name="Omegaaspergraveiotasub" xMin="-253" yMin="-224" xMax="777" yMax="674">
      <component glyphName="aspergrave.case" x="-148" y="0" flags="0x4"/>
      <component glyphName="Omega" x="0" y="0" flags="0x204"/>
      <component glyphName="iotaadscript.case" x="285" y="0" flags="0x4"/>
    </TTGlyph>
    <TTGlyph name="Omegaasperiotasub" xMin="-81" yMin="-224" xMax="777" yMax="674">
      <component glyphName="Omega" x="0" y="0" flags="0x204"/>
      <component glyphName="iotaadscript.case" x="285" y="0" flags="0x4"/>
      <component glyphName="asper.case" x="-109" y="0" flags="0x4"/>
    </TTGlyph>
    <TTGlyph name="Omegaaspertilde" xMin="-263" yMin="0" xMax="777" yMax="674">
      <component glyphName="aspertilde.case" x="-115" y="0" flags="0x4"/>
      <component glyphName="Omega" x="0" y="0" flags="0x204"/>
    </TTGlyph>
    <TTGlyph name="Omegaaspertildeiotasub" xMin="-263" yMin="-224" xMax="777" yMax="674">
      <component glyphName="aspertilde.case" x="-115" y="0" flags="0x4"/>
      <component glyphName="Omega" x="0" y="0" flags="0x204"/>
      <component glyphName="iotaadscript.case" x="285" y="0" flags="0x4"/>
    </TTGlyph>
    <TTGlyph name="Omegagrave" xMin="-96" yMin="0" xMax="777" yMax="674">
      <component glyphName="Omega" x="0" y="0" flags="0x204"/>
      <component glyphName="grGrave.case" x="-113" y="0" flags="0x4"/>
    </TTGlyph>
    <TTGlyph name="Omegaiotasub" xMin="17" yMin="-224" xMax="777" yMax="674">
      <component glyphName="Omega" x="0" y="0" flags="0x204"/>
      <component glyphName="iotaadscript.case" x="285" y="0" flags="0x4"/>
    </TTGlyph>
    <TTGlyph name="Omegalenis" xMin="-74" yMin="0" xMax="777" yMax="674">
      <component glyphName="lenis.case" x="-97" y="0" flags="0x4"/>
      <component glyphName="Omega" x="0" y="0" flags="0x204"/>
    </TTGlyph>
    <TTGlyph name="Omegalenisacute" xMin="-233" yMin="0" xMax="777" yMax="674">
      <component glyphName="Omega" x="0" y="0" flags="0x204"/>
      <component glyphName="lenisacute.case" x="-116" y="0" flags="0x4"/>
    </TTGlyph>
    <TTGlyph name="Omegalenisacuteiotasub" xMin="-233" yMin="-224" xMax="777" yMax="674">
      <component glyphName="Omega" x="0" y="0" flags="0x204"/>
      <component glyphName="lenisacute.case" x="-116" y="0" flags="0x4"/>
      <component glyphName="iotaadscript.case" x="285" y="0" flags="0x4"/>
    </TTGlyph>
    <TTGlyph name="Omegalenisgrave" xMin="-255" yMin="0" xMax="777" yMax="674">
      <component glyphName="Omega" x="0" y="0" flags="0x204"/>
      <component glyphName="lenisgrave.case" x="-122" y="0" flags="0x4"/>
    </TTGlyph>
    <TTGlyph name="Omegalenisgraveiotasub" xMin="-255" yMin="-224" xMax="777" yMax="674">
      <component glyphName="Omega" x="0" y="0" flags="0x204"/>
      <component glyphName="lenisgrave.case" x="-122" y="0" flags="0x4"/>
      <component glyphName="iotaadscript.case" x="285" y="0" flags="0x4"/>
    </TTGlyph>
    <TTGlyph name="Omegalenisiotasub" xMin="-74" yMin="-224" xMax="777" yMax="674">
      <component glyphName="lenis.case" x="-97" y="0" flags="0x4"/>
      <component glyphName="Omega" x="0" y="0" flags="0x204"/>
      <component glyphName="iotaadscript.case" x="285" y="0" flags="0x4"/>
    </TTGlyph>
    <TTGlyph name="Omegalenistilde" xMin="-263" yMin="0" xMax="777" yMax="674">
      <component glyphName="Omega" x="0" y="0" flags="0x204"/>
      <component glyphName="lenistilde.case" x="-115" y="0" flags="0x4"/>
    </TTGlyph>
    <TTGlyph name="Omegalenistildeiotasub" xMin="-263" yMin="-224" xMax="777" yMax="674">
      <component glyphName="Omega" x="0" y="0" flags="0x204"/>
      <component glyphName="lenistilde.case" x="-115" y="0" flags="0x4"/>
      <component glyphName="iotaadscript.case" x="285" y="0" flags="0x4"/>
    </TTGlyph>
    <TTGlyph name="Omegawithtonos" xMin="-88" yMin="0" xMax="777" yMax="674">
      <component glyphName="Omega" x="0" y="0" flags="0x204"/>
      <component glyphName="tonos.case" x="-97" y="0" flags="0x4"/>
    </TTGlyph>
    <TTGlyph name="Omicron" xMin="17" yMin="-20" xMax="647" yMax="674">
      <component glyphName="O" x="0" y="0" flags="0x204"/>
    </TTGlyph>
    <TTGlyph name="Omicronacute" xMin="-146" yMin="-20" xMax="647" yMax="674">
      <component glyphName="Omicron" x="0" y="0" flags="0x204"/>
      <component glyphName="grAcute.case" x="-155" y="0" flags="0x4"/>
    </TTGlyph>
    <TTGlyph name="Omicronasper" xMin="-139" yMin="-20" xMax="647" yMax="674">
      <component glyphName="Omicron" x="0" y="0" flags="0x204"/>
      <component glyphName="asper.case" x="-167" y="0" flags="0x4"/>
    </TTGlyph>
    <TTGlyph name="Omicronasperacute" xMin="-305" yMin="-20" xMax="647" yMax="674">
      <component glyphName="asperacute.case" x="-204" y="0" flags="0x4"/>
      <component glyphName="Omicron" x="0" y="0" flags="0x204"/>
    </TTGlyph>
    <TTGlyph name="Omicronaspergrave" xMin="-313" yMin="-20" xMax="647" yMax="674">
      <component glyphName="aspergrave.case" x="-208" y="0" flags="0x4"/>
      <component glyphName="Omicron" x="0" y="0" flags="0x204"/>
    </TTGlyph>
    <TTGlyph name="Omicrongrave" xMin="-153" yMin="-20" xMax="647" yMax="674">
      <component glyphName="Omicron" x="0" y="0" flags="0x204"/>
      <component glyphName="grGrave.case" x="-170" y="0" flags="0x4"/>
    </TTGlyph>
    <TTGlyph name="Omicronlenis" xMin="-132" yMin="-20" xMax="647" yMax="674">
      <component glyphName="Omicron" x="0" y="0" flags="0x204"/>
      <component glyphName="lenis.case" x="-155" y="0" flags="0x4"/>
    </TTGlyph>
    <TTGlyph name="Omicronlenisacute" xMin="-290" yMin="-20" xMax="647" yMax="674">
      <component glyphName="Omicron" x="0" y="0" flags="0x204"/>
      <component glyphName="lenisacute.case" x="-173" y="0" flags="0x4"/>
    </TTGlyph>
    <TTGlyph name="Omicronlenisgrave" xMin="-313" yMin="-20" xMax="647" yMax="674">
      <component glyphName="Omicron" x="0" y="0" flags="0x204"/>
      <component glyphName="lenisgrave.case" x="-180" y="0" flags="0x4"/>
    </TTGlyph>
    <TTGlyph name="Omicronwithtonos" xMin="-146" yMin="-20" xMax="647" yMax="674">
      <component glyphName="Omicron" x="0" y="0" flags="0x204"/>
      <component glyphName="tonos.case" x="-155" y="0" flags="0x4"/>
    </TTGlyph>
    <TTGlyph name="Oslash" xMin="17" yMin="-84" xMax="647" yMax="735">
      <contour>
        <pt x="112" y="-48" on="1"/>
        <pt x="155" y="34" on="1"/>
        <pt x="95" y="74" on="0"/>
        <pt x="17" y="220" on="0"/>
        <pt x="17" y="323" on="1"/>
        <pt x="17" y="402" on="0"/>
        <pt x="65" y="532" on="0"/>
        <pt x="148" y="624" on="0"/>
        <pt x="262" y="674" on="0"/>
        <pt x="328" y="674" on="1"/>
        <pt x="367" y="674" on="0"/>
        <pt x="441" y="656" on="0"/>
        <pt x="474" y="639" on="1"/>
        <pt x="525" y="735" on="1"/>
        <pt x="590" y="696" on="1"/>
        <pt x="537" y="595" on="1"/>
        <pt x="586" y="550" on="0"/>
        <pt x="647" y="411" on="0"/>
        <pt x="647" y="319" on="1"/>
        <pt x="647" y="233" on="0"/>
        <pt x="594" y="105" on="0"/>
        <pt x="507" y="21" on="0"/>
        <pt x="394" y="-20" on="0"/>
        <pt x="335" y="-20" on="1"/>
        <pt x="306" y="-20" on="0"/>
        <pt x="249" y="-10" on="0"/>
        <pt x="222" y="0" on="1"/>
        <pt x="178" y="-84" on="1"/>
      </contour>
      <contour>
        <pt x="148" y="339" on="1"/>
        <pt x="148" y="279" on="0"/>
        <pt x="177" y="170" on="0"/>
        <pt x="206" y="131" on="1"/>
        <pt x="429" y="553" on="1"/>
        <pt x="407" y="573" on="0"/>
        <pt x="350" y="596" on="0"/>
        <pt x="315" y="596" on="1"/>
        <pt x="296" y="596" on="0"/>
        <pt x="252" y="588" on="0"/>
        <pt x="230" y="580" on="1"/>
        <pt x="193" y="551" on="0"/>
        <pt x="148" y="418" on="0"/>
      </contour>
      <contour>
        <pt x="353" y="60" on="1"/>
        <pt x="369" y="60" on="0"/>
        <pt x="403" y="65" on="0"/>
        <pt x="420" y="69" on="1"/>
        <pt x="462" y="99" on="0"/>
        <pt x="514" y="231" on="0"/>
        <pt x="514" y="314" on="1"/>
        <pt x="514" y="360" on="0"/>
        <pt x="497" y="448" on="0"/>
        <pt x="479" y="485" on="1"/>
        <pt x="265" y="81" on="1"/>
        <pt x="284" y="71" on="0"/>
        <pt x="328" y="60" on="0"/>
      </contour>
    </TTGlyph>
    <TTGlyph name="Otilde" xMin="17" yMin="-20" xMax="647" yMax="875">
      <component glyphName="O" x="0" y="0" flags="0x204"/>
      <component glyphName="tildecomb.case" x="332" y="0" flags="0x4"/>
    </TTGlyph>
    <TTGlyph name="P" xMin="28" yMin="0" xMax="589" yMax="662">
      <contour>
        <pt x="28" y="32" on="1"/>
        <pt x="47" y="42" on="0"/>
        <pt x="89" y="60" on="0"/>
        <pt x="111" y="67" on="1"/>
        <pt x="111" y="597" on="1"/>
        <pt x="39" y="604" on="1"/>
        <pt x="40" y="654" on="1"/>
        <pt x="341" y="662" on="1"/>
        <pt x="403" y="662" on="0"/>
        <pt x="496" y="626" on="0"/>
        <pt x="558" y="566" on="0"/>
        <pt x="589" y="490" on="0"/>
        <pt x="589" y="450" on="1"/>
        <pt x="589" y="410" on="0"/>
        <pt x="557" y="334" on="0"/>
        <pt x="497" y="277" on="0"/>
        <pt x="407" y="241" on="0"/>
        <pt x="350" y="241" on="1"/>
        <pt x="233" y="241" on="1"/>
        <pt x="233" y="65" on="1"/>
        <pt x="352" y="49" on="1"/>
        <pt x="351" y="0" on="1"/>
        <pt x="34" y="0" on="1"/>
      </contour>
      <contour>
        <pt x="390" y="594" on="1"/>
        <pt x="233" y="579" on="1"/>
        <pt x="233" y="319" on="1"/>
        <pt x="259" y="315" on="0"/>
        <pt x="311" y="311" on="0"/>
        <pt x="324" y="311" on="1"/>
        <pt x="360" y="311" on="0"/>
        <pt x="412" y="335" on="0"/>
        <pt x="445" y="374" on="0"/>
        <pt x="460" y="426" on="0"/>
        <pt x="460" y="453" on="1"/>
        <pt x="460" y="496" on="0"/>
        <pt x="424" y="576" on="0"/>
      </contour>
    </TTGlyph>
    <TTGlyph name="Phi" xMin="17" yMin="-11" xMax="702" yMax="667">
      <contour>
        <pt x="214" y="21" on="1"/>
        <pt x="230" y="30" on="0"/>
        <pt x="272" y="48" on="0"/>
        <pt x="303" y="59" on="1"/>
        <pt x="303" y="93" on="1"/>
        <pt x="171" y="99" on="0"/>
        <pt x="17" y="221" on="0"/>
        <pt x="17" y="321" on="1"/>
        <pt x="17" y="426" on="0"/>
        <pt x="172" y="558" on="0"/>
        <pt x="303" y="567" on="1"/>
        <pt x="303" y="607" on="1"/>
        <pt x="222" y="618" on="1"/>
        <pt x="223" y="667" on="1"/>
        <pt x="499" y="667" on="1"/>
        <pt x="505" y="635" on="1"/>
        <pt x="489" y="626" on="0"/>
        <pt x="447" y="608" on="0"/>
        <pt x="416" y="597" on="1"/>
        <pt x="416" y="567" on="1"/>
        <pt x="548" y="561" on="0"/>
        <pt x="702" y="440" on="0"/>
        <pt x="702" y="339" on="1"/>
        <pt x="702" y="235" on="0"/>
        <pt x="547" y="102" on="0"/>
        <pt x="416" y="93" on="1"/>
        <pt x="416" y="51" on="1"/>
        <pt x="515" y="38" on="1"/>
        <pt x="514" y="-11" on="1"/>
        <pt x="220" y="-11" on="1"/>
      </contour>
      <contour>
        <pt x="144" y="335" on="1"/>
        <pt x="144" y="260" on="0"/>
        <pt x="228" y="167" on="0"/>
        <pt x="303" y="157" on="1"/>
        <pt x="303" y="506" on="1"/>
        <pt x="272" y="504" on="0"/>
        <pt x="218" y="491" on="0"/>
        <pt x="199" y="481" on="1"/>
        <pt x="173" y="456" on="0"/>
        <pt x="144" y="381" on="0"/>
      </contour>
      <contour>
        <pt x="575" y="326" on="1"/>
        <pt x="575" y="400" on="0"/>
        <pt x="491" y="494" on="0"/>
        <pt x="416" y="504" on="1"/>
        <pt x="416" y="155" on="1"/>
        <pt x="447" y="156" on="0"/>
        <pt x="501" y="170" on="0"/>
        <pt x="520" y="180" on="1"/>
        <pt x="546" y="205" on="0"/>
        <pt x="575" y="280" on="0"/>
      </contour>
    </TTGlyph>
    <TTGlyph name="Pi" xMin="28" yMin="0" xMax="741" yMax="654">
      <contour>
        <pt x="28" y="32" on="1"/>
        <pt x="47" y="42" on="0"/>
        <pt x="91" y="60" on="0"/>
        <pt x="113" y="68" on="1"/>
        <pt x="113" y="595" on="1"/>
        <pt x="36" y="605" on="1"/>
        <pt x="37" y="654" on="1"/>
        <pt x="725" y="654" on="1"/>
        <pt x="731" y="622" on="1"/>
        <pt x="712" y="612" on="0"/>
        <pt x="668" y="594" on="0"/>
        <pt x="646" y="586" on="1"/>
        <pt x="646" y="61" on="1"/>
        <pt x="741" y="49" on="1"/>
        <pt x="740" y="0" on="1"/>
        <pt x="445" y="0" on="1"/>
        <pt x="439" y="32" on="1"/>
        <pt x="458" y="42" on="0"/>
        <pt x="502" y="60" on="0"/>
        <pt x="524" y="68" on="1"/>
        <pt x="524" y="579" on="1"/>
        <pt x="235" y="579" on="1"/>
        <pt x="235" y="61" on="1"/>
        <pt x="330" y="49" on="1"/>
        <pt x="329" y="0" on="1"/>
        <pt x="34" y="0" on="1"/>
      </contour>
    </TTGlyph>
    <TTGlyph name="Psi" xMin="3" yMin="0" xMax="850" yMax="660">
      <contour>
        <pt x="279" y="32" on="1"/>
        <pt x="297" y="42" on="0"/>
        <pt x="337" y="58" on="0"/>
        <pt x="365" y="68" on="1"/>
        <pt x="365" y="208" on="1"/>
        <pt x="264" y="219" on="0"/>
        <pt x="146" y="324" on="0"/>
        <pt x="126" y="420" on="1"/>
        <pt x="94" y="582" on="1"/>
        <pt x="10" y="582" on="1"/>
        <pt x="3" y="620" on="1"/>
        <pt x="28" y="639" on="0"/>
        <pt x="87" y="660" on="0"/>
        <pt x="115" y="660" on="1"/>
        <pt x="157" y="660" on="0"/>
        <pt x="210" y="610" on="0"/>
        <pt x="217" y="561" on="1"/>
        <pt x="236" y="448" on="1"/>
        <pt x="249" y="364" on="0"/>
        <pt x="312" y="284" on="0"/>
        <pt x="365" y="272" on="1"/>
        <pt x="365" y="595" on="1"/>
        <pt x="288" y="605" on="1"/>
        <pt x="289" y="654" on="1"/>
        <pt x="563" y="654" on="1"/>
        <pt x="569" y="622" on="1"/>
        <pt x="544" y="610" on="0"/>
        <pt x="507" y="593" on="0"/>
        <pt x="487" y="586" on="1"/>
        <pt x="487" y="269" on="1"/>
        <pt x="508" y="272" on="0"/>
        <pt x="545" y="283" on="0"/>
        <pt x="562" y="294" on="1"/>
        <pt x="576" y="308" on="0"/>
        <pt x="610" y="398" on="0"/>
        <pt x="619" y="448" on="1"/>
        <pt x="639" y="561" on="1"/>
        <pt x="647" y="609" on="0"/>
        <pt x="698" y="660" on="0"/>
        <pt x="737" y="660" on="1"/>
        <pt x="766" y="660" on="0"/>
        <pt x="825" y="639" on="0"/>
        <pt x="850" y="620" on="1"/>
        <pt x="843" y="582" on="1"/>
        <pt x="759" y="582" on="1"/>
        <pt x="726" y="422" on="1"/>
        <pt x="707" y="326" on="0"/>
        <pt x="587" y="220" on="0"/>
        <pt x="487" y="208" on="1"/>
        <pt x="487" y="61" on="1"/>
        <pt x="582" y="49" on="1"/>
        <pt x="581" y="0" on="1"/>
        <pt x="285" y="0" on="1"/>
      </contour>
    </TTGlyph>
    <TTGlyph name="Q" xMin="17" yMin="-172" xMax="747" yMax="674">
      <contour>
        <pt x="335" y="-20" on="1"/>
        <pt x="275" y="-20" on="0"/>
        <pt x="160" y="23" on="0"/>
        <pt x="71" y="108" on="0"/>
        <pt x="17" y="238" on="0"/>
        <pt x="17" y="323" on="1"/>
        <pt x="17" y="402" on="0"/>
        <pt x="65" y="532" on="0"/>
        <pt x="148" y="624" on="0"/>
        <pt x="262" y="674" on="0"/>
        <pt x="328" y="674" on="1"/>
        <pt x="391" y="674" on="0"/>
        <pt x="507" y="627" on="0"/>
        <pt x="595" y="537" on="0"/>
        <pt x="647" y="404" on="0"/>
        <pt x="647" y="319" on="1"/>
        <pt x="647" y="203" on="0"/>
        <pt x="553" y="51" on="0"/>
        <pt x="482" y="15" on="1"/>
        <pt x="747" y="-56" on="1"/>
        <pt x="694" y="-172" on="1"/>
        <pt x="386" y="-16" on="1"/>
        <pt x="373" y="-18" on="0"/>
        <pt x="348" y="-20" on="0"/>
      </contour>
      <contour>
        <pt x="353" y="60" on="1"/>
        <pt x="369" y="60" on="0"/>
        <pt x="403" y="65" on="0"/>
        <pt x="420" y="69" on="1"/>
        <pt x="462" y="99" on="0"/>
        <pt x="514" y="231" on="0"/>
        <pt x="514" y="314" on="1"/>
        <pt x="514" y="367" on="0"/>
        <pt x="490" y="469" on="0"/>
        <pt x="442" y="548" on="0"/>
        <pt x="366" y="596" on="0"/>
        <pt x="315" y="596" on="1"/>
        <pt x="296" y="596" on="0"/>
        <pt x="252" y="588" on="0"/>
        <pt x="230" y="580" on="1"/>
        <pt x="193" y="551" on="0"/>
        <pt x="148" y="418" on="0"/>
        <pt x="148" y="339" on="1"/>
        <pt x="148" y="284" on="0"/>
        <pt x="172" y="182" on="0"/>
        <pt x="222" y="106" on="0"/>
        <pt x="300" y="60" on="0"/>
      </contour>
    </TTGlyph>
    <TTGlyph name="R" xMin="28" yMin="0" xMax="653" yMax="662">
      <contour>
        <pt x="28" y="32" on="1"/>
        <pt x="47" y="42" on="0"/>
        <pt x="91" y="60" on="0"/>
        <pt x="113" y="68" on="1"/>
        <pt x="113" y="597" on="1"/>
        <pt x="41" y="604" on="1"/>
        <pt x="42" y="654" on="1"/>
        <pt x="341" y="662" on="1"/>
        <pt x="402" y="662" on="0"/>
        <pt x="496" y="629" on="0"/>
        <pt x="559" y="574" on="0"/>
        <pt x="591" y="502" on="0"/>
        <pt x="591" y="464" on="1"/>
        <pt x="591" y="407" on="0"/>
        <pt x="519" y="300" on="0"/>
        <pt x="453" y="275" on="1"/>
        <pt x="587" y="57" on="1"/>
        <pt x="653" y="49" on="1"/>
        <pt x="652" y="0" on="1"/>
        <pt x="476" y="0" on="1"/>
        <pt x="336" y="257" on="1"/>
        <pt x="235" y="256" on="1"/>
        <pt x="235" y="62" on="1"/>
        <pt x="334" y="49" on="1"/>
        <pt x="333" y="0" on="1"/>
        <pt x="34" y="0" on="1"/>
      </contour>
      <contour>
        <pt x="392" y="594" on="1"/>
        <pt x="235" y="579" on="1"/>
        <pt x="235" y="332" on="1"/>
        <pt x="256" y="328" on="0"/>
        <pt x="295" y="324" on="0"/>
        <pt x="311" y="324" on="1"/>
        <pt x="356" y="324" on="0"/>
        <pt x="414" y="349" on="0"/>
        <pt x="448" y="389" on="0"/>
        <pt x="461" y="438" on="0"/>
        <pt x="461" y="463" on="1"/>
        <pt x="461" y="503" on="0"/>
        <pt x="428" y="574" on="0"/>
      </contour>
    </TTGlyph>
    <TTGlyph name="Racute" xMin="28" yMin="0" xMax="653" yMax="886">
      <component glyphName="R" x="0" y="0" flags="0x204"/>
      <component glyphName="acutecomb.case" x="298" y="0" flags="0x4"/>
    </TTGlyph>
    <TTGlyph name="Rcaron" xMin="28" yMin="0" xMax="653" yMax="892">
      <component glyphName="R" x="0" y="0" flags="0x204"/>
      <component glyphName="uni030C.case" x="300" y="35" flags="0x4"/>
    </TTGlyph>
    <TTGlyph name="Rcommaaccent" xMin="28" yMin="-281" xMax="653" yMax="662">
      <component glyphName="R" x="0" y="0" flags="0x204"/>
      <component glyphName="uni0326.case" x="319" y="0" flags="0x4"/>
    </TTGlyph>
    <TTGlyph name="Rho" xMin="28" yMin="0" xMax="589" yMax="662">
      <component glyphName="P" x="0" y="0" flags="0x204"/>
    </TTGlyph>
    <TTGlyph name="Rhoasper" xMin="-148" yMin="0" xMax="589" yMax="662">
      <component glyphName="Rho" x="0" y="0" flags="0x204"/>
      <component glyphName="asper.case" x="-176" y="0" flags="0x4"/>
    </TTGlyph>
    <TTGlyph name="S" xMin="53" yMin="-20" xMax="513" yMax="674">
      <contour>
        <pt x="279" y="-20" on="1"/>
        <pt x="253" y="-20" on="0"/>
        <pt x="191" y="-11" on="0"/>
        <pt x="130" y="5" on="0"/>
        <pt x="74" y="31" on="0"/>
        <pt x="54" y="47" on="1"/>
        <pt x="55" y="50" on="1"/>
        <pt x="54" y="64" on="0"/>
        <pt x="54" y="106" on="0"/>
        <pt x="56" y="153" on="0"/>
        <pt x="63" y="202" on="0"/>
        <pt x="67" y="224" on="1"/>
        <pt x="130" y="224" on="1"/>
        <pt x="162" y="92" on="1"/>
        <pt x="204" y="67" on="0"/>
        <pt x="295" y="53" on="0"/>
        <pt x="334" y="55" on="1"/>
        <pt x="363" y="70" on="0"/>
        <pt x="390" y="122" on="0"/>
        <pt x="390" y="148" on="1"/>
        <pt x="390" y="197" on="0"/>
        <pt x="306" y="253" on="0"/>
        <pt x="241" y="284" on="1"/>
        <pt x="209" y="299" on="0"/>
        <pt x="143" y="335" on="0"/>
        <pt x="90" y="382" on="0"/>
        <pt x="57" y="444" on="0"/>
        <pt x="57" y="485" on="1"/>
        <pt x="57" y="530" on="0"/>
        <pt x="97" y="600" on="0"/>
        <pt x="163" y="649" on="0"/>
        <pt x="253" y="674" on="0"/>
        <pt x="302" y="674" on="1"/>
        <pt x="352" y="674" on="0"/>
        <pt x="449" y="652" on="0"/>
        <pt x="483" y="641" on="1"/>
        <pt x="484" y="610" on="0"/>
        <pt x="479" y="510" on="0"/>
        <pt x="470" y="464" on="1"/>
        <pt x="403" y="464" on="1"/>
        <pt x="384" y="568" on="1"/>
        <pt x="347" y="590" on="0"/>
        <pt x="262" y="604" on="0"/>
        <pt x="222" y="600" on="1"/>
        <pt x="198" y="586" on="0"/>
        <pt x="175" y="537" on="0"/>
        <pt x="175" y="514" on="1"/>
        <pt x="175" y="468" on="0"/>
        <pt x="264" y="414" on="0"/>
        <pt x="327" y="384" on="1"/>
        <pt x="362" y="368" on="0"/>
        <pt x="429" y="332" on="0"/>
        <pt x="481" y="284" on="0"/>
        <pt x="513" y="220" on="0"/>
        <pt x="513" y="177" on="1"/>
        <pt x="513" y="130" on="0"/>
        <pt x="474" y="56" on="0"/>
        <pt x="410" y="6" on="0"/>
        <pt x="325" y="-20" on="0"/>
      </contour>
    </TTGlyph>
    <TTGlyph name="Sacute" xMin="53" yMin="-20" xMax="513" yMax="886">
      <component glyphName="S" x="0" y="0" flags="0x204"/>
      <component glyphName="acutecomb.case" x="282" y="0" flags="0x4"/>
    </TTGlyph>
    <TTGlyph name="Scaron" xMin="53" yMin="-20" xMax="513" yMax="892">
      <component glyphName="S" x="0" y="0" flags="0x204"/>
      <component glyphName="uni030C.case" x="284" y="35" flags="0x4"/>
    </TTGlyph>
    <TTGlyph name="Scedilla" xMin="53" yMin="-267" xMax="513" yMax="674">
      <component glyphName="S" x="0" y="0" flags="0x204"/>
      <component glyphName="uni0327.case" x="271" y="0" flags="0x4"/>
    </TTGlyph>
    <TTGlyph name="Scommaaccent" xMin="53" yMin="-281" xMax="513" yMax="674">
      <component glyphName="S" x="0" y="0" flags="0x204"/>
      <component glyphName="uni0326.case" x="271" y="0" flags="0x4"/>
    </TTGlyph>
    <TTGlyph name="Sigma" xMin="34" yMin="0" xMax="553" yMax="654">
      <contour>
        <pt x="34" y="53" on="1"/>
        <pt x="244" y="323" on="1"/>
        <pt x="41" y="599" on="1"/>
        <pt x="69" y="654" on="1"/>
        <pt x="539" y="654" on="1"/>
        <pt x="540" y="627" on="0"/>
        <pt x="535" y="524" on="0"/>
        <pt x="526" y="477" on="1"/>
        <pt x="457" y="477" on="1"/>
        <pt x="442" y="572" on="1"/>
        <pt x="195" y="584" on="1"/>
        <pt x="368" y="347" on="1"/>
        <pt x="168" y="89" on="1"/>
        <pt x="451" y="92" on="1"/>
        <pt x="484" y="210" on="1"/>
        <pt x="553" y="205" on="1"/>
        <pt x="554" y="184" on="0"/>
        <pt x="551" y="128" on="0"/>
        <pt x="546" y="71" on="0"/>
        <pt x="539" y="18" on="0"/>
        <pt x="536" y="0" on="1"/>
        <pt x="55" y="0" on="1"/>
      </contour>
    </TTGlyph>
    <TTGlyph name="T" xMin="8" yMin="0" xMax="611" yMax="660">
      <contour>
        <pt x="144" y="32" on="1"/>
        <pt x="165" y="43" on="0"/>
        <pt x="224" y="62" on="0"/>
        <pt x="249" y="71" on="1"/>
        <pt x="249" y="591" on="1"/>
        <pt x="103" y="583" on="1"/>
        <pt x="90" y="470" on="1"/>
        <pt x="23" y="470" on="1"/>
        <pt x="19" y="494" on="0"/>
        <pt x="12" y="549" on="0"/>
        <pt x="9" y="601" on="0"/>
        <pt x="9" y="647" on="0"/>
        <pt x="10" y="660" on="1"/>
        <pt x="169" y="656" on="0"/>
        <pt x="454" y="656" on="0"/>
        <pt x="611" y="660" on="1"/>
        <pt x="612" y="647" on="0"/>
        <pt x="611" y="601" on="0"/>
        <pt x="608" y="549" on="0"/>
        <pt x="602" y="494" on="0"/>
        <pt x="598" y="470" on="1"/>
        <pt x="530" y="470" on="1"/>
        <pt x="517" y="583" on="1"/>
        <pt x="371" y="591" on="1"/>
        <pt x="371" y="63" on="1"/>
        <pt x="480" y="49" on="1"/>
        <pt x="479" y="0" on="1"/>
        <pt x="150" y="0" on="1"/>
      </contour>
    </TTGlyph>
    <TTGlyph name="Tau" xMin="8" yMin="0" xMax="611" yMax="660">
      <component glyphName="T" x="0" y="0" flags="0x204"/>
    </TTGlyph>
    <TTGlyph name="Tcaron" xMin="8" yMin="0" xMax="611" yMax="892">
      <component glyphName="T" x="0" y="0" flags="0x204"/>
      <component glyphName="uni030C.case" x="312" y="35" flags="0x4"/>
    </TTGlyph>
    <TTGlyph name="Theta" xMin="17" yMin="-20" xMax="647" yMax="674">
      <contour>
        <pt x="335" y="-20" on="1"/>
        <pt x="275" y="-20" on="0"/>
        <pt x="160" y="23" on="0"/>
        <pt x="71" y="108" on="0"/>
        <pt x="17" y="238" on="0"/>
        <pt x="17" y="323" on="1"/>
        <pt x="17" y="402" on="0"/>
        <pt x="65" y="532" on="0"/>
        <pt x="148" y="624" on="0"/>
        <pt x="262" y="674" on="0"/>
        <pt x="328" y="674" on="1"/>
        <pt x="391" y="674" on="0"/>
        <pt x="507" y="627" on="0"/>
        <pt x="595" y="537" on="0"/>
        <pt x="647" y="404" on="0"/>
        <pt x="647" y="319" on="1"/>
        <pt x="647" y="233" on="0"/>
        <pt x="594" y="105" on="0"/>
        <pt x="507" y="21" on="0"/>
        <pt x="394" y="-20" on="0"/>
      </contour>
      <contour>
        <pt x="353" y="60" on="1"/>
        <pt x="369" y="60" on="0"/>
        <pt x="403" y="65" on="0"/>
        <pt x="420" y="69" on="1"/>
        <pt x="462" y="99" on="0"/>
        <pt x="514" y="231" on="0"/>
        <pt x="514" y="314" on="1"/>
        <pt x="514" y="367" on="0"/>
        <pt x="490" y="469" on="0"/>
        <pt x="442" y="548" on="0"/>
        <pt x="366" y="596" on="0"/>
        <pt x="315" y="596" on="1"/>
        <pt x="296" y="596" on="0"/>
        <pt x="252" y="588" on="0"/>
        <pt x="230" y="580" on="1"/>
        <pt x="193" y="551" on="0"/>
        <pt x="148" y="418" on="0"/>
        <pt x="148" y="339" on="1"/>
        <pt x="148" y="284" on="0"/>
        <pt x="172" y="182" on="0"/>
        <pt x="222" y="106" on="0"/>
        <pt x="300" y="60" on="0"/>
      </contour>
      <contour>
        <pt x="202" y="284" on="1"/>
        <pt x="202" y="363" on="1"/>
        <pt x="452" y="384" on="1"/>
        <pt x="452" y="275" on="1"/>
      </contour>
    </TTGlyph>
    <TTGlyph name="Thorn" xMin="28" yMin="0" xMax="573" yMax="650">
      <contour>
        <pt x="28" y="35" on="1"/>
        <pt x="44" y="45" on="0"/>
        <pt x="101" y="66" on="0"/>
        <pt x="117" y="72" on="1"/>
        <pt x="117" y="590" on="1"/>
        <pt x="36" y="601" on="1"/>
        <pt x="37" y="650" on="1"/>
        <pt x="322" y="650" on="1"/>
        <pt x="328" y="616" on="1"/>
        <pt x="312" y="606" on="0"/>
        <pt x="255" y="585" on="0"/>
        <pt x="239" y="579" on="1"/>
        <pt x="239" y="519" on="1"/>
        <pt x="338" y="519" on="1"/>
        <pt x="398" y="519" on="0"/>
        <pt x="487" y="486" on="0"/>
        <pt x="545" y="434" on="0"/>
        <pt x="573" y="367" on="0"/>
        <pt x="573" y="334" on="1"/>
        <pt x="573" y="299" on="0"/>
        <pt x="542" y="232" on="0"/>
        <pt x="480" y="182" on="0"/>
        <pt x="387" y="151" on="0"/>
        <pt x="326" y="151" on="1"/>
        <pt x="239" y="151" on="1"/>
        <pt x="239" y="61" on="1"/>
        <pt x="334" y="49" on="1"/>
        <pt x="333" y="0" on="1"/>
        <pt x="34" y="0" on="1"/>
      </contour>
      <contour>
        <pt x="374" y="453" on="1"/>
        <pt x="239" y="431" on="1"/>
        <pt x="239" y="226" on="1"/>
        <pt x="251" y="225" on="0"/>
        <pt x="277" y="222" on="0"/>
        <pt x="293" y="222" on="1"/>
        <pt x="378" y="222" on="0"/>
        <pt x="446" y="290" on="0"/>
        <pt x="446" y="335" on="1"/>
        <pt x="446" y="370" on="0"/>
        <pt x="411" y="433" on="0"/>
      </contour>
    </TTGlyph>
    <TTGlyph name="U" xMin="9" yMin="-19" xMax="709" yMax="654">
      <contour>
        <pt x="374" y="-19" on="1"/>
        <pt x="311" y="-19" on="0"/>
        <pt x="205" y="20" on="0"/>
        <pt x="129" y="97" on="0"/>
        <pt x="86" y="213" on="0"/>
        <pt x="86" y="289" on="1"/>
        <pt x="86" y="595" on="1"/>
        <pt x="9" y="605" on="1"/>
        <pt x="10" y="654" on="1"/>
        <pt x="287" y="654" on="1"/>
        <pt x="293" y="622" on="1"/>
        <pt x="274" y="612" on="0"/>
        <pt x="230" y="594" on="0"/>
        <pt x="208" y="586" on="1"/>
        <pt x="208" y="269" on="1"/>
        <pt x="208" y="169" on="0"/>
        <pt x="302" y="65" on="0"/>
        <pt x="383" y="65" on="1"/>
        <pt x="411" y="65" on="0"/>
        <pt x="455" y="76" on="0"/>
        <pt x="474" y="86" on="1"/>
        <pt x="503" y="110" on="0"/>
        <pt x="533" y="207" on="0"/>
        <pt x="533" y="279" on="1"/>
        <pt x="533" y="594" on="1"/>
        <pt x="446" y="605" on="1"/>
        <pt x="447" y="654" on="1"/>
        <pt x="703" y="654" on="1"/>
        <pt x="709" y="622" on="1"/>
        <pt x="690" y="612" on="0"/>
        <pt x="646" y="594" on="0"/>
        <pt x="624" y="586" on="1"/>
        <pt x="624" y="292" on="1"/>
        <pt x="624" y="125" on="0"/>
        <pt x="487" y="-19" on="0"/>
      </contour>
    </TTGlyph>
    <TTGlyph name="Uacute" xMin="9" yMin="-19" xMax="709" yMax="886">
      <component glyphName="U" x="0" y="0" flags="0x204"/>
      <component glyphName="acutecomb.case" x="362" y="0" flags="0x4"/>
    </TTGlyph>
    <TTGlyph name="Ucircumflex" xMin="9" yMin="-19" xMax="709" yMax="891">
      <component glyphName="U" x="0" y="0" flags="0x204"/>
      <component glyphName="uni0302.case" x="364" y="35" flags="0x4"/>
    </TTGlyph>
    <TTGlyph name="Udieresis" xMin="9" yMin="-19" xMax="709" yMax="878">
      <component glyphName="U" x="0" y="0" flags="0x204"/>
      <component glyphName="uni0308.case" x="363" y="180" flags="0x4"/>
    </TTGlyph>
    <TTGlyph name="Ugrave" xMin="9" yMin="-19" xMax="709" yMax="886">
      <component glyphName="U" x="0" y="0" flags="0x204"/>
      <component glyphName="gravecomb.case" x="365" y="0" flags="0x4"/>
    </TTGlyph>
    <TTGlyph name="Uhungarumlaut" xMin="9" yMin="-19" xMax="709" yMax="921">
      <component glyphName="U" x="0" y="0" flags="0x204"/>
      <component glyphName="uni030B.case" x="363" y="180" flags="0x4"/>
    </TTGlyph>
    <TTGlyph name="Umacron" xMin="9" yMin="-19" xMax="709" yMax="821">
      <component glyphName="U" x="0" y="0" flags="0x204"/>
      <component glyphName="uni0304.case" x="362" y="0" flags="0x4"/>
    </TTGlyph>
    <TTGlyph name="Uogonek" xMin="9" yMin="-264" xMax="709" yMax="654">
      <component glyphName="U" x="0" y="0" flags="0x204"/>
      <component glyphName="uni0328.case" x="482" y="-9" flags="0x4"/>
    </TTGlyph>
    <TTGlyph name="Upsilon" xMin="-1" yMin="0" xMax="643" yMax="660">
      <contour>
        <pt x="168" y="32" on="1"/>
        <pt x="187" y="42" on="0"/>
        <pt x="231" y="61" on="0"/>
        <pt x="254" y="68" on="1"/>
        <pt x="254" y="161" on="1"/>
        <pt x="254" y="223" on="0"/>
        <pt x="226" y="359" on="0"/>
        <pt x="181" y="476" on="0"/>
        <pt x="122" y="566" on="0"/>
        <pt x="92" y="582" on="1"/>
        <pt x="10" y="577" on="1"/>
        <pt x="-1" y="616" on="1"/>
        <pt x="27" y="635" on="0"/>
        <pt x="92" y="660" on="0"/>
        <pt x="123" y="660" on="1"/>
        <pt x="185" y="660" on="0"/>
        <pt x="280" y="552" on="0"/>
        <pt x="317" y="439" on="1"/>
        <pt x="327" y="334" on="1"/>
        <pt x="328" y="334" on="1"/>
        <pt x="357" y="489" on="0"/>
        <pt x="472" y="660" on="0"/>
        <pt x="539" y="660" on="1"/>
        <pt x="567" y="660" on="0"/>
        <pt x="624" y="638" on="0"/>
        <pt x="643" y="623" on="1"/>
        <pt x="632" y="585" on="1"/>
        <pt x="544" y="585" on="1"/>
        <pt x="514" y="574" on="0"/>
        <pt x="453" y="492" on="0"/>
        <pt x="406" y="378" on="0"/>
        <pt x="376" y="241" on="0"/>
        <pt x="376" y="175" on="1"/>
        <pt x="376" y="61" on="1"/>
        <pt x="469" y="49" on="1"/>
        <pt x="468" y="0" on="1"/>
        <pt x="174" y="0" on="1"/>
      </contour>
    </TTGlyph>
    <TTGlyph name="Upsilonacute" xMin="-199" yMin="0" xMax="643" yMax="660">
      <component glyphName="Upsilon" x="0" y="0" flags="0x204"/>
      <component glyphName="grAcute.case" x="-208" y="0" flags="0x4"/>
    </TTGlyph>
    <TTGlyph name="Upsilonasper" xMin="-192" yMin="0" xMax="643" yMax="660">
      <component glyphName="Upsilon" x="0" y="0" flags="0x204"/>
      <component glyphName="asper.case" x="-220" y="0" flags="0x4"/>
    </TTGlyph>
    <TTGlyph name="Upsilonasperacute" xMin="-358" yMin="0" xMax="643" yMax="660">
      <component glyphName="asperacute.case" x="-257" y="0" flags="0x4"/>
      <component glyphName="Upsilon" x="0" y="0" flags="0x204"/>
    </TTGlyph>
    <TTGlyph name="Upsilonaspergrave" xMin="-343" yMin="0" xMax="643" yMax="660">
      <component glyphName="Upsilon" x="0" y="0" flags="0x204"/>
      <component glyphName="aspergrave.case" x="-238" y="0" flags="0x4"/>
    </TTGlyph>
    <TTGlyph name="Upsilonaspertilde" xMin="-389" yMin="0" xMax="643" yMax="673">
      <component glyphName="Upsilon" x="0" y="0" flags="0x204"/>
      <component glyphName="aspertilde.case" x="-241" y="0" flags="0x4"/>
    </TTGlyph>
    <TTGlyph name="Upsilonbreve" xMin="-1" yMin="0" xMax="643" yMax="864">
      <component glyphName="Upsilon" x="0" y="0" flags="0x204"/>
      <component glyphName="uni0306.case" x="328" y="0" flags="0x4"/>
    </TTGlyph>
    <TTGlyph name="Upsilondieresis" xMin="-1" yMin="0" xMax="643" yMax="879">
      <component glyphName="Upsilon" x="0" y="0" flags="0x204"/>
      <component glyphName="uni0308" x="327" y="181" flags="0x4"/>
    </TTGlyph>
    <TTGlyph name="Upsilongrave" xMin="-206" yMin="0" xMax="643" yMax="660">
      <component glyphName="Upsilon" x="0" y="0" flags="0x204"/>
      <component glyphName="grGrave.case" x="-223" y="0" flags="0x4"/>
    </TTGlyph>
    <TTGlyph name="Upsilonwithmacron" xMin="-1" yMin="0" xMax="643" yMax="821">
      <component glyphName="Upsilon" x="0" y="0" flags="0x204"/>
      <component glyphName="uni0304.case" x="326" y="0" flags="0x4"/>
    </TTGlyph>
    <TTGlyph name="Upsilonwithtonos" xMin="-199" yMin="0" xMax="643" yMax="660">
      <component glyphName="Upsilon" x="0" y="0" flags="0x204"/>
      <component glyphName="tonos.case" x="-208" y="0" flags="0x4"/>
    </TTGlyph>
    <TTGlyph name="Uring" xMin="9" yMin="-19" xMax="709" yMax="937">
      <component glyphName="U" x="0" y="0" flags="0x204"/>
      <component glyphName="uni030A.case" x="363" y="0" flags="0x4"/>
    </TTGlyph>
    <TTGlyph name="V" xMin="-1" yMin="-12" xMax="695" yMax="654">
      <contour>
        <pt x="-1" y="605" on="1"/>
        <pt x="0" y="654" on="1"/>
        <pt x="288" y="654" on="1"/>
        <pt x="294" y="622" on="1"/>
        <pt x="275" y="612" on="0"/>
        <pt x="229" y="593" on="0"/>
        <pt x="207" y="585" on="1"/>
        <pt x="334" y="205" on="1"/>
        <pt x="347" y="80" on="1"/>
        <pt x="353" y="80" on="1"/>
        <pt x="528" y="593" on="1"/>
        <pt x="438" y="605" on="1"/>
        <pt x="439" y="654" on="1"/>
        <pt x="689" y="654" on="1"/>
        <pt x="695" y="622" on="1"/>
        <pt x="678" y="612" on="0"/>
        <pt x="638" y="596" on="0"/>
        <pt x="618" y="589" on="1"/>
        <pt x="407" y="0" on="1"/>
        <pt x="408" y="-1" on="1"/>
        <pt x="381" y="-6" on="0"/>
        <pt x="317" y="-12" on="0"/>
        <pt x="286" y="-12" on="1"/>
        <pt x="75" y="595" on="1"/>
      </contour>
    </TTGlyph>
    <TTGlyph name="W" xMin="-1" yMin="-12" xMax="950" yMax="654">
      <contour>
        <pt x="-1" y="605" on="1"/>
        <pt x="0" y="654" on="1"/>
        <pt x="280" y="654" on="1"/>
        <pt x="286" y="622" on="1"/>
        <pt x="267" y="612" on="0"/>
        <pt x="223" y="594" on="0"/>
        <pt x="201" y="586" on="1"/>
        <pt x="305" y="205" on="1"/>
        <pt x="315" y="80" on="1"/>
        <pt x="319" y="80" on="1"/>
        <pt x="436" y="479" on="1"/>
        <pt x="396" y="616" on="1"/>
        <pt x="516" y="645" on="1"/>
        <pt x="630" y="209" on="1"/>
        <pt x="642" y="80" on="1"/>
        <pt x="645" y="80" on="1"/>
        <pt x="784" y="592" on="1"/>
        <pt x="685" y="605" on="1"/>
        <pt x="686" y="654" on="1"/>
        <pt x="944" y="654" on="1"/>
        <pt x="950" y="622" on="1"/>
        <pt x="933" y="613" on="0"/>
        <pt x="893" y="596" on="0"/>
        <pt x="874" y="589" on="1"/>
        <pt x="706" y="-2" on="1"/>
        <pt x="677" y="-7" on="0"/>
        <pt x="614" y="-13" on="0"/>
        <pt x="580" y="-12" on="1"/>
        <pt x="472" y="357" on="1"/>
        <pt x="451" y="241" on="1"/>
        <pt x="376" y="-2" on="1"/>
        <pt x="375" y="-1" on="1"/>
        <pt x="375" y="-2" on="1"/>
        <pt x="346" y="-7" on="0"/>
        <pt x="285" y="-13" on="0"/>
        <pt x="251" y="-12" on="1"/>
        <pt x="71" y="596" on="1"/>
      </contour>
    </TTGlyph>
    <TTGlyph name="X" xMin="6" yMin="0" xMax="682" yMax="654">
      <contour>
        <pt x="6" y="32" on="1"/>
        <pt x="25" y="42" on="0"/>
        <pt x="67" y="60" on="0"/>
        <pt x="88" y="67" on="1"/>
        <pt x="278" y="341" on="1"/>
        <pt x="108" y="596" on="1"/>
        <pt x="40" y="605" on="1"/>
        <pt x="41" y="654" on="1"/>
        <pt x="295" y="654" on="1"/>
        <pt x="301" y="622" on="1"/>
        <pt x="288" y="615" on="0"/>
        <pt x="260" y="603" on="0"/>
        <pt x="246" y="597" on="1"/>
        <pt x="370" y="413" on="1"/>
        <pt x="480" y="595" on="1"/>
        <pt x="406" y="605" on="1"/>
        <pt x="407" y="654" on="1"/>
        <pt x="642" y="654" on="1"/>
        <pt x="648" y="622" on="1"/>
        <pt x="631" y="612" on="0"/>
        <pt x="591" y="596" on="0"/>
        <pt x="570" y="589" on="1"/>
        <pt x="414" y="349" on="1"/>
        <pt x="611" y="57" on="1"/>
        <pt x="682" y="49" on="1"/>
        <pt x="681" y="0" on="1"/>
        <pt x="405" y="0" on="1"/>
        <pt x="399" y="32" on="1"/>
        <pt x="414" y="40" on="0"/>
        <pt x="448" y="54" on="0"/>
        <pt x="465" y="61" on="1"/>
        <pt x="325" y="271" on="1"/>
        <pt x="187" y="60" on="1"/>
        <pt x="272" y="49" on="1"/>
        <pt x="271" y="0" on="1"/>
        <pt x="12" y="0" on="1"/>
      </contour>
    </TTGlyph>
    <TTGlyph name="Xi" xMin="42" yMin="0" xMax="600" yMax="660">
      <contour>
        <pt x="72" y="461" on="1"/>
        <pt x="67" y="485" on="0"/>
        <pt x="61" y="543" on="0"/>
        <pt x="58" y="598" on="0"/>
        <pt x="58" y="646" on="0"/>
        <pt x="59" y="660" on="1"/>
        <pt x="199" y="656" on="0"/>
        <pt x="449" y="656" on="0"/>
        <pt x="585" y="660" on="1"/>
        <pt x="586" y="646" on="0"/>
        <pt x="586" y="598" on="0"/>
        <pt x="583" y="543" on="0"/>
        <pt x="576" y="485" on="0"/>
        <pt x="572" y="461" on="1"/>
        <pt x="504" y="461" on="1"/>
        <pt x="493" y="564" on="1"/>
        <pt x="321" y="572" on="1"/>
        <pt x="150" y="564" on="1"/>
        <pt x="139" y="461" on="1"/>
      </contour>
      <contour>
        <pt x="154" y="286" on="1"/>
        <pt x="154" y="359" on="1"/>
        <pt x="492" y="380" on="1"/>
        <pt x="492" y="277" on="1"/>
      </contour>
      <contour>
        <pt x="55" y="0" on="1"/>
        <pt x="52" y="19" on="0"/>
        <pt x="46" y="70" on="0"/>
        <pt x="43" y="124" on="0"/>
        <pt x="42" y="177" on="0"/>
        <pt x="43" y="198" on="1"/>
        <pt x="111" y="203" on="1"/>
        <pt x="140" y="94" on="1"/>
        <pt x="322" y="86" on="1"/>
        <pt x="503" y="94" on="1"/>
        <pt x="532" y="203" on="1"/>
        <pt x="600" y="198" on="1"/>
        <pt x="601" y="177" on="0"/>
        <pt x="600" y="124" on="0"/>
        <pt x="597" y="70" on="0"/>
        <pt x="591" y="19" on="0"/>
        <pt x="588" y="0" on="1"/>
      </contour>
    </TTGlyph>
    <TTGlyph name="Y" xMin="-1" yMin="0" xMax="624" yMax="654">
      <contour>
        <pt x="169" y="32" on="1"/>
        <pt x="187" y="42" on="0"/>
        <pt x="228" y="59" on="0"/>
        <pt x="248" y="66" on="1"/>
        <pt x="248" y="250" on="1"/>
        <pt x="62" y="597" on="1"/>
        <pt x="-1" y="605" on="1"/>
        <pt x="0" y="654" on="1"/>
        <pt x="247" y="654" on="1"/>
        <pt x="253" y="622" on="1"/>
        <pt x="240" y="615" on="0"/>
        <pt x="208" y="601" on="0"/>
        <pt x="192" y="595" on="1"/>
        <pt x="293" y="404" on="1"/>
        <pt x="320" y="321" on="1"/>
        <pt x="325" y="321" on="1"/>
        <pt x="462" y="595" on="1"/>
        <pt x="385" y="605" on="1"/>
        <pt x="386" y="654" on="1"/>
        <pt x="618" y="654" on="1"/>
        <pt x="624" y="622" on="1"/>
        <pt x="608" y="613" on="0"/>
        <pt x="569" y="597" on="0"/>
        <pt x="549" y="590" on="1"/>
        <pt x="368" y="255" on="1"/>
        <pt x="368" y="60" on="1"/>
        <pt x="451" y="49" on="1"/>
        <pt x="450" y="0" on="1"/>
        <pt x="175" y="0" on="1"/>
      </contour>
    </TTGlyph>
    <TTGlyph name="Yacute" xMin="-1" yMin="0" xMax="624" yMax="886">
      <component glyphName="Y" x="0" y="0" flags="0x204"/>
      <component glyphName="acutecomb.case" x="320" y="0" flags="0x4"/>
    </TTGlyph>
    <TTGlyph name="Ydieresis" xMin="-1" yMin="0" xMax="624" yMax="878">
      <component glyphName="Y" x="0" y="0" flags="0x204"/>
      <component glyphName="uni0308.case" x="321" y="180" flags="0x4"/>
    </TTGlyph>
    <TTGlyph name="Z" xMin="34" yMin="0" xMax="567" yMax="654">
      <contour>
        <pt x="34" y="56" on="1"/>
        <pt x="413" y="586" on="1"/>
        <pt x="163" y="573" on="1"/>
        <pt x="141" y="455" on="1"/>
        <pt x="72" y="455" on="1"/>
        <pt x="68" y="479" on="0"/>
        <pt x="63" y="535" on="0"/>
        <pt x="61" y="589" on="0"/>
        <pt x="62" y="638" on="0"/>
        <pt x="63" y="654" on="1"/>
        <pt x="532" y="654" on="1"/>
        <pt x="531" y="652" on="1"/>
        <pt x="533" y="654" on="1"/>
        <pt x="560" y="598" on="1"/>
        <pt x="189" y="81" on="1"/>
        <pt x="454" y="86" on="1"/>
        <pt x="493" y="208" on="1"/>
        <pt x="567" y="198" on="1"/>
        <pt x="564" y="148" on="0"/>
        <pt x="551" y="52" on="0"/>
        <pt x="541" y="0" on="1"/>
        <pt x="64" y="0" on="1"/>
      </contour>
    </TTGlyph>
    <TTGlyph name="Zacute" xMin="34" yMin="0" xMax="567" yMax="886">
      <component glyphName="Z" x="0" y="0" flags="0x204"/>
      <component glyphName="acutecomb.case" x="304" y="0" flags="0x4"/>
    </TTGlyph>
    <TTGlyph name="Zcaron" xMin="34" yMin="0" xMax="567" yMax="892">
      <component glyphName="Z" x="0" y="0" flags="0x204"/>
      <component glyphName="uni030C.case" x="306" y="35" flags="0x4"/>
    </TTGlyph>
    <TTGlyph name="Zdotaccent" xMin="34" yMin="0" xMax="567" yMax="879">
      <component glyphName="Z" x="0" y="0" flags="0x204"/>
      <component glyphName="uni0307.case" x="305" y="181" flags="0x4"/>
    </TTGlyph>
    <TTGlyph name="Zeta" xMin="34" yMin="0" xMax="567" yMax="654">
      <component glyphName="Z" x="0" y="0" flags="0x204"/>
    </TTGlyph>
    <TTGlyph name="a" xMin="43" yMin="-16" xMax="513" yMax="496">
      <contour>
        <pt x="210" y="-14" on="1"/>
        <pt x="167" y="-19" on="0"/>
        <pt x="104" y="0" on="0"/>
        <pt x="63" y="37" on="0"/>
        <pt x="43" y="84" on="0"/>
        <pt x="43" y="107" on="1"/>
        <pt x="43" y="136" on="0"/>
        <pt x="77" y="197" on="0"/>
        <pt x="117" y="218" on="1"/>
        <pt x="310" y="223" on="1"/>
        <pt x="310" y="319" on="1"/>
        <pt x="310" y="365" on="0"/>
        <pt x="286" y="411" on="0"/>
        <pt x="262" y="424" on="1"/>
        <pt x="238" y="423" on="0"/>
        <pt x="185" y="414" on="0"/>
        <pt x="168" y="408" on="1"/>
        <pt x="155" y="302" on="1"/>
        <pt x="87" y="299" on="1"/>
        <pt x="74" y="327" on="0"/>
        <pt x="61" y="396" on="0"/>
        <pt x="62" y="429" on="1"/>
        <pt x="87" y="442" on="0"/>
        <pt x="154" y="466" on="0"/>
        <pt x="221" y="485" on="0"/>
        <pt x="280" y="496" on="0"/>
        <pt x="297" y="496" on="1"/>
        <pt x="332" y="496" on="0"/>
        <pt x="400" y="451" on="0"/>
        <pt x="416" y="425" on="1"/>
        <pt x="423" y="412" on="0"/>
        <pt x="428" y="371" on="0"/>
        <pt x="428" y="322" on="1"/>
        <pt x="428" y="98" on="1"/>
        <pt x="428" y="87" on="0"/>
        <pt x="442" y="77" on="0"/>
        <pt x="453" y="77" on="1"/>
        <pt x="464" y="77" on="0"/>
        <pt x="489" y="82" on="0"/>
        <pt x="501" y="84" on="1"/>
        <pt x="513" y="40" on="1"/>
        <pt x="402" y="-16" on="1"/>
        <pt x="383" y="-15" on="0"/>
        <pt x="333" y="27" on="0"/>
        <pt x="320" y="55" on="1"/>
      </contour>
      <contour>
        <pt x="163" y="111" on="1"/>
        <pt x="163" y="98" on="0"/>
        <pt x="174" y="74" on="0"/>
        <pt x="186" y="66" on="1"/>
        <pt x="217" y="66" on="0"/>
        <pt x="285" y="86" on="0"/>
        <pt x="310" y="96" on="1"/>
        <pt x="310" y="168" on="1"/>
        <pt x="286" y="170" on="0"/>
        <pt x="234" y="168" on="0"/>
        <pt x="191" y="156" on="0"/>
        <pt x="163" y="132" on="0"/>
      </contour>
    </TTGlyph>
    <TTGlyph name="aacute" xMin="43" yMin="-16" xMax="513" yMax="751">
      <component glyphName="a" x="0" y="0" flags="0x204"/>
      <component glyphName="acutecomb" x="252" y="-2" flags="0x4"/>
    </TTGlyph>
    <TTGlyph name="abreve" xMin="43" yMin="-16" xMax="513" yMax="715">
      <component glyphName="a" x="0" y="0" flags="0x204"/>
      <component glyphName="uni0306" x="253" y="-2" flags="0x4"/>
    </TTGlyph>
    <TTGlyph name="acircumflex" xMin="43" yMin="-16" xMax="513" yMax="724">
      <component glyphName="a" x="0" y="0" flags="0x204"/>
      <component glyphName="uni0302" x="252" y="-2" flags="0x4"/>
    </TTGlyph>
    <TTGlyph name="acute" xMin="25" yMin="532" xMax="256" yMax="753">
      <component glyphName="acutecomb" x="114" y="0" flags="0x4"/>
    </TTGlyph>
    <TTGlyph name="acutecomb" xMin="-89" yMin="532" xMax="142" yMax="753">
      <contour>
        <pt x="-89" y="583" on="1"/>
        <pt x="57" y="753" on="1"/>
        <pt x="142" y="681" on="1"/>
        <pt x="97" y="644" on="0"/>
        <pt x="17" y="572" on="0"/>
        <pt x="-25" y="532" on="1"/>
      </contour>
    </TTGlyph>
    <TTGlyph name="acutecomb.case" xMin="-120" yMin="690" xMax="166" yMax="886">
      <contour>
        <pt x="-120" y="755" on="1"/>
        <pt x="112" y="886" on="1"/>
        <pt x="166" y="789" on="1"/>
        <pt x="103" y="765" on="0"/>
        <pt x="-18" y="716" on="0"/>
        <pt x="-81" y="690" on="1"/>
      </contour>
    </TTGlyph>
    <TTGlyph name="adieresis" xMin="43" yMin="-16" xMax="513" yMax="696">
      <component glyphName="a" x="0" y="0" flags="0x204"/>
      <component glyphName="uni0308" x="252" y="-2" flags="0x4"/>
    </TTGlyph>
    <TTGlyph name="ae" xMin="43" yMin="-15" xMax="741" yMax="495">
      <contour>
        <pt x="210" y="-14" on="1"/>
        <pt x="167" y="-19" on="0"/>
        <pt x="104" y="0" on="0"/>
        <pt x="63" y="37" on="0"/>
        <pt x="43" y="84" on="0"/>
        <pt x="43" y="107" on="1"/>
        <pt x="43" y="136" on="0"/>
        <pt x="77" y="197" on="0"/>
        <pt x="117" y="218" on="1"/>
        <pt x="311" y="223" on="1"/>
        <pt x="311" y="317" on="1"/>
        <pt x="311" y="364" on="0"/>
        <pt x="287" y="410" on="0"/>
        <pt x="263" y="422" on="1"/>
        <pt x="239" y="421" on="0"/>
        <pt x="186" y="412" on="0"/>
        <pt x="169" y="407" on="1"/>
        <pt x="156" y="301" on="1"/>
        <pt x="86" y="299" on="1"/>
        <pt x="73" y="327" on="0"/>
        <pt x="62" y="394" on="0"/>
        <pt x="63" y="428" on="1"/>
        <pt x="88" y="440" on="0"/>
        <pt x="155" y="464" on="0"/>
        <pt x="221" y="483" on="0"/>
        <pt x="282" y="495" on="0"/>
        <pt x="302" y="495" on="1"/>
        <pt x="330" y="494" on="0"/>
        <pt x="383" y="455" on="0"/>
        <pt x="399" y="433" on="1"/>
        <pt x="428" y="460" on="0"/>
        <pt x="505" y="492" on="0"/>
        <pt x="549" y="492" on="1"/>
        <pt x="587" y="492" on="0"/>
        <pt x="658" y="467" on="0"/>
        <pt x="710" y="419" on="0"/>
        <pt x="742" y="348" on="0"/>
        <pt x="741" y="304" on="1"/>
        <pt x="738" y="303" on="1"/>
        <pt x="681" y="248" on="1"/>
        <pt x="424" y="252" on="1"/>
        <pt x="424" y="251" on="1"/>
        <pt x="424" y="154" on="0"/>
        <pt x="518" y="73" on="0"/>
        <pt x="583" y="73" on="1"/>
        <pt x="617" y="73" on="0"/>
        <pt x="680" y="91" on="0"/>
        <pt x="714" y="107" on="1"/>
        <pt x="732" y="60" on="1"/>
        <pt x="576" y="-14" on="1"/>
        <pt x="507" y="-17" on="0"/>
        <pt x="401" y="29" on="0"/>
        <pt x="367" y="69" on="1"/>
      </contour>
      <contour>
        <pt x="506" y="424" on="1"/>
        <pt x="475" y="406" on="0"/>
        <pt x="437" y="348" on="0"/>
        <pt x="430" y="312" on="1"/>
        <pt x="630" y="322" on="1"/>
        <pt x="622" y="367" on="0"/>
        <pt x="553" y="425" on="0"/>
      </contour>
      <contour>
        <pt x="163" y="111" on="1"/>
        <pt x="163" y="98" on="0"/>
        <pt x="174" y="74" on="0"/>
        <pt x="186" y="66" on="1"/>
        <pt x="217" y="66" on="0"/>
        <pt x="309" y="95" on="0"/>
        <pt x="340" y="108" on="1"/>
        <pt x="333" y="122" on="0"/>
        <pt x="322" y="152" on="0"/>
        <pt x="318" y="168" on="1"/>
        <pt x="314" y="168" on="1"/>
        <pt x="290" y="170" on="0"/>
        <pt x="236" y="169" on="0"/>
        <pt x="192" y="157" on="0"/>
        <pt x="163" y="132" on="0"/>
      </contour>
    </TTGlyph>
    <TTGlyph name="agrave" xMin="43" yMin="-16" xMax="513" yMax="751">
      <component glyphName="a" x="0" y="0" flags="0x204"/>
      <component glyphName="gravecomb" x="252" y="-2" flags="0x4"/>
    </TTGlyph>
    <TTGlyph name="alpha" xMin="28" yMin="-14" xMax="559" yMax="498">
      <contour>
        <pt x="202" y="-14" on="1"/>
        <pt x="165" y="-14" on="0"/>
        <pt x="102" y="25" on="0"/>
        <pt x="55" y="91" on="0"/>
        <pt x="28" y="182" on="0"/>
        <pt x="28" y="234" on="1"/>
        <pt x="28" y="288" on="0"/>
        <pt x="58" y="382" on="0"/>
        <pt x="109" y="452" on="0"/>
        <pt x="178" y="492" on="0"/>
        <pt x="218" y="492" on="1"/>
        <pt x="266" y="492" on="0"/>
        <pt x="345" y="434" on="0"/>
        <pt x="366" y="385" on="1"/>
        <pt x="377" y="479" on="1"/>
        <pt x="406" y="498" on="1"/>
        <pt x="434" y="497" on="0"/>
        <pt x="488" y="476" on="0"/>
        <pt x="501" y="461" on="1"/>
        <pt x="430" y="99" on="1"/>
        <pt x="544" y="111" on="1"/>
        <pt x="559" y="80" on="1"/>
        <pt x="547" y="43" on="0"/>
        <pt x="487" y="-14" on="0"/>
        <pt x="459" y="-14" on="1"/>
        <pt x="423" y="-14" on="0"/>
        <pt x="373" y="63" on="0"/>
        <pt x="366" y="123" on="1"/>
        <pt x="365" y="123" on="1"/>
        <pt x="329" y="54" on="0"/>
        <pt x="248" y="-14" on="0"/>
      </contour>
      <contour>
        <pt x="112" y="126" on="1"/>
        <pt x="128" y="116" on="0"/>
        <pt x="169" y="106" on="0"/>
        <pt x="192" y="106" on="1"/>
        <pt x="254" y="106" on="0"/>
        <pt x="346" y="210" on="0"/>
        <pt x="359" y="294" on="1"/>
        <pt x="365" y="334" on="1"/>
        <pt x="340" y="353" on="0"/>
        <pt x="282" y="374" on="0"/>
        <pt x="251" y="374" on="1"/>
        <pt x="183" y="374" on="0"/>
        <pt x="101" y="279" on="0"/>
        <pt x="101" y="199" on="1"/>
        <pt x="101" y="177" on="0"/>
        <pt x="106" y="139" on="0"/>
      </contour>
    </TTGlyph>
    <TTGlyph name="alphaacute" xMin="28" yMin="-14" xMax="559" yMax="775">
      <component glyphName="alpha" x="0" y="0" flags="0x204"/>
      <component glyphName="grAcute" x="141" y="0" flags="0x4"/>
    </TTGlyph>
    <TTGlyph name="alphaacuteiotasub" xMin="28" yMin="-233" xMax="559" yMax="775">
      <component glyphName="alpha" x="0" y="0" flags="0x204"/>
      <component glyphName="iotaadscript" x="124" y="0" flags="0x4"/>
      <component glyphName="grAcute" x="141" y="0" flags="0x4"/>
    </TTGlyph>
    <TTGlyph name="alphaasper" xMin="28" yMin="-14" xMax="559" yMax="775">
      <component glyphName="asper" x="70" y="0" flags="0x4"/>
      <component glyphName="alpha" x="0" y="0" flags="0x204"/>
    </TTGlyph>
    <TTGlyph name="alphaasperacute" xMin="28" yMin="-14" xMax="559" yMax="775">
      <component glyphName="alpha" x="0" y="0" flags="0x204"/>
      <component glyphName="asperacute" x="84" y="0" flags="0x4"/>
    </TTGlyph>
    <TTGlyph name="alphaasperacuteiotasub" xMin="28" yMin="-233" xMax="559" yMax="775">
      <component glyphName="alpha" x="0" y="0" flags="0x204"/>
      <component glyphName="iotaadscript" x="124" y="0" flags="0x4"/>
      <component glyphName="asperacute" x="84" y="0" flags="0x4"/>
    </TTGlyph>
    <TTGlyph name="alphaaspergrave" xMin="28" yMin="-14" xMax="559" yMax="775">
      <component glyphName="alpha" x="0" y="0" flags="0x204"/>
      <component glyphName="aspergrave" x="78" y="0" flags="0x4"/>
    </TTGlyph>
    <TTGlyph name="alphaaspergraveiotasub" xMin="28" yMin="-233" xMax="559" yMax="775">
      <component glyphName="alpha" x="0" y="0" flags="0x204"/>
      <component glyphName="iotaadscript" x="124" y="0" flags="0x4"/>
      <component glyphName="aspergrave" x="78" y="0" flags="0x4"/>
    </TTGlyph>
    <TTGlyph name="alphaasperiotasub" xMin="28" yMin="-233" xMax="559" yMax="775">
      <component glyphName="asper" x="77" y="0" flags="0x4"/>
      <component glyphName="alpha" x="0" y="0" flags="0x204"/>
      <component glyphName="iotaadscript" x="124" y="0" flags="0x4"/>
    </TTGlyph>
    <TTGlyph name="alphaaspertilde" xMin="28" yMin="-14" xMax="559" yMax="924">
      <component glyphName="alpha" x="0" y="0" flags="0x204"/>
      <component glyphName="aspertilde" x="82" y="0" flags="0x4"/>
    </TTGlyph>
    <TTGlyph name="alphaaspertildeiotasub" xMin="28" yMin="-233" xMax="559" yMax="924">
      <component glyphName="alpha" x="0" y="0" flags="0x204"/>
      <component glyphName="iotaadscript" x="124" y="0" flags="0x4"/>
      <component glyphName="aspertilde" x="82" y="0" flags="0x4"/>
    </TTGlyph>
    <TTGlyph name="alphabreve" xMin="28" yMin="-14" xMax="559" yMax="717">
      <component glyphName="alpha" x="0" y="0" flags="0x204"/>
      <component glyphName="uni0306" x="292" y="0" flags="0x4"/>
    </TTGlyph>
    <TTGlyph name="alphagrave" xMin="28" yMin="-14" xMax="559" yMax="775">
      <component glyphName="alpha" x="0" y="0" flags="0x204"/>
      <component glyphName="grGrave" x="73" y="0" flags="0x4"/>
    </TTGlyph>
    <TTGlyph name="alphagraveiotasub" xMin="28" yMin="-233" xMax="559" yMax="775">
      <component glyphName="alpha" x="0" y="0" flags="0x204"/>
      <component glyphName="iotaadscript" x="124" y="0" flags="0x4"/>
      <component glyphName="grGrave" x="73" y="0" flags="0x4"/>
    </TTGlyph>
    <TTGlyph name="alphaiotasub" xMin="28" yMin="-233" xMax="559" yMax="498">
      <component glyphName="alpha" x="0" y="0" flags="0x204"/>
      <component glyphName="iotaadscript" x="124" y="0" flags="0x4"/>
    </TTGlyph>
    <TTGlyph name="alphalenis" xMin="28" yMin="-14" xMax="559" yMax="775">
      <component glyphName="alpha" x="0" y="0" flags="0x204"/>
      <component glyphName="lenis" x="99" y="0" flags="0x4"/>
    </TTGlyph>
    <TTGlyph name="alphalenisacute" xMin="28" yMin="-14" xMax="559" yMax="775">
      <component glyphName="alpha" x="0" y="0" flags="0x204"/>
      <component glyphName="lenisacute" x="114" y="0" flags="0x4"/>
    </TTGlyph>
    <TTGlyph name="alphalenisacuteiotasub" xMin="28" yMin="-233" xMax="559" yMax="775">
      <component glyphName="alpha" x="0" y="0" flags="0x204"/>
      <component glyphName="iotaadscript" x="124" y="0" flags="0x4"/>
      <component glyphName="lenisacute" x="114" y="0" flags="0x4"/>
    </TTGlyph>
    <TTGlyph name="alphalenisgrave" xMin="28" yMin="-14" xMax="559" yMax="775">
      <component glyphName="alpha" x="0" y="0" flags="0x204"/>
      <component glyphName="lenisgrave" x="79" y="0" flags="0x4"/>
    </TTGlyph>
    <TTGlyph name="alphalenisgraveiotasub" xMin="28" yMin="-233" xMax="559" yMax="775">
      <component glyphName="alpha" x="0" y="0" flags="0x204"/>
      <component glyphName="lenisgrave" x="79" y="0" flags="0x4"/>
      <component glyphName="iotaadscript" x="124" y="0" flags="0x4"/>
    </TTGlyph>
    <TTGlyph name="alphalenisiotasub" xMin="28" yMin="-233" xMax="559" yMax="775">
      <component glyphName="alpha" x="0" y="0" flags="0x204"/>
      <component glyphName="iotaadscript" x="124" y="0" flags="0x4"/>
      <component glyphName="lenis" x="99" y="0" flags="0x4"/>
    </TTGlyph>
    <TTGlyph name="alphalenistilde" xMin="28" yMin="-14" xMax="559" yMax="924">
      <component glyphName="alpha" x="0" y="0" flags="0x204"/>
      <component glyphName="lenistilde" x="86" y="0" flags="0x4"/>
    </TTGlyph>
    <TTGlyph name="alphalenistildeiotasub" xMin="28" yMin="-233" xMax="559" yMax="924">
      <component glyphName="alpha" x="0" y="0" flags="0x204"/>
      <component glyphName="lenistilde" x="86" y="0" flags="0x4"/>
      <component glyphName="iotaadscript" x="124" y="0" flags="0x4"/>
    </TTGlyph>
    <TTGlyph name="alphatilde" xMin="28" yMin="-14" xMax="559" yMax="716">
      <component glyphName="alpha" x="0" y="0" flags="0x204"/>
      <component glyphName="grTilde" x="109" y="0" flags="0x4"/>
    </TTGlyph>
    <TTGlyph name="alphatildeiotasub" xMin="28" yMin="-233" xMax="559" yMax="716">
      <component glyphName="alpha" x="0" y="0" flags="0x204"/>
      <component glyphName="grTilde" x="109" y="0" flags="0x4"/>
      <component glyphName="iotaadscript" x="124" y="0" flags="0x4"/>
    </TTGlyph>
    <TTGlyph name="alphawithmacron" xMin="28" yMin="-14" xMax="559" yMax="643">
      <component glyphName="alpha" x="0" y="0" flags="0x204"/>
      <component glyphName="uni0304" x="277" y="0" flags="0x4"/>
    </TTGlyph>
    <TTGlyph name="alphawithtonos" xMin="28" yMin="-14" xMax="559" yMax="775">
      <component glyphName="tonos" x="141" y="0" flags="0x4"/>
      <component glyphName="alpha" x="0" y="0" flags="0x204"/>
    </TTGlyph>
    <TTGlyph name="amacron" xMin="43" yMin="-16" xMax="513" yMax="641">
      <component glyphName="a" x="0" y="0" flags="0x204"/>
      <component glyphName="uni0304" x="251" y="-2" flags="0x4"/>
    </TTGlyph>
    <TTGlyph name="ampersand" xMin="19" yMin="-26" xMax="703" yMax="668">
      <contour>
        <pt x="300" y="-26" on="1"/>
        <pt x="242" y="-26" on="0"/>
        <pt x="139" y="6" on="0"/>
        <pt x="63" y="64" on="0"/>
        <pt x="19" y="147" on="0"/>
        <pt x="19" y="197" on="1"/>
        <pt x="19" y="255" on="0"/>
        <pt x="80" y="343" on="0"/>
        <pt x="129" y="364" on="1"/>
        <pt x="84" y="387" on="0"/>
        <pt x="40" y="461" on="0"/>
        <pt x="40" y="501" on="1"/>
        <pt x="40" y="532" on="0"/>
        <pt x="68" y="592" on="0"/>
        <pt x="122" y="639" on="0"/>
        <pt x="205" y="668" on="0"/>
        <pt x="259" y="668" on="1"/>
        <pt x="300" y="668" on="0"/>
        <pt x="399" y="649" on="0"/>
        <pt x="451" y="628" on="1"/>
        <pt x="414" y="525" on="1"/>
        <pt x="224" y="592" on="1"/>
        <pt x="190" y="576" on="0"/>
        <pt x="155" y="517" on="0"/>
        <pt x="155" y="484" on="1"/>
        <pt x="155" y="459" on="0"/>
        <pt x="176" y="411" on="0"/>
        <pt x="196" y="393" on="1"/>
        <pt x="302" y="362" on="1"/>
        <pt x="290" y="304" on="1"/>
        <pt x="215" y="305" on="0"/>
        <pt x="136" y="225" on="0"/>
        <pt x="136" y="174" on="1"/>
        <pt x="136" y="143" on="0"/>
        <pt x="163" y="95" on="0"/>
        <pt x="207" y="63" on="0"/>
        <pt x="265" y="47" on="0"/>
        <pt x="297" y="47" on="1"/>
        <pt x="318" y="47" on="0"/>
        <pt x="373" y="56" on="0"/>
        <pt x="399" y="68" on="1"/>
        <pt x="436" y="93" on="0"/>
        <pt x="469" y="169" on="0"/>
        <pt x="469" y="211" on="1"/>
        <pt x="469" y="243" on="0"/>
        <pt x="451" y="309" on="0"/>
        <pt x="435" y="338" on="1"/>
        <pt x="419" y="331" on="0"/>
        <pt x="386" y="311" on="0"/>
        <pt x="368" y="300" on="1"/>
        <pt x="337" y="356" on="1"/>
        <pt x="411" y="399" on="0"/>
        <pt x="522" y="450" on="0"/>
        <pt x="607" y="467" on="0"/>
        <pt x="673" y="451" on="0"/>
        <pt x="703" y="427" on="1"/>
        <pt x="674" y="324" on="1"/>
        <pt x="643" y="341" on="0"/>
        <pt x="581" y="370" on="0"/>
        <pt x="539" y="368" on="1"/>
        <pt x="558" y="331" on="0"/>
        <pt x="576" y="257" on="0"/>
        <pt x="576" y="222" on="1"/>
        <pt x="576" y="171" on="0"/>
        <pt x="539" y="80" on="0"/>
        <pt x="468" y="13" on="0"/>
        <pt x="365" y="-26" on="0"/>
      </contour>
    </TTGlyph>
    <TTGlyph name="anoteleia" xMin="47" yMin="298" xMax="191" yMax="441">
      <component glyphName="period" x="-39" y="334" flags="0x4"/>
    </TTGlyph>
    <TTGlyph name="aogonek" xMin="43" yMin="-246" xMax="513" yMax="496">
      <component glyphName="a" x="0" y="0" flags="0x204"/>
      <component glyphName="uni0328" x="466" y="3" flags="0x4"/>
    </TTGlyph>
    <TTGlyph name="approxequal" xMin="58" yMin="71" xMax="498" yMax="422">
      <component glyphName="tildecomb.case" x="270" y="-453" flags="0x4"/>
      <component glyphName="tildecomb.case" x="270" y="-631" flags="0x4"/>
    </TTGlyph>
    <TTGlyph name="aring" xMin="43" yMin="-16" xMax="513" yMax="755">
      <component glyphName="a" x="0" y="0" flags="0x204"/>
      <component glyphName="uni030A" x="252" y="-182" flags="0x4"/>
    </TTGlyph>
    <TTGlyph name="asciicircum" xMin="32" yMin="324" xMax="501" yMax="649">
      <contour>
        <pt x="32" y="363" on="1"/>
        <pt x="225" y="649" on="1"/>
        <pt x="298" y="649" on="1"/>
        <pt x="501" y="369" on="1"/>
        <pt x="443" y="328" on="1"/>
        <pt x="267" y="576" on="1"/>
        <pt x="260" y="576" on="1"/>
        <pt x="93" y="324" on="1"/>
      </contour>
    </TTGlyph>
    <TTGlyph name="asciitilde" xMin="83" yMin="175" xMax="523" yMax="348">
      <component glyphName="tildecomb.case" x="295" y="-527" flags="0x4"/>
    </TTGlyph>
    <TTGlyph name="asper" xMin="106" yMin="530" xMax="243" yMax="775">
      <contour>
        <pt x="243" y="565" on="1"/>
        <pt x="218" y="530" on="1"/>
        <pt x="165" y="555" on="0"/>
        <pt x="106" y="643" on="0"/>
        <pt x="106" y="686" on="1"/>
        <pt x="106" y="716" on="0"/>
        <pt x="144" y="768" on="0"/>
        <pt x="178" y="775" on="1"/>
        <pt x="205" y="763" on="0"/>
        <pt x="234" y="721" on="0"/>
        <pt x="238" y="692" on="1"/>
        <pt x="187" y="653" on="1"/>
        <pt x="189" y="628" on="0"/>
        <pt x="215" y="590" on="0"/>
      </contour>
    </TTGlyph>
    <TTGlyph name="asper.case" xMin="28" yMin="414" xMax="165" yMax="660">
      <contour>
        <pt x="140" y="414" on="1"/>
        <pt x="87" y="439" on="0"/>
        <pt x="28" y="528" on="0"/>
        <pt x="28" y="571" on="1"/>
        <pt x="28" y="601" on="0"/>
        <pt x="66" y="652" on="0"/>
        <pt x="100" y="660" on="1"/>
        <pt x="127" y="647" on="0"/>
        <pt x="156" y="605" on="0"/>
        <pt x="160" y="577" on="1"/>
        <pt x="109" y="537" on="1"/>
        <pt x="111" y="513" on="0"/>
        <pt x="137" y="474" on="0"/>
        <pt x="165" y="450" on="1"/>
      </contour>
    </TTGlyph>
    <TTGlyph name="asperacute" xMin="17" yMin="530" xMax="334" yMax="775">
      <contour>
        <pt x="180" y="549" on="1"/>
        <pt x="241" y="775" on="1"/>
        <pt x="267" y="776" on="0"/>
        <pt x="317" y="755" on="0"/>
        <pt x="333" y="742" on="1"/>
        <pt x="334" y="719" on="1"/>
        <pt x="224" y="530" on="1"/>
      </contour>
      <contour>
        <pt x="129" y="530" on="1"/>
        <pt x="76" y="555" on="0"/>
        <pt x="17" y="643" on="0"/>
        <pt x="17" y="686" on="1"/>
        <pt x="17" y="716" on="0"/>
        <pt x="54" y="768" on="0"/>
        <pt x="88" y="775" on="1"/>
        <pt x="116" y="763" on="0"/>
        <pt x="145" y="721" on="0"/>
        <pt x="149" y="692" on="1"/>
        <pt x="97" y="653" on="1"/>
        <pt x="100" y="628" on="0"/>
        <pt x="126" y="590" on="0"/>
        <pt x="154" y="565" on="1"/>
      </contour>
    </TTGlyph>
    <TTGlyph name="asperacute.case" xMin="-101" yMin="414" xMax="216" yMax="660">
      <contour>
        <pt x="11" y="414" on="1"/>
        <pt x="-42" y="439" on="0"/>
        <pt x="-101" y="528" on="0"/>
        <pt x="-101" y="571" on="1"/>
        <pt x="-101" y="601" on="0"/>
        <pt x="-64" y="652" on="0"/>
        <pt x="-30" y="660" on="1"/>
        <pt x="-2" y="647" on="0"/>
        <pt x="27" y="605" on="0"/>
        <pt x="31" y="577" on="1"/>
        <pt x="-21" y="537" on="1"/>
        <pt x="-18" y="513" on="0"/>
        <pt x="8" y="474" on="0"/>
        <pt x="36" y="450" on="1"/>
      </contour>
      <contour>
        <pt x="63" y="434" on="1"/>
        <pt x="123" y="659" on="1"/>
        <pt x="149" y="660" on="0"/>
        <pt x="199" y="640" on="0"/>
        <pt x="215" y="626" on="1"/>
        <pt x="216" y="603" on="1"/>
        <pt x="106" y="414" on="1"/>
      </contour>
    </TTGlyph>
    <TTGlyph name="aspergrave" xMin="15" yMin="530" xMax="333" yMax="775">
      <contour>
        <pt x="180" y="719" on="1"/>
        <pt x="181" y="742" on="1"/>
        <pt x="197" y="755" on="0"/>
        <pt x="247" y="776" on="0"/>
        <pt x="273" y="775" on="1"/>
        <pt x="333" y="549" on="1"/>
        <pt x="290" y="530" on="1"/>
      </contour>
      <contour>
        <pt x="127" y="530" on="1"/>
        <pt x="74" y="555" on="0"/>
        <pt x="15" y="643" on="0"/>
        <pt x="15" y="686" on="1"/>
        <pt x="15" y="716" on="0"/>
        <pt x="52" y="768" on="0"/>
        <pt x="86" y="775" on="1"/>
        <pt x="113" y="763" on="0"/>
        <pt x="143" y="721" on="0"/>
        <pt x="147" y="692" on="1"/>
        <pt x="95" y="653" on="1"/>
        <pt x="97" y="628" on="0"/>
        <pt x="124" y="590" on="0"/>
        <pt x="152" y="565" on="1"/>
      </contour>
    </TTGlyph>
    <TTGlyph name="aspergrave.case" xMin="-105" yMin="414" xMax="213" yMax="660">
      <contour>
        <pt x="7" y="414" on="1"/>
        <pt x="-46" y="439" on="0"/>
        <pt x="-105" y="528" on="0"/>
        <pt x="-105" y="571" on="1"/>
        <pt x="-105" y="601" on="0"/>
        <pt x="-68" y="652" on="0"/>
        <pt x="-34" y="660" on="1"/>
        <pt x="-7" y="647" on="0"/>
        <pt x="23" y="605" on="0"/>
        <pt x="27" y="577" on="1"/>
        <pt x="-25" y="537" on="1"/>
        <pt x="-23" y="513" on="0"/>
        <pt x="4" y="474" on="0"/>
        <pt x="32" y="450" on="1"/>
      </contour>
      <contour>
        <pt x="60" y="603" on="1"/>
        <pt x="61" y="626" on="1"/>
        <pt x="77" y="640" on="0"/>
        <pt x="127" y="660" on="0"/>
        <pt x="153" y="659" on="1"/>
        <pt x="213" y="434" on="1"/>
        <pt x="170" y="414" on="1"/>
      </contour>
    </TTGlyph>
    <TTGlyph name="aspertilde" xMin="-4" yMin="530" xMax="360" yMax="924">
      <component glyphName="grTilde" x="8" y="208" flags="0x4"/>
    </TTGlyph>
    <TTGlyph name="aspertilde.case" xMin="-148" yMin="273" xMax="216" yMax="673">
      <contour>
        <pt x="125" y="529" on="1"/>
        <pt x="99" y="529" on="0"/>
        <pt x="38" y="553" on="0"/>
        <pt x="-19" y="578" on="0"/>
        <pt x="-70" y="593" on="0"/>
        <pt x="-88" y="584" on="1"/>
        <pt x="-113" y="540" on="1"/>
        <pt x="-148" y="555" on="1"/>
        <pt x="-139" y="615" on="0"/>
        <pt x="-96" y="673" on="0"/>
        <pt x="-59" y="673" on="1"/>
        <pt x="-32" y="673" on="0"/>
        <pt x="28" y="650" on="0"/>
        <pt x="86" y="625" on="0"/>
        <pt x="136" y="608" on="0"/>
        <pt x="153" y="614" on="1"/>
        <pt x="180" y="661" on="1"/>
        <pt x="216" y="648" on="1"/>
        <pt x="206" y="587" on="0"/>
        <pt x="163" y="529" on="0"/>
      </contour>
      <contour>
        <pt x="71" y="273" on="1"/>
        <pt x="18" y="298" on="0"/>
        <pt x="-41" y="386" on="0"/>
        <pt x="-41" y="429" on="1"/>
        <pt x="-41" y="459" on="0"/>
        <pt x="-3" y="511" on="0"/>
        <pt x="31" y="518" on="1"/>
        <pt x="58" y="506" on="0"/>
        <pt x="87" y="464" on="0"/>
        <pt x="91" y="435" on="1"/>
        <pt x="40" y="396" on="1"/>
        <pt x="42" y="371" on="0"/>
        <pt x="68" y="333" on="0"/>
        <pt x="96" y="308" on="1"/>
      </contour>
    </TTGlyph>
    <TTGlyph name="asterisk" xMin="12" yMin="424" xMax="344" yMax="762">
      <contour>
        <pt x="87" y="708" on="1"/>
        <pt x="157" y="762" on="1"/>
        <pt x="179" y="618" on="1"/>
        <pt x="142" y="597" on="1"/>
      </contour>
      <contour>
        <pt x="183" y="628" on="1"/>
        <pt x="271" y="715" on="1"/>
        <pt x="344" y="664" on="1"/>
        <pt x="214" y="599" on="1"/>
      </contour>
      <contour>
        <pt x="12" y="614" on="1"/>
        <pt x="155" y="589" on="1"/>
        <pt x="163" y="548" on="1"/>
        <pt x="40" y="529" on="1"/>
      </contour>
      <contour>
        <pt x="212" y="561" on="1"/>
        <pt x="230" y="599" on="1"/>
        <pt x="340" y="543" on="1"/>
        <pt x="314" y="459" on="1"/>
      </contour>
      <contour>
        <pt x="174" y="553" on="1"/>
        <pt x="215" y="548" on="1"/>
        <pt x="196" y="425" on="1"/>
        <pt x="107" y="424" on="1"/>
      </contour>
    </TTGlyph>
    <TTGlyph name="at" xMin="84" yMin="-31" xMax="974" yMax="689">
      <contour>
        <pt x="226" y="-31" on="1"/>
        <pt x="154" y="43" on="0"/>
        <pt x="84" y="211" on="0"/>
        <pt x="84" y="292" on="1"/>
        <pt x="84" y="370" on="0"/>
        <pt x="146" y="514" on="0"/>
        <pt x="263" y="623" on="0"/>
        <pt x="434" y="689" on="0"/>
        <pt x="541" y="689" on="1"/>
        <pt x="651" y="689" on="0"/>
        <pt x="815" y="621" on="0"/>
        <pt x="921" y="512" on="0"/>
        <pt x="974" y="374" on="0"/>
        <pt x="974" y="305" on="1"/>
        <pt x="974" y="248" on="0"/>
        <pt x="939" y="140" on="0"/>
        <pt x="871" y="53" on="0"/>
        <pt x="768" y="-7" on="0"/>
        <pt x="701" y="-16" on="1"/>
        <pt x="668" y="-16" on="0"/>
        <pt x="613" y="26" on="0"/>
        <pt x="600" y="55" on="1"/>
        <pt x="490" y="-14" on="1"/>
        <pt x="447" y="-19" on="0"/>
        <pt x="384" y="0" on="0"/>
        <pt x="343" y="37" on="0"/>
        <pt x="323" y="84" on="0"/>
        <pt x="323" y="107" on="1"/>
        <pt x="323" y="136" on="0"/>
        <pt x="357" y="197" on="0"/>
        <pt x="397" y="218" on="1"/>
        <pt x="590" y="223" on="1"/>
        <pt x="590" y="317" on="1"/>
        <pt x="590" y="363" on="0"/>
        <pt x="566" y="410" on="0"/>
        <pt x="542" y="422" on="1"/>
        <pt x="518" y="421" on="0"/>
        <pt x="464" y="412" on="0"/>
        <pt x="448" y="407" on="1"/>
        <pt x="434" y="301" on="1"/>
        <pt x="366" y="298" on="1"/>
        <pt x="353" y="332" on="0"/>
        <pt x="341" y="394" on="0"/>
        <pt x="341" y="428" on="1"/>
        <pt x="366" y="440" on="0"/>
        <pt x="434" y="464" on="0"/>
        <pt x="500" y="483" on="0"/>
        <pt x="559" y="494" on="0"/>
        <pt x="577" y="494" on="1"/>
        <pt x="612" y="494" on="0"/>
        <pt x="681" y="448" on="0"/>
        <pt x="695" y="423" on="1"/>
        <pt x="702" y="411" on="0"/>
        <pt x="707" y="369" on="0"/>
        <pt x="707" y="320" on="1"/>
        <pt x="707" y="101" on="1"/>
        <pt x="707" y="66" on="0"/>
        <pt x="749" y="71" on="0"/>
        <pt x="767" y="84" on="1"/>
        <pt x="810" y="115" on="0"/>
        <pt x="856" y="237" on="0"/>
        <pt x="856" y="302" on="1"/>
        <pt x="856" y="359" on="0"/>
        <pt x="819" y="469" on="0"/>
        <pt x="742" y="554" on="0"/>
        <pt x="625" y="606" on="0"/>
        <pt x="546" y="606" on="1"/>
        <pt x="466" y="606" on="0"/>
        <pt x="339" y="553" on="0"/>
        <pt x="252" y="463" on="0"/>
        <pt x="206" y="343" on="0"/>
        <pt x="206" y="277" on="1"/>
        <pt x="206" y="212" on="0"/>
        <pt x="252" y="77" on="0"/>
        <pt x="298" y="15" on="1"/>
      </contour>
      <contour>
        <pt x="466" y="66" on="1"/>
        <pt x="497" y="65" on="0"/>
        <pt x="565" y="86" on="0"/>
        <pt x="590" y="96" on="1"/>
        <pt x="590" y="167" on="1"/>
        <pt x="566" y="169" on="0"/>
        <pt x="514" y="168" on="0"/>
        <pt x="471" y="156" on="0"/>
        <pt x="443" y="132" on="0"/>
        <pt x="443" y="111" on="1"/>
        <pt x="443" y="98" on="0"/>
        <pt x="454" y="74" on="0"/>
      </contour>
    </TTGlyph>
    <TTGlyph name="atilde" xMin="43" yMin="-16" xMax="513" yMax="715">
      <component glyphName="a" x="0" y="0" flags="0x204"/>
      <component glyphName="tildecomb" x="252" y="-2" flags="0x4"/>
    </TTGlyph>
    <TTGlyph name="b" xMin="-21" yMin="-19" xMax="515" yMax="736">
      <contour>
        <pt x="246" y="-19" on="1"/>
        <pt x="203" y="-19" on="0"/>
        <pt x="110" y="3" on="0"/>
        <pt x="62" y="23" on="1"/>
        <pt x="63" y="24" on="1"/>
        <pt x="63" y="653" on="1"/>
        <pt x="-12" y="655" on="1"/>
        <pt x="-21" y="703" on="1"/>
        <pt x="13" y="717" on="0"/>
        <pt x="97" y="735" on="0"/>
        <pt x="136" y="736" on="1"/>
        <pt x="180" y="695" on="1"/>
        <pt x="180" y="408" on="1"/>
        <pt x="293" y="484" on="1"/>
        <pt x="343" y="494" on="0"/>
        <pt x="426" y="463" on="0"/>
        <pt x="483" y="398" on="0"/>
        <pt x="515" y="305" on="0"/>
        <pt x="515" y="254" on="1"/>
        <pt x="515" y="198" on="0"/>
        <pt x="477" y="98" on="0"/>
        <pt x="408" y="24" on="0"/>
        <pt x="308" y="-19" on="0"/>
      </contour>
      <contour>
        <pt x="278" y="393" on="1"/>
        <pt x="255" y="393" on="0"/>
        <pt x="205" y="373" on="0"/>
        <pt x="180" y="358" on="1"/>
        <pt x="180" y="82" on="1"/>
        <pt x="205" y="68" on="0"/>
        <pt x="273" y="52" on="0"/>
        <pt x="316" y="59" on="1"/>
        <pt x="353" y="84" on="0"/>
        <pt x="393" y="180" on="0"/>
        <pt x="393" y="231" on="1"/>
        <pt x="393" y="263" on="0"/>
        <pt x="377" y="322" on="0"/>
        <pt x="347" y="366" on="0"/>
        <pt x="304" y="393" on="0"/>
      </contour>
    </TTGlyph>
    <TTGlyph name="backslash" xMin="-7" yMin="-126" xMax="388" yMax="715">
      <contour>
        <pt x="-7" y="681" on="1"/>
        <pt x="80" y="715" on="1"/>
        <pt x="388" y="-94" on="1"/>
        <pt x="300" y="-126" on="1"/>
      </contour>
    </TTGlyph>
    <TTGlyph name="bar" xMin="103" yMin="-225" xMax="197" yMax="735">
      <contour>
        <pt x="103" y="735" on="1"/>
        <pt x="197" y="735" on="1"/>
        <pt x="197" y="-225" on="1"/>
        <pt x="103" y="-225" on="1"/>
      </contour>
    </TTGlyph>
    <TTGlyph name="beta" xMin="43" yMin="-225" xMax="494" yMax="735">
      <contour>
        <pt x="43" y="-209" on="1"/>
        <pt x="50" y="-1" on="1"/>
        <pt x="52" y="59" on="0"/>
        <pt x="54" y="166" on="0"/>
        <pt x="54" y="238" on="1"/>
        <pt x="54" y="461" on="1"/>
        <pt x="54" y="588" on="0"/>
        <pt x="172" y="735" on="0"/>
        <pt x="273" y="735" on="1"/>
        <pt x="355" y="735" on="0"/>
        <pt x="461" y="625" on="0"/>
        <pt x="461" y="541" on="1"/>
        <pt x="461" y="489" on="0"/>
        <pt x="401" y="405" on="0"/>
        <pt x="350" y="383" on="1"/>
        <pt x="419" y="358" on="0"/>
        <pt x="494" y="261" on="0"/>
        <pt x="494" y="197" on="1"/>
        <pt x="494" y="151" on="0"/>
        <pt x="463" y="72" on="0"/>
        <pt x="409" y="14" on="0"/>
        <pt x="335" y="-20" on="0"/>
        <pt x="293" y="-20" on="1"/>
        <pt x="248" y="-20" on="0"/>
        <pt x="157" y="25" on="0"/>
        <pt x="125" y="61" on="1"/>
        <pt x="182" y="-196" on="1"/>
        <pt x="166" y="-206" on="0"/>
        <pt x="102" y="-224" on="0"/>
        <pt x="70" y="-225" on="1"/>
      </contour>
      <contour>
        <pt x="180" y="315" on="1"/>
        <pt x="176" y="334" on="0"/>
        <pt x="171" y="395" on="0"/>
        <pt x="175" y="417" on="1"/>
        <pt x="291" y="409" on="1"/>
        <pt x="334" y="428" on="0"/>
        <pt x="383" y="501" on="0"/>
        <pt x="383" y="550" on="1"/>
        <pt x="383" y="565" on="0"/>
        <pt x="379" y="589" on="0"/>
        <pt x="375" y="599" on="1"/>
        <pt x="359" y="609" on="0"/>
        <pt x="315" y="618" on="0"/>
        <pt x="291" y="618" on="1"/>
        <pt x="210" y="618" on="0"/>
        <pt x="122" y="501" on="0"/>
        <pt x="122" y="393" on="1"/>
        <pt x="122" y="195" on="1"/>
        <pt x="122" y="173" on="0"/>
        <pt x="125" y="138" on="0"/>
        <pt x="126" y="125" on="1"/>
        <pt x="147" y="112" on="0"/>
        <pt x="213" y="98" on="0"/>
        <pt x="251" y="98" on="1"/>
        <pt x="333" y="99" on="0"/>
        <pt x="420" y="177" on="0"/>
        <pt x="424" y="228" on="1"/>
        <pt x="414" y="259" on="0"/>
        <pt x="338" y="309" on="0"/>
        <pt x="286" y="320" on="1"/>
        <pt x="205" y="298" on="1"/>
      </contour>
    </TTGlyph>
    <TTGlyph name="braceleft" xMin="67" yMin="-145" xMax="370" yMax="729">
      <contour>
        <pt x="357" y="-145" on="1"/>
        <pt x="308" y="-141" on="0"/>
        <pt x="230" y="-110" on="0"/>
        <pt x="176" y="-64" on="0"/>
        <pt x="148" y="-10" on="0"/>
        <pt x="148" y="16" on="1"/>
        <pt x="148" y="142" on="1"/>
        <pt x="148" y="202" on="0"/>
        <pt x="124" y="264" on="0"/>
        <pt x="67" y="268" on="1"/>
        <pt x="73" y="327" on="1"/>
        <pt x="124" y="331" on="0"/>
        <pt x="148" y="392" on="0"/>
        <pt x="148" y="443" on="1"/>
        <pt x="148" y="555" on="1"/>
        <pt x="148" y="584" on="0"/>
        <pt x="173" y="643" on="0"/>
        <pt x="225" y="690" on="0"/>
        <pt x="307" y="724" on="0"/>
        <pt x="364" y="729" on="1"/>
        <pt x="370" y="644" on="1"/>
        <pt x="269" y="644" on="1"/>
        <pt x="273" y="449" on="1"/>
        <pt x="274" y="411" on="0"/>
        <pt x="249" y="338" on="0"/>
        <pt x="221" y="304" on="1"/>
        <pt x="221" y="295" on="1"/>
        <pt x="249" y="260" on="0"/>
        <pt x="274" y="188" on="0"/>
        <pt x="273" y="149" on="1"/>
        <pt x="269" y="-48" on="1"/>
        <pt x="367" y="-60" on="1"/>
      </contour>
    </TTGlyph>
    <TTGlyph name="braceright" xMin="87" yMin="-145" xMax="390" yMax="729">
      <contour>
        <pt x="90" y="-60" on="1"/>
        <pt x="188" y="-48" on="1"/>
        <pt x="184" y="149" on="1"/>
        <pt x="183" y="188" on="0"/>
        <pt x="208" y="260" on="0"/>
        <pt x="236" y="295" on="1"/>
        <pt x="236" y="304" on="1"/>
        <pt x="208" y="338" on="0"/>
        <pt x="183" y="411" on="0"/>
        <pt x="184" y="449" on="1"/>
        <pt x="188" y="644" on="1"/>
        <pt x="87" y="644" on="1"/>
        <pt x="93" y="729" on="1"/>
        <pt x="150" y="724" on="0"/>
        <pt x="232" y="690" on="0"/>
        <pt x="284" y="643" on="0"/>
        <pt x="309" y="584" on="0"/>
        <pt x="309" y="555" on="1"/>
        <pt x="309" y="443" on="1"/>
        <pt x="309" y="392" on="0"/>
        <pt x="333" y="331" on="0"/>
        <pt x="384" y="327" on="1"/>
        <pt x="390" y="268" on="1"/>
        <pt x="333" y="264" on="0"/>
        <pt x="309" y="202" on="0"/>
        <pt x="309" y="142" on="1"/>
        <pt x="309" y="16" on="1"/>
        <pt x="309" y="-10" on="0"/>
        <pt x="281" y="-64" on="0"/>
        <pt x="227" y="-110" on="0"/>
        <pt x="149" y="-141" on="0"/>
        <pt x="100" y="-145" on="1"/>
      </contour>
    </TTGlyph>
    <TTGlyph name="bracketleft" xMin="95" yMin="-122" xMax="337" yMax="712">
      <contour>
        <pt x="95" y="712" on="1"/>
        <pt x="331" y="712" on="1"/>
        <pt x="337" y="654" on="1"/>
        <pt x="207" y="628" on="1"/>
        <pt x="207" y="-38" on="1"/>
        <pt x="337" y="-64" on="1"/>
        <pt x="331" y="-122" on="1"/>
        <pt x="95" y="-122" on="1"/>
      </contour>
    </TTGlyph>
    <TTGlyph name="bracketright" xMin="33" yMin="-122" xMax="275" yMax="712">
      <contour>
        <pt x="33" y="-64" on="1"/>
        <pt x="163" y="-38" on="1"/>
        <pt x="163" y="628" on="1"/>
        <pt x="33" y="654" on="1"/>
        <pt x="39" y="712" on="1"/>
        <pt x="275" y="712" on="1"/>
        <pt x="275" y="-122" on="1"/>
        <pt x="39" y="-122" on="1"/>
      </contour>
    </TTGlyph>
    <TTGlyph name="breve" xMin="36" yMin="551" xMax="342" yMax="717">
      <component glyphName="uni0306" x="188" y="0" flags="0x4"/>
    </TTGlyph>
    <TTGlyph name="brokenbar" xMin="103" yMin="-76" xMax="197" yMax="616">
      <contour>
        <pt x="103" y="616" on="1"/>
        <pt x="197" y="616" on="1"/>
        <pt x="197" y="358" on="1"/>
        <pt x="103" y="358" on="1"/>
      </contour>
      <contour>
        <pt x="103" y="182" on="1"/>
        <pt x="197" y="182" on="1"/>
        <pt x="197" y="-76" on="1"/>
        <pt x="103" y="-76" on="1"/>
      </contour>
    </TTGlyph>
    <TTGlyph name="bullet" xMin="76" yMin="122" xMax="337" yMax="400">
      <contour>
        <pt x="220" y="122" on="1"/>
        <pt x="169" y="136" on="0"/>
        <pt x="96" y="196" on="0"/>
        <pt x="76" y="240" on="1"/>
        <pt x="86" y="295" on="0"/>
        <pt x="149" y="375" on="0"/>
        <pt x="198" y="400" on="1"/>
        <pt x="247" y="381" on="0"/>
        <pt x="320" y="310" on="0"/>
        <pt x="337" y="261" on="1"/>
        <pt x="326" y="215" on="0"/>
        <pt x="267" y="145" on="0"/>
      </contour>
    </TTGlyph>
    <TTGlyph name="bulletoperator" xMin="30" yMin="175" xMax="174" yMax="318">
      <contour>
        <pt x="111" y="175" on="1"/>
        <pt x="92" y="182" on="0"/>
        <pt x="43" y="220" on="0"/>
        <pt x="30" y="238" on="1"/>
        <pt x="42" y="262" on="0"/>
        <pt x="77" y="308" on="0"/>
        <pt x="96" y="318" on="1"/>
        <pt x="118" y="310" on="0"/>
        <pt x="162" y="271" on="0"/>
        <pt x="174" y="255" on="1"/>
        <pt x="166" y="233" on="0"/>
        <pt x="130" y="188" on="0"/>
      </contour>
    </TTGlyph>
    <TTGlyph name="c" xMin="17" yMin="-14" xMax="421" yMax="492">
      <contour>
        <pt x="274" y="-14" on="1"/>
        <pt x="216" y="-18" on="0"/>
        <pt x="120" y="18" on="0"/>
        <pt x="54" y="85" on="0"/>
        <pt x="17" y="180" on="0"/>
        <pt x="17" y="236" on="1"/>
        <pt x="17" y="293" on="0"/>
        <pt x="53" y="387" on="0"/>
        <pt x="116" y="455" on="0"/>
        <pt x="203" y="492" on="0"/>
        <pt x="253" y="492" on="1"/>
        <pt x="306" y="492" on="0"/>
        <pt x="393" y="448" on="0"/>
        <pt x="421" y="405" on="1"/>
        <pt x="340" y="332" on="1"/>
        <pt x="308" y="366" on="0"/>
        <pt x="232" y="413" on="0"/>
        <pt x="192" y="420" on="1"/>
        <pt x="162" y="386" on="0"/>
        <pt x="135" y="302" on="0"/>
        <pt x="135" y="258" on="1"/>
        <pt x="135" y="178" on="0"/>
        <pt x="214" y="71" on="0"/>
        <pt x="288" y="71" on="1"/>
        <pt x="311" y="71" on="0"/>
        <pt x="366" y="84" on="0"/>
        <pt x="394" y="97" on="1"/>
        <pt x="413" y="50" on="1"/>
      </contour>
    </TTGlyph>
    <TTGlyph name="cacute" xMin="17" yMin="-14" xMax="421" yMax="751">
      <component glyphName="c" x="0" y="0" flags="0x204"/>
      <component glyphName="acutecomb" x="245" y="-2" flags="0x4"/>
    </TTGlyph>
    <TTGlyph name="caron" xMin="30" yMin="541" xMax="388" yMax="754">
      <component glyphName="uni030C" x="218" y="0" flags="0x4"/>
    </TTGlyph>
    <TTGlyph name="ccaron" xMin="17" yMin="-14" xMax="421" yMax="752">
      <component glyphName="c" x="0" y="0" flags="0x204"/>
      <component glyphName="uni030C" x="245" y="-2" flags="0x4"/>
    </TTGlyph>
    <TTGlyph name="ccedilla" xMin="17" yMin="-267" xMax="421" yMax="492">
      <component glyphName="c" x="0" y="0" flags="0x204"/>
      <component glyphName="uni0327" x="241" y="0" flags="0x4"/>
    </TTGlyph>
    <TTGlyph name="cedilla" xMin="31" yMin="-267" xMax="231" yMax="6">
      <component glyphName="uni0327" x="116" y="0" flags="0x4"/>
    </TTGlyph>
    <TTGlyph name="cent" xMin="17" yMin="-116" xMax="421" yMax="603">
      <contour>
        <pt x="212" y="603" on="1"/>
        <pt x="286" y="603" on="1"/>
        <pt x="286" y="478" on="1"/>
        <pt x="328" y="473" on="0"/>
        <pt x="397" y="434" on="0"/>
        <pt x="421" y="400" on="1"/>
        <pt x="340" y="332" on="1"/>
        <pt x="308" y="363" on="0"/>
        <pt x="232" y="407" on="0"/>
        <pt x="192" y="414" on="1"/>
        <pt x="162" y="382" on="0"/>
        <pt x="135" y="305" on="0"/>
        <pt x="135" y="264" on="1"/>
        <pt x="135" y="190" on="0"/>
        <pt x="214" y="92" on="0"/>
        <pt x="288" y="92" on="1"/>
        <pt x="311" y="92" on="0"/>
        <pt x="366" y="104" on="0"/>
        <pt x="394" y="116" on="1"/>
        <pt x="413" y="72" on="1"/>
        <pt x="286" y="18" on="1"/>
        <pt x="286" y="-116" on="1"/>
        <pt x="212" y="-116" on="1"/>
        <pt x="212" y="16" on="1"/>
        <pt x="122" y="29" on="0"/>
        <pt x="17" y="156" on="0"/>
        <pt x="17" y="244" on="1"/>
        <pt x="17" y="337" on="0"/>
        <pt x="128" y="464" on="0"/>
        <pt x="212" y="477" on="1"/>
      </contour>
    </TTGlyph>
    <TTGlyph name="chi" xMin="-4" yMin="-229" xMax="549" yMax="492">
      <contour>
        <pt x="121" y="-229" on="1"/>
        <pt x="94" y="-224" on="0"/>
        <pt x="41" y="-184" on="0"/>
        <pt x="33" y="-164" on="1"/>
        <pt x="235" y="149" on="1"/>
        <pt x="219" y="185" on="0"/>
        <pt x="186" y="252" on="0"/>
        <pt x="160" y="299" on="1"/>
        <pt x="144" y="329" on="0"/>
        <pt x="123" y="363" on="0"/>
        <pt x="112" y="378" on="1"/>
        <pt x="46" y="353" on="1"/>
        <pt x="24" y="364" on="1"/>
        <pt x="12" y="383" on="0"/>
        <pt x="-3" y="443" on="0"/>
        <pt x="-4" y="467" on="1"/>
        <pt x="17" y="475" on="0"/>
        <pt x="61" y="485" on="0"/>
        <pt x="80" y="485" on="1"/>
        <pt x="139" y="485" on="0"/>
        <pt x="234" y="381" on="0"/>
        <pt x="274" y="274" on="1"/>
        <pt x="277" y="202" on="1"/>
        <pt x="282" y="201" on="1"/>
        <pt x="409" y="479" on="1"/>
        <pt x="434" y="492" on="1"/>
        <pt x="459" y="484" on="0"/>
        <pt x="518" y="440" on="0"/>
        <pt x="525" y="424" on="1"/>
        <pt x="328" y="138" on="1"/>
        <pt x="423" y="-115" on="1"/>
        <pt x="535" y="-102" on="1"/>
        <pt x="549" y="-137" on="1"/>
        <pt x="536" y="-176" on="0"/>
        <pt x="484" y="-227" on="0"/>
        <pt x="457" y="-227" on="1"/>
        <pt x="427" y="-227" on="0"/>
        <pt x="384" y="-182" on="0"/>
        <pt x="358" y="-123" on="1"/>
        <pt x="271" y="72" on="1"/>
        <pt x="149" y="-212" on="1"/>
      </contour>
    </TTGlyph>
    <TTGlyph name="circumflex" xMin="27" yMin="533" xMax="375" yMax="726">
      <component glyphName="uni0302" x="197" y="0" flags="0x4"/>
    </TTGlyph>
    <TTGlyph name="colon" xMin="86" yMin="-20" xMax="241" yMax="451">
      <contour>
        <pt x="172" y="288" on="1"/>
        <pt x="142" y="295" on="0"/>
        <pt x="99" y="330" on="0"/>
        <pt x="86" y="357" on="1"/>
        <pt x="91" y="389" on="0"/>
        <pt x="129" y="436" on="0"/>
        <pt x="159" y="451" on="1"/>
        <pt x="190" y="438" on="0"/>
        <pt x="235" y="397" on="0"/>
        <pt x="241" y="369" on="1"/>
        <pt x="233" y="341" on="0"/>
        <pt x="197" y="300" on="0"/>
      </contour>
      <contour>
        <pt x="172" y="-20" on="1"/>
        <pt x="142" y="-13" on="0"/>
        <pt x="99" y="22" on="0"/>
        <pt x="86" y="49" on="1"/>
        <pt x="91" y="81" on="0"/>
        <pt x="129" y="128" on="0"/>
        <pt x="159" y="144" on="1"/>
        <pt x="190" y="131" on="0"/>
        <pt x="235" y="89" on="0"/>
        <pt x="241" y="62" on="1"/>
        <pt x="233" y="34" on="0"/>
        <pt x="197" y="-8" on="0"/>
      </contour>
    </TTGlyph>
    <TTGlyph name="comma" xMin="44" yMin="-145" xMax="210" yMax="140">
      <contour>
        <pt x="44" y="-102" on="1"/>
        <pt x="75" y="-76" on="0"/>
        <pt x="111" y="-19" on="0"/>
        <pt x="112" y="7" on="1"/>
        <pt x="60" y="49" on="1"/>
        <pt x="65" y="81" on="0"/>
        <pt x="103" y="127" on="0"/>
        <pt x="130" y="140" on="1"/>
        <pt x="168" y="127" on="0"/>
        <pt x="210" y="71" on="0"/>
        <pt x="210" y="36" on="1"/>
        <pt x="210" y="-13" on="0"/>
        <pt x="137" y="-114" on="0"/>
        <pt x="78" y="-145" on="1"/>
      </contour>
    </TTGlyph>
    <TTGlyph name="copyright" xMin="52" yMin="-21" xMax="761" yMax="688">
      <contour>
        <pt x="407" y="-21" on="1"/>
        <pt x="334" y="-21" on="0"/>
        <pt x="204" y="33" on="0"/>
        <pt x="108" y="127" on="0"/>
        <pt x="52" y="256" on="0"/>
        <pt x="52" y="331" on="1"/>
        <pt x="52" y="406" on="0"/>
        <pt x="108" y="537" on="0"/>
        <pt x="203" y="632" on="0"/>
        <pt x="332" y="688" on="0"/>
        <pt x="405" y="688" on="1"/>
        <pt x="478" y="688" on="0"/>
        <pt x="608" y="632" on="0"/>
        <pt x="705" y="536" on="0"/>
        <pt x="761" y="406" on="0"/>
        <pt x="761" y="332" on="1"/>
        <pt x="761" y="259" on="0"/>
        <pt x="707" y="130" on="0"/>
        <pt x="612" y="35" on="0"/>
        <pt x="482" y="-21" on="0"/>
      </contour>
      <contour>
        <pt x="405" y="46" on="1"/>
        <pt x="465" y="46" on="0"/>
        <pt x="571" y="91" on="0"/>
        <pt x="649" y="169" on="0"/>
        <pt x="694" y="275" on="0"/>
        <pt x="694" y="334" on="1"/>
        <pt x="694" y="393" on="0"/>
        <pt x="649" y="498" on="0"/>
        <pt x="571" y="576" on="0"/>
        <pt x="466" y="621" on="0"/>
        <pt x="407" y="621" on="1"/>
        <pt x="348" y="621" on="0"/>
        <pt x="242" y="576" on="0"/>
        <pt x="164" y="498" on="0"/>
        <pt x="119" y="391" on="0"/>
        <pt x="119" y="331" on="1"/>
        <pt x="119" y="270" on="0"/>
        <pt x="164" y="165" on="0"/>
        <pt x="241" y="89" on="0"/>
        <pt x="346" y="46" on="0"/>
      </contour>
      <contour>
        <pt x="430" y="134" on="1"/>
        <pt x="381" y="133" on="0"/>
        <pt x="303" y="164" on="0"/>
        <pt x="250" y="217" on="0"/>
        <pt x="221" y="289" on="0"/>
        <pt x="221" y="329" on="1"/>
        <pt x="221" y="369" on="0"/>
        <pt x="248" y="441" on="0"/>
        <pt x="299" y="496" on="0"/>
        <pt x="373" y="529" on="0"/>
        <pt x="419" y="529" on="1"/>
        <pt x="465" y="529" on="0"/>
        <pt x="545" y="491" on="0"/>
        <pt x="574" y="445" on="1"/>
        <pt x="498" y="389" on="1"/>
        <pt x="473" y="421" on="0"/>
        <pt x="412" y="461" on="0"/>
        <pt x="370" y="467" on="1"/>
        <pt x="342" y="442" on="0"/>
        <pt x="315" y="376" on="0"/>
        <pt x="315" y="344" on="1"/>
        <pt x="315" y="293" on="0"/>
        <pt x="382" y="214" on="0"/>
        <pt x="447" y="214" on="1"/>
        <pt x="469" y="214" on="0"/>
        <pt x="518" y="226" on="0"/>
        <pt x="546" y="238" on="1"/>
        <pt x="563" y="195" on="1"/>
      </contour>
    </TTGlyph>
    <TTGlyph name="currency" xMin="56" yMin="127" xMax="454" yMax="581">
      <contour>
        <pt x="62" y="170" on="1"/>
        <pt x="118" y="236" on="1"/>
        <pt x="99" y="260" on="0"/>
        <pt x="78" y="322" on="0"/>
        <pt x="78" y="356" on="1"/>
        <pt x="78" y="390" on="0"/>
        <pt x="98" y="448" on="0"/>
        <pt x="116" y="470" on="1"/>
        <pt x="56" y="538" on="1"/>
        <pt x="105" y="581" on="1"/>
        <pt x="164" y="514" on="1"/>
        <pt x="186" y="527" on="0"/>
        <pt x="235" y="541" on="0"/>
        <pt x="260" y="541" on="1"/>
        <pt x="284" y="541" on="0"/>
        <pt x="331" y="529" on="0"/>
        <pt x="351" y="516" on="1"/>
        <pt x="404" y="580" on="1"/>
        <pt x="454" y="539" on="1"/>
        <pt x="397" y="472" on="1"/>
        <pt x="413" y="450" on="0"/>
        <pt x="431" y="393" on="0"/>
        <pt x="431" y="358" on="1"/>
        <pt x="431" y="321" on="0"/>
        <pt x="411" y="260" on="0"/>
        <pt x="393" y="238" on="1"/>
        <pt x="452" y="174" on="1"/>
        <pt x="406" y="129" on="1"/>
        <pt x="345" y="195" on="1"/>
        <pt x="325" y="182" on="0"/>
        <pt x="278" y="170" on="0"/>
        <pt x="254" y="170" on="1"/>
        <pt x="229" y="170" on="0"/>
        <pt x="184" y="183" on="0"/>
        <pt x="165" y="194" on="1"/>
        <pt x="110" y="127" on="1"/>
      </contour>
      <contour>
        <pt x="271" y="240" on="1"/>
        <pt x="278" y="240" on="0"/>
        <pt x="299" y="242" on="0"/>
        <pt x="309" y="244" on="1"/>
        <pt x="324" y="251" on="0"/>
        <pt x="349" y="311" on="0"/>
        <pt x="349" y="347" on="1"/>
        <pt x="349" y="368" on="0"/>
        <pt x="338" y="412" on="0"/>
        <pt x="311" y="447" on="0"/>
        <pt x="267" y="469" on="0"/>
        <pt x="234" y="469" on="1"/>
        <pt x="226" y="469" on="0"/>
        <pt x="209" y="467" on="0"/>
        <pt x="199" y="465" on="1"/>
        <pt x="181" y="451" on="0"/>
        <pt x="158" y="394" on="0"/>
        <pt x="158" y="360" on="1"/>
        <pt x="158" y="338" on="0"/>
        <pt x="170" y="295" on="0"/>
        <pt x="197" y="261" on="0"/>
        <pt x="240" y="240" on="0"/>
      </contour>
    </TTGlyph>
    <TTGlyph name="d" xMin="17" yMin="-16" xMax="550" yMax="736">
      <contour>
        <pt x="244" y="-16" on="1"/>
        <pt x="193" y="-17" on="0"/>
        <pt x="109" y="23" on="0"/>
        <pt x="50" y="91" on="0"/>
        <pt x="17" y="183" on="0"/>
        <pt x="17" y="233" on="1"/>
        <pt x="17" y="289" on="0"/>
        <pt x="57" y="384" on="0"/>
        <pt x="126" y="453" on="0"/>
        <pt x="220" y="492" on="0"/>
        <pt x="274" y="492" on="1"/>
        <pt x="294" y="492" on="0"/>
        <pt x="332" y="486" on="0"/>
        <pt x="348" y="481" on="1"/>
        <pt x="348" y="653" on="1"/>
        <pt x="273" y="655" on="1"/>
        <pt x="263" y="703" on="1"/>
        <pt x="297" y="717" on="0"/>
        <pt x="381" y="735" on="0"/>
        <pt x="420" y="736" on="1"/>
        <pt x="465" y="695" on="1"/>
        <pt x="465" y="98" on="1"/>
        <pt x="465" y="87" on="0"/>
        <pt x="480" y="77" on="0"/>
        <pt x="491" y="77" on="1"/>
        <pt x="501" y="77" on="0"/>
        <pt x="526" y="82" on="0"/>
        <pt x="538" y="84" on="1"/>
        <pt x="550" y="40" on="1"/>
        <pt x="439" y="-16" on="1"/>
        <pt x="419" y="-15" on="0"/>
        <pt x="367" y="31" on="0"/>
        <pt x="355" y="62" on="1"/>
      </contour>
      <contour>
        <pt x="140" y="247" on="1"/>
        <pt x="140" y="178" on="0"/>
        <pt x="206" y="81" on="0"/>
        <pt x="263" y="81" on="1"/>
        <pt x="281" y="81" on="0"/>
        <pt x="324" y="93" on="0"/>
        <pt x="348" y="106" on="1"/>
        <pt x="348" y="384" on="1"/>
        <pt x="319" y="403" on="0"/>
        <pt x="245" y="422" on="0"/>
        <pt x="206" y="415" on="1"/>
        <pt x="174" y="387" on="0"/>
        <pt x="140" y="296" on="0"/>
      </contour>
    </TTGlyph>
    <TTGlyph name="dagger" xMin="46" yMin="-180" xMax="497" yMax="689">
      <contour>
        <pt x="46" y="421" on="1"/>
        <pt x="89" y="468" on="1"/>
        <pt x="205" y="468" on="1"/>
        <pt x="200" y="653" on="1"/>
        <pt x="236" y="689" on="1"/>
        <pt x="328" y="685" on="1"/>
        <pt x="321" y="468" on="1"/>
        <pt x="491" y="468" on="1"/>
        <pt x="497" y="437" on="1"/>
        <pt x="454" y="390" on="1"/>
        <pt x="319" y="390" on="1"/>
        <pt x="302" y="-180" on="1"/>
        <pt x="221" y="-180" on="1"/>
        <pt x="207" y="390" on="1"/>
        <pt x="52" y="390" on="1"/>
      </contour>
    </TTGlyph>
    <TTGlyph name="daggerdbl" xMin="46" yMin="-180" xMax="504" yMax="689">
      <contour>
        <pt x="46" y="155" on="1"/>
        <pt x="89" y="203" on="1"/>
        <pt x="218" y="203" on="1"/>
        <pt x="214" y="390" on="1"/>
        <pt x="59" y="390" on="1"/>
        <pt x="53" y="421" on="1"/>
        <pt x="96" y="468" on="1"/>
        <pt x="212" y="468" on="1"/>
        <pt x="207" y="653" on="1"/>
        <pt x="243" y="689" on="1"/>
        <pt x="335" y="685" on="1"/>
        <pt x="328" y="468" on="1"/>
        <pt x="498" y="468" on="1"/>
        <pt x="504" y="437" on="1"/>
        <pt x="461" y="390" on="1"/>
        <pt x="326" y="390" on="1"/>
        <pt x="321" y="203" on="1"/>
        <pt x="491" y="203" on="1"/>
        <pt x="497" y="172" on="1"/>
        <pt x="454" y="124" on="1"/>
        <pt x="318" y="124" on="1"/>
        <pt x="309" y="-180" on="1"/>
        <pt x="228" y="-180" on="1"/>
        <pt x="220" y="124" on="1"/>
        <pt x="52" y="124" on="1"/>
      </contour>
    </TTGlyph>
    <TTGlyph name="dcaron" xMin="17" yMin="-16" xMax="674" yMax="805">
      <component glyphName="d" x="0" y="0" flags="0x204"/>
      <component glyphName="uni030C.calt" x="545" y="45" flags="0x4"/>
    </TTGlyph>
    <TTGlyph name="dcroat" xMin="17" yMin="-16" xMax="563" yMax="736">
      <contour>
        <pt x="244" y="-16" on="1"/>
        <pt x="193" y="-17" on="0"/>
        <pt x="109" y="23" on="0"/>
        <pt x="50" y="91" on="0"/>
        <pt x="17" y="183" on="0"/>
        <pt x="17" y="233" on="1"/>
        <pt x="17" y="289" on="0"/>
        <pt x="57" y="384" on="0"/>
        <pt x="126" y="453" on="0"/>
        <pt x="220" y="492" on="0"/>
        <pt x="274" y="492" on="1"/>
        <pt x="294" y="492" on="0"/>
        <pt x="332" y="486" on="0"/>
        <pt x="348" y="481" on="1"/>
        <pt x="348" y="543" on="1"/>
        <pt x="227" y="543" on="1"/>
        <pt x="221" y="574" on="1"/>
        <pt x="264" y="602" on="1"/>
        <pt x="348" y="602" on="1"/>
        <pt x="348" y="653" on="1"/>
        <pt x="273" y="655" on="1"/>
        <pt x="263" y="703" on="1"/>
        <pt x="297" y="717" on="0"/>
        <pt x="381" y="735" on="0"/>
        <pt x="420" y="736" on="1"/>
        <pt x="465" y="695" on="1"/>
        <pt x="465" y="602" on="1"/>
        <pt x="557" y="602" on="1"/>
        <pt x="563" y="571" on="1"/>
        <pt x="520" y="543" on="1"/>
        <pt x="465" y="543" on="1"/>
        <pt x="465" y="98" on="1"/>
        <pt x="465" y="87" on="0"/>
        <pt x="480" y="77" on="0"/>
        <pt x="491" y="77" on="1"/>
        <pt x="501" y="77" on="0"/>
        <pt x="526" y="82" on="0"/>
        <pt x="538" y="84" on="1"/>
        <pt x="550" y="40" on="1"/>
        <pt x="439" y="-16" on="1"/>
        <pt x="419" y="-15" on="0"/>
        <pt x="367" y="31" on="0"/>
        <pt x="355" y="62" on="1"/>
      </contour>
      <contour>
        <pt x="140" y="247" on="1"/>
        <pt x="140" y="178" on="0"/>
        <pt x="206" y="81" on="0"/>
        <pt x="263" y="81" on="1"/>
        <pt x="281" y="81" on="0"/>
        <pt x="324" y="93" on="0"/>
        <pt x="348" y="106" on="1"/>
        <pt x="348" y="384" on="1"/>
        <pt x="319" y="403" on="0"/>
        <pt x="245" y="422" on="0"/>
        <pt x="206" y="415" on="1"/>
        <pt x="174" y="387" on="0"/>
        <pt x="140" y="296" on="0"/>
      </contour>
    </TTGlyph>
    <TTGlyph name="degree" xMin="30" yMin="376" xMax="298" yMax="644">
      <contour>
        <pt x="167" y="376" on="1"/>
        <pt x="112" y="376" on="0"/>
        <pt x="30" y="449" on="0"/>
        <pt x="30" y="509" on="1"/>
        <pt x="30" y="566" on="0"/>
        <pt x="107" y="644" on="0"/>
        <pt x="163" y="644" on="1"/>
        <pt x="220" y="644" on="0"/>
        <pt x="298" y="566" on="0"/>
        <pt x="298" y="509" on="1"/>
        <pt x="298" y="449" on="0"/>
        <pt x="224" y="376" on="0"/>
      </contour>
      <contour>
        <pt x="172" y="433" on="1"/>
        <pt x="179" y="433" on="0"/>
        <pt x="195" y="435" on="0"/>
        <pt x="203" y="438" on="1"/>
        <pt x="216" y="450" on="0"/>
        <pt x="229" y="483" on="0"/>
        <pt x="229" y="500" on="1"/>
        <pt x="229" y="531" on="0"/>
        <pt x="190" y="584" on="0"/>
        <pt x="156" y="584" on="1"/>
        <pt x="147" y="584" on="0"/>
        <pt x="128" y="580" on="0"/>
        <pt x="118" y="576" on="1"/>
        <pt x="108" y="563" on="0"/>
        <pt x="97" y="531" on="0"/>
        <pt x="97" y="515" on="1"/>
        <pt x="97" y="484" on="0"/>
        <pt x="135" y="433" on="0"/>
      </contour>
    </TTGlyph>
    <TTGlyph name="delta" xMin="28" yMin="-20" xMax="458" yMax="735">
      <contour>
        <pt x="239" y="-20" on="1"/>
        <pt x="194" y="-20" on="0"/>
        <pt x="116" y="15" on="0"/>
        <pt x="60" y="77" on="0"/>
        <pt x="28" y="163" on="0"/>
        <pt x="28" y="213" on="1"/>
        <pt x="28" y="293" on="0"/>
        <pt x="115" y="405" on="0"/>
        <pt x="185" y="416" on="1"/>
        <pt x="128" y="449" on="0"/>
        <pt x="72" y="538" on="0"/>
        <pt x="72" y="592" on="1"/>
        <pt x="72" y="655" on="0"/>
        <pt x="164" y="735" on="0"/>
        <pt x="236" y="735" on="1"/>
        <pt x="265" y="735" on="0"/>
        <pt x="323" y="724" on="0"/>
        <pt x="354" y="712" on="1"/>
        <pt x="387" y="700" on="0"/>
        <pt x="440" y="670" on="0"/>
        <pt x="458" y="654" on="1"/>
        <pt x="458" y="637" on="0"/>
        <pt x="441" y="576" on="0"/>
        <pt x="432" y="559" on="1"/>
        <pt x="407" y="552" on="1"/>
        <pt x="344" y="594" on="0"/>
        <pt x="249" y="632" on="0"/>
        <pt x="206" y="632" on="1"/>
        <pt x="169" y="632" on="0"/>
        <pt x="123" y="603" on="0"/>
        <pt x="121" y="578" on="1"/>
        <pt x="135" y="548" on="0"/>
        <pt x="244" y="503" on="0"/>
        <pt x="363" y="437" on="0"/>
        <pt x="458" y="329" on="0"/>
        <pt x="458" y="237" on="1"/>
        <pt x="458" y="182" on="0"/>
        <pt x="425" y="88" on="0"/>
        <pt x="367" y="19" on="0"/>
        <pt x="286" y="-20" on="0"/>
      </contour>
      <contour>
        <pt x="119" y="116" on="1"/>
        <pt x="137" y="108" on="0"/>
        <pt x="185" y="98" on="0"/>
        <pt x="212" y="98" on="1"/>
        <pt x="287" y="98" on="0"/>
        <pt x="392" y="196" on="0"/>
        <pt x="396" y="270" on="1"/>
        <pt x="380" y="295" on="0"/>
        <pt x="327" y="336" on="0"/>
        <pt x="278" y="360" on="1"/>
        <pt x="195" y="346" on="0"/>
        <pt x="100" y="253" on="0"/>
        <pt x="100" y="191" on="1"/>
        <pt x="100" y="168" on="0"/>
        <pt x="110" y="129" on="0"/>
      </contour>
    </TTGlyph>
    <TTGlyph name="dieresis" xMin="33" yMin="550" xMax="388" yMax="698">
      <component glyphName="uni0308" x="210" y="0" flags="0x4"/>
    </TTGlyph>
    <TTGlyph name="dieresisacute" xMin="-50" yMin="530" xMax="389" yMax="774">
      <component glyphName="dieresistonos" x="-7" y="0" flags="0x4"/>
    </TTGlyph>
    <TTGlyph name="dieresisgrave" xMin="-50" yMin="530" xMax="390" yMax="774">
      <contour>
        <pt x="93" y="727" on="1"/>
        <pt x="96" y="750" on="1"/>
        <pt x="114" y="763" on="0"/>
        <pt x="167" y="776" on="0"/>
        <pt x="193" y="774" on="1"/>
        <pt x="224" y="544" on="1"/>
        <pt x="177" y="530" on="1"/>
      </contour>
      <contour>
        <pt x="27" y="550" on="1"/>
        <pt x="-1" y="558" on="0"/>
        <pt x="-39" y="589" on="0"/>
        <pt x="-50" y="612" on="1"/>
        <pt x="-46" y="642" on="0"/>
        <pt x="-10" y="685" on="0"/>
        <pt x="15" y="698" on="1"/>
        <pt x="41" y="688" on="0"/>
        <pt x="83" y="649" on="0"/>
        <pt x="89" y="624" on="1"/>
        <pt x="82" y="599" on="0"/>
        <pt x="51" y="561" on="0"/>
      </contour>
      <contour>
        <pt x="328" y="550" on="1"/>
        <pt x="300" y="558" on="0"/>
        <pt x="262" y="589" on="0"/>
        <pt x="251" y="612" on="1"/>
        <pt x="255" y="642" on="0"/>
        <pt x="291" y="685" on="0"/>
        <pt x="316" y="698" on="1"/>
        <pt x="342" y="688" on="0"/>
        <pt x="384" y="649" on="0"/>
        <pt x="390" y="624" on="1"/>
        <pt x="383" y="599" on="0"/>
        <pt x="352" y="561" on="0"/>
      </contour>
    </TTGlyph>
    <TTGlyph name="dieresistilde" xMin="-4" yMin="571" xMax="360" yMax="907">
      <component glyphName="grTilde" x="8" y="191" flags="0x4"/>
      <component glyphName="uni0308" x="179" y="21" flags="0x4"/>
    </TTGlyph>
    <TTGlyph name="dieresistonos" xMin="-43" yMin="530" xMax="396" yMax="774">
      <contour>
        <pt x="127" y="544" on="1"/>
        <pt x="158" y="774" on="1"/>
        <pt x="184" y="776" on="0"/>
        <pt x="237" y="763" on="0"/>
        <pt x="255" y="750" on="1"/>
        <pt x="258" y="727" on="1"/>
        <pt x="174" y="530" on="1"/>
      </contour>
      <contour>
        <pt x="33" y="550" on="1"/>
        <pt x="5" y="558" on="0"/>
        <pt x="-32" y="589" on="0"/>
        <pt x="-43" y="612" on="1"/>
        <pt x="-40" y="642" on="0"/>
        <pt x="-4" y="685" on="0"/>
        <pt x="21" y="698" on="1"/>
        <pt x="48" y="688" on="0"/>
        <pt x="89" y="649" on="0"/>
        <pt x="95" y="624" on="1"/>
        <pt x="88" y="599" on="0"/>
        <pt x="57" y="561" on="0"/>
      </contour>
      <contour>
        <pt x="334" y="550" on="1"/>
        <pt x="306" y="558" on="0"/>
        <pt x="269" y="589" on="0"/>
        <pt x="258" y="612" on="1"/>
        <pt x="261" y="642" on="0"/>
        <pt x="297" y="685" on="0"/>
        <pt x="322" y="698" on="1"/>
        <pt x="349" y="688" on="0"/>
        <pt x="390" y="649" on="0"/>
        <pt x="396" y="624" on="1"/>
        <pt x="389" y="599" on="0"/>
        <pt x="358" y="561" on="0"/>
      </contour>
    </TTGlyph>
    <TTGlyph name="divide" xMin="58" yMin="-21" xMax="542" yMax="498">
      <contour>
        <pt x="312" y="345" on="1"/>
        <pt x="291" y="349" on="0"/>
        <pt x="261" y="368" on="0"/>
        <pt x="243" y="389" on="0"/>
        <pt x="233" y="407" on="0"/>
        <pt x="231" y="410" on="1"/>
        <pt x="234" y="431" on="0"/>
        <pt x="253" y="462" on="0"/>
        <pt x="275" y="483" on="0"/>
        <pt x="295" y="496" on="0"/>
        <pt x="299" y="498" on="1"/>
        <pt x="346" y="479" on="0"/>
        <pt x="374" y="428" on="0"/>
        <pt x="376" y="421" on="1"/>
        <pt x="374" y="414" on="0"/>
        <pt x="348" y="361" on="0"/>
      </contour>
      <contour>
        <pt x="58" y="278" on="1"/>
        <pt x="542" y="278" on="1"/>
        <pt x="542" y="201" on="1"/>
        <pt x="58" y="201" on="1"/>
      </contour>
      <contour>
        <pt x="311" y="-21" on="1"/>
        <pt x="290" y="-17" on="0"/>
        <pt x="260" y="3" on="0"/>
        <pt x="242" y="23" on="0"/>
        <pt x="232" y="41" on="0"/>
        <pt x="230" y="44" on="1"/>
        <pt x="233" y="65" on="0"/>
        <pt x="252" y="97" on="0"/>
        <pt x="274" y="118" on="0"/>
        <pt x="294" y="130" on="0"/>
        <pt x="298" y="132" on="1"/>
        <pt x="345" y="113" on="0"/>
        <pt x="373" y="63" on="0"/>
        <pt x="375" y="56" on="1"/>
        <pt x="373" y="49" on="0"/>
        <pt x="347" y="-5" on="0"/>
      </contour>
    </TTGlyph>
    <TTGlyph name="dollar" xMin="53" yMin="-145" xMax="513" yMax="785">
      <contour>
        <pt x="257" y="785" on="1"/>
        <pt x="339" y="785" on="1"/>
        <pt x="339" y="672" on="1"/>
        <pt x="380" y="668" on="0"/>
        <pt x="455" y="650" on="0"/>
        <pt x="483" y="641" on="1"/>
        <pt x="484" y="610" on="0"/>
        <pt x="479" y="510" on="0"/>
        <pt x="470" y="464" on="1"/>
        <pt x="403" y="464" on="1"/>
        <pt x="384" y="568" on="1"/>
        <pt x="347" y="590" on="0"/>
        <pt x="262" y="604" on="0"/>
        <pt x="222" y="600" on="1"/>
        <pt x="198" y="586" on="0"/>
        <pt x="175" y="537" on="0"/>
        <pt x="175" y="514" on="1"/>
        <pt x="175" y="468" on="0"/>
        <pt x="264" y="414" on="0"/>
        <pt x="327" y="384" on="1"/>
        <pt x="362" y="368" on="0"/>
        <pt x="429" y="332" on="0"/>
        <pt x="481" y="284" on="0"/>
        <pt x="513" y="220" on="0"/>
        <pt x="513" y="177" on="1"/>
        <pt x="513" y="99" on="0"/>
        <pt x="412" y="1" on="0"/>
        <pt x="340" y="-14" on="1"/>
        <pt x="340" y="-145" on="1"/>
        <pt x="257" y="-145" on="1"/>
        <pt x="257" y="-19" on="1"/>
        <pt x="232" y="-18" on="0"/>
        <pt x="176" y="-8" on="0"/>
        <pt x="121" y="9" on="0"/>
        <pt x="72" y="32" on="0"/>
        <pt x="54" y="47" on="1"/>
        <pt x="55" y="50" on="1"/>
        <pt x="54" y="64" on="0"/>
        <pt x="54" y="106" on="0"/>
        <pt x="56" y="153" on="0"/>
        <pt x="63" y="202" on="0"/>
        <pt x="67" y="224" on="1"/>
        <pt x="130" y="224" on="1"/>
        <pt x="162" y="92" on="1"/>
        <pt x="204" y="67" on="0"/>
        <pt x="295" y="53" on="0"/>
        <pt x="334" y="55" on="1"/>
        <pt x="363" y="70" on="0"/>
        <pt x="390" y="122" on="0"/>
        <pt x="390" y="148" on="1"/>
        <pt x="390" y="197" on="0"/>
        <pt x="306" y="253" on="0"/>
        <pt x="241" y="284" on="1"/>
        <pt x="209" y="299" on="0"/>
        <pt x="143" y="335" on="0"/>
        <pt x="90" y="382" on="0"/>
        <pt x="57" y="444" on="0"/>
        <pt x="57" y="485" on="1"/>
        <pt x="57" y="525" on="0"/>
        <pt x="88" y="589" on="0"/>
        <pt x="142" y="636" on="0"/>
        <pt x="215" y="666" on="0"/>
        <pt x="257" y="671" on="1"/>
      </contour>
    </TTGlyph>
    <TTGlyph name="dotaccent" xMin="30" yMin="550" xMax="169" yMax="698">
      <component glyphName="uni0307" x="99" y="0" flags="0x4"/>
    </TTGlyph>
    <TTGlyph name="dotbelowcomb" xMin="-69" yMin="-246" xMax="70" yMax="-99">
      <contour>
        <pt x="9" y="-246" on="1"/>
        <pt x="-19" y="-239" on="0"/>
        <pt x="-58" y="-209" on="0"/>
        <pt x="-69" y="-184" on="1"/>
        <pt x="-65" y="-155" on="0"/>
        <pt x="-29" y="-112" on="0"/>
        <pt x="-4" y="-99" on="1"/>
        <pt x="23" y="-109" on="0"/>
        <pt x="66" y="-151" on="0"/>
        <pt x="70" y="-173" on="1"/>
        <pt x="63" y="-198" on="0"/>
        <pt x="32" y="-235" on="0"/>
      </contour>
    </TTGlyph>
    <TTGlyph name="dotbelowcomb.case" xMin="-69" yMin="-246" xMax="70" yMax="-99">
      <component glyphName="dotbelowcomb" x="0" y="0" flags="0x204"/>
    </TTGlyph>
    <TTGlyph name="dotlessi" xMin="12" yMin="0" xMax="276" yMax="487">
      <contour>
        <pt x="25" y="34" on="1"/>
        <pt x="39" y="41" on="0"/>
        <pt x="78" y="56" on="0"/>
        <pt x="97" y="62" on="1"/>
        <pt x="97" y="405" on="1"/>
        <pt x="22" y="406" on="1"/>
        <pt x="12" y="454" on="1"/>
        <pt x="46" y="468" on="0"/>
        <pt x="130" y="486" on="0"/>
        <pt x="169" y="487" on="1"/>
        <pt x="214" y="447" on="1"/>
        <pt x="214" y="71" on="1"/>
        <pt x="231" y="67" on="0"/>
        <pt x="263" y="55" on="0"/>
        <pt x="276" y="48" on="1"/>
        <pt x="272" y="0" on="1"/>
        <pt x="29" y="0" on="1"/>
      </contour>
    </TTGlyph>
    <TTGlyph name="dvKSPLa" xMin="-39" yMin="-53" xMax="2074" yMax="624">
      <component glyphName="uni0915094D" x="0" y="0" flags="0x4"/>
      <component glyphName="uni0938094D" x="589" y="0" flags="0x4"/>
      <component glyphName="uni092A094D" x="1007" y="0" flags="0x4"/>
      <component glyphName="uni0932" x="1326" y="0" flags="0x4"/>
    </TTGlyph>
    <TTGlyph name="dvKSPLa.MAR" xMin="-39" yMin="-53" xMax="2097" yMax="624">
      <component glyphName="uni0915094D" x="0" y="0" flags="0x4"/>
      <component glyphName="uni0938094D" x="618" y="0" flags="0x4"/>
      <component glyphName="uni092A094D" x="1022" y="0" flags="0x4"/>
      <component glyphName="uni0932.MAR" x="1344" y="0" flags="0x4"/>
    </TTGlyph>
    <TTGlyph name="e" xMin="17" yMin="-14" xMax="447" yMax="492">
      <contour>
        <pt x="282" y="-14" on="1"/>
        <pt x="221" y="-17" on="0"/>
        <pt x="122" y="19" on="0"/>
        <pt x="54" y="85" on="0"/>
        <pt x="17" y="177" on="0"/>
        <pt x="17" y="229" on="1"/>
        <pt x="17" y="282" on="0"/>
        <pt x="53" y="377" on="0"/>
        <pt x="117" y="449" on="0"/>
        <pt x="204" y="492" on="0"/>
        <pt x="255" y="492" on="1"/>
        <pt x="293" y="492" on="0"/>
        <pt x="364" y="467" on="0"/>
        <pt x="416" y="419" on="0"/>
        <pt x="448" y="348" on="0"/>
        <pt x="447" y="304" on="1"/>
        <pt x="389" y="248" on="1"/>
        <pt x="134" y="252" on="1"/>
        <pt x="134" y="250" on="1"/>
        <pt x="134" y="166" on="0"/>
        <pt x="225" y="73" on="0"/>
        <pt x="292" y="73" on="1"/>
        <pt x="323" y="73" on="0"/>
        <pt x="386" y="91" on="0"/>
        <pt x="420" y="107" on="1"/>
        <pt x="438" y="60" on="1"/>
      </contour>
      <contour>
        <pt x="212" y="424" on="1"/>
        <pt x="183" y="408" on="0"/>
        <pt x="148" y="346" on="0"/>
        <pt x="141" y="312" on="1"/>
        <pt x="336" y="322" on="1"/>
        <pt x="328" y="367" on="0"/>
        <pt x="259" y="425" on="0"/>
      </contour>
    </TTGlyph>
    <TTGlyph name="eacute" xMin="17" yMin="-14" xMax="447" yMax="751">
      <component glyphName="e" x="0" y="0" flags="0x204"/>
      <component glyphName="acutecomb" x="248" y="-2" flags="0x4"/>
    </TTGlyph>
    <TTGlyph name="ecaron" xMin="17" yMin="-14" xMax="447" yMax="752">
      <component glyphName="e" x="0" y="0" flags="0x204"/>
      <component glyphName="uni030C" x="248" y="-2" flags="0x4"/>
    </TTGlyph>
    <TTGlyph name="ecircumflex" xMin="17" yMin="-14" xMax="447" yMax="724">
      <component glyphName="e" x="0" y="0" flags="0x204"/>
      <component glyphName="uni0302" x="248" y="-2" flags="0x4"/>
    </TTGlyph>
    <TTGlyph name="edieresis" xMin="17" yMin="-14" xMax="447" yMax="696">
      <component glyphName="e" x="0" y="0" flags="0x204"/>
      <component glyphName="uni0308" x="248" y="-2" flags="0x4"/>
    </TTGlyph>
    <TTGlyph name="edotaccent" xMin="17" yMin="-14" xMax="447" yMax="696">
      <component glyphName="e" x="0" y="0" flags="0x204"/>
      <component glyphName="uni0307" x="248" y="-2" flags="0x4"/>
    </TTGlyph>
    <TTGlyph name="egrave" xMin="17" yMin="-14" xMax="447" yMax="751">
      <component glyphName="e" x="0" y="0" flags="0x204"/>
      <component glyphName="gravecomb" x="248" y="-2" flags="0x4"/>
    </TTGlyph>
    <TTGlyph name="eight" xMin="39" yMin="-21" xMax="488" yMax="668">
      <contour>
        <pt x="260" y="-21" on="1"/>
        <pt x="159" y="-21" on="0"/>
        <pt x="39" y="81" on="0"/>
        <pt x="39" y="154" on="1"/>
        <pt x="39" y="208" on="0"/>
        <pt x="108" y="298" on="0"/>
        <pt x="172" y="329" on="1"/>
        <pt x="117" y="361" on="0"/>
        <pt x="56" y="445" on="0"/>
        <pt x="56" y="496" on="1"/>
        <pt x="56" y="531" on="0"/>
        <pt x="85" y="593" on="0"/>
        <pt x="139" y="640" on="0"/>
        <pt x="217" y="668" on="0"/>
        <pt x="267" y="668" on="1"/>
        <pt x="361" y="668" on="0"/>
        <pt x="466" y="576" on="0"/>
        <pt x="466" y="513" on="1"/>
        <pt x="466" y="469" on="0"/>
        <pt x="409" y="384" on="0"/>
        <pt x="349" y="350" on="1"/>
        <pt x="404" y="318" on="0"/>
        <pt x="488" y="232" on="0"/>
        <pt x="488" y="166" on="1"/>
        <pt x="488" y="127" on="0"/>
        <pt x="456" y="58" on="0"/>
        <pt x="397" y="8" on="0"/>
        <pt x="312" y="-21" on="0"/>
      </contour>
      <contour>
        <pt x="166" y="513" on="1"/>
        <pt x="166" y="467" on="0"/>
        <pt x="241" y="408" on="0"/>
        <pt x="290" y="383" on="1"/>
        <pt x="338" y="417" on="0"/>
        <pt x="364" y="481" on="0"/>
        <pt x="364" y="502" on="1"/>
        <pt x="364" y="545" on="0"/>
        <pt x="306" y="604" on="0"/>
        <pt x="260" y="604" on="1"/>
        <pt x="245" y="604" on="0"/>
        <pt x="214" y="597" on="0"/>
        <pt x="198" y="590" on="1"/>
        <pt x="181" y="570" on="0"/>
        <pt x="166" y="530" on="0"/>
      </contour>
      <contour>
        <pt x="160" y="160" on="1"/>
        <pt x="160" y="115" on="0"/>
        <pt x="218" y="47" on="0"/>
        <pt x="274" y="47" on="1"/>
        <pt x="290" y="47" on="0"/>
        <pt x="326" y="53" on="0"/>
        <pt x="346" y="60" on="1"/>
        <pt x="359" y="83" on="0"/>
        <pt x="374" y="124" on="0"/>
        <pt x="374" y="143" on="1"/>
        <pt x="374" y="186" on="0"/>
        <pt x="310" y="257" on="0"/>
        <pt x="239" y="294" on="1"/>
        <pt x="199" y="270" on="0"/>
        <pt x="160" y="197" on="0"/>
      </contour>
    </TTGlyph>
    <TTGlyph name="ellipsis" xMin="86" yMin="-19" xMax="845" yMax="145">
      <contour>
        <pt x="776" y="-19" on="1"/>
        <pt x="746" y="-12" on="0"/>
        <pt x="703" y="24" on="0"/>
        <pt x="690" y="51" on="1"/>
        <pt x="695" y="83" on="0"/>
        <pt x="733" y="130" on="0"/>
        <pt x="763" y="145" on="1"/>
        <pt x="794" y="132" on="0"/>
        <pt x="839" y="91" on="0"/>
        <pt x="845" y="63" on="1"/>
        <pt x="837" y="35" on="0"/>
        <pt x="801" y="-6" on="0"/>
      </contour>
      <contour>
        <pt x="172" y="-19" on="1"/>
        <pt x="142" y="-12" on="0"/>
        <pt x="99" y="24" on="0"/>
        <pt x="86" y="51" on="1"/>
        <pt x="91" y="83" on="0"/>
        <pt x="129" y="130" on="0"/>
        <pt x="159" y="145" on="1"/>
        <pt x="190" y="132" on="0"/>
        <pt x="235" y="91" on="0"/>
        <pt x="241" y="63" on="1"/>
        <pt x="233" y="35" on="0"/>
        <pt x="197" y="-6" on="0"/>
      </contour>
      <contour>
        <pt x="474" y="-19" on="1"/>
        <pt x="444" y="-12" on="0"/>
        <pt x="401" y="24" on="0"/>
        <pt x="388" y="51" on="1"/>
        <pt x="393" y="83" on="0"/>
        <pt x="431" y="130" on="0"/>
        <pt x="461" y="145" on="1"/>
        <pt x="492" y="132" on="0"/>
        <pt x="537" y="91" on="0"/>
        <pt x="543" y="63" on="1"/>
        <pt x="535" y="35" on="0"/>
        <pt x="499" y="-6" on="0"/>
      </contour>
    </TTGlyph>
    <TTGlyph name="emacron" xMin="17" yMin="-14" xMax="447" yMax="641">
      <component glyphName="e" x="0" y="0" flags="0x204"/>
      <component glyphName="uni0304" x="247" y="-2" flags="0x4"/>
    </TTGlyph>
    <TTGlyph name="emdash" xMin="31" yMin="219" xMax="941" yMax="304">
      <contour>
        <pt x="31" y="276" on="1"/>
        <pt x="60" y="291" on="0"/>
        <pt x="122" y="304" on="0"/>
        <pt x="145" y="304" on="1"/>
        <pt x="937" y="304" on="1"/>
        <pt x="941" y="268" on="1"/>
        <pt x="894" y="219" on="1"/>
        <pt x="38" y="219" on="1"/>
      </contour>
    </TTGlyph>
    <TTGlyph name="endash" xMin="31" yMin="219" xMax="509" yMax="304">
      <contour>
        <pt x="31" y="276" on="1"/>
        <pt x="60" y="291" on="0"/>
        <pt x="122" y="304" on="0"/>
        <pt x="144" y="304" on="1"/>
        <pt x="505" y="304" on="1"/>
        <pt x="509" y="268" on="1"/>
        <pt x="461" y="219" on="1"/>
        <pt x="38" y="219" on="1"/>
      </contour>
    </TTGlyph>
    <TTGlyph name="eogonek" xMin="17" yMin="-229" xMax="447" yMax="492">
      <contour>
        <pt x="310" y="-229" on="1"/>
        <pt x="250" y="-233" on="0"/>
        <pt x="181" y="-166" on="0"/>
        <pt x="181" y="-123" on="1"/>
        <pt x="181" y="-95" on="0"/>
        <pt x="212" y="-39" on="0"/>
        <pt x="241" y="-13" on="1"/>
        <pt x="189" y="-9" on="0"/>
        <pt x="105" y="32" on="0"/>
        <pt x="48" y="96" on="0"/>
        <pt x="17" y="182" on="0"/>
        <pt x="17" y="229" on="1"/>
        <pt x="17" y="282" on="0"/>
        <pt x="53" y="377" on="0"/>
        <pt x="117" y="449" on="0"/>
        <pt x="204" y="492" on="0"/>
        <pt x="255" y="492" on="1"/>
        <pt x="293" y="492" on="0"/>
        <pt x="364" y="467" on="0"/>
        <pt x="416" y="419" on="0"/>
        <pt x="448" y="348" on="0"/>
        <pt x="447" y="304" on="1"/>
        <pt x="389" y="248" on="1"/>
        <pt x="134" y="252" on="1"/>
        <pt x="134" y="250" on="1"/>
        <pt x="134" y="166" on="0"/>
        <pt x="225" y="73" on="0"/>
        <pt x="292" y="73" on="1"/>
        <pt x="323" y="73" on="0"/>
        <pt x="386" y="91" on="0"/>
        <pt x="420" y="107" on="1"/>
        <pt x="438" y="60" on="1"/>
        <pt x="393" y="36" on="1"/>
        <pt x="339" y="8" on="0"/>
        <pt x="269" y="-60" on="0"/>
        <pt x="269" y="-97" on="1"/>
        <pt x="269" y="-134" on="0"/>
        <pt x="344" y="-165" on="0"/>
        <pt x="410" y="-128" on="1"/>
        <pt x="429" y="-170" on="1"/>
      </contour>
      <contour>
        <pt x="212" y="424" on="1"/>
        <pt x="183" y="408" on="0"/>
        <pt x="148" y="346" on="0"/>
        <pt x="141" y="312" on="1"/>
        <pt x="336" y="322" on="1"/>
        <pt x="328" y="367" on="0"/>
        <pt x="259" y="425" on="0"/>
      </contour>
    </TTGlyph>
    <TTGlyph name="epsilon" xMin="34" yMin="-14" xMax="451" yMax="492">
      <contour>
        <pt x="236" y="-14" on="1"/>
        <pt x="146" y="-14" on="0"/>
        <pt x="34" y="67" on="0"/>
        <pt x="34" y="133" on="1"/>
        <pt x="34" y="166" on="0"/>
        <pt x="88" y="225" on="0"/>
        <pt x="131" y="241" on="1"/>
        <pt x="88" y="254" on="0"/>
        <pt x="40" y="308" on="0"/>
        <pt x="40" y="347" on="1"/>
        <pt x="40" y="411" on="0"/>
        <pt x="164" y="492" on="0"/>
        <pt x="261" y="492" on="1"/>
        <pt x="312" y="492" on="0"/>
        <pt x="402" y="476" on="0"/>
        <pt x="421" y="463" on="1"/>
        <pt x="426" y="445" on="0"/>
        <pt x="430" y="389" on="0"/>
        <pt x="427" y="367" on="1"/>
        <pt x="404" y="352" on="1"/>
        <pt x="365" y="369" on="0"/>
        <pt x="294" y="385" on="0"/>
        <pt x="251" y="385" on="1"/>
        <pt x="197" y="385" on="0"/>
        <pt x="120" y="354" on="0"/>
        <pt x="108" y="327" on="1"/>
        <pt x="113" y="307" on="0"/>
        <pt x="158" y="273" on="0"/>
        <pt x="189" y="266" on="1"/>
        <pt x="316" y="294" on="1"/>
        <pt x="337" y="278" on="1"/>
        <pt x="341" y="260" on="0"/>
        <pt x="338" y="202" on="0"/>
        <pt x="332" y="181" on="1"/>
        <pt x="196" y="200" on="1"/>
        <pt x="165" y="198" on="0"/>
        <pt x="105" y="162" on="0"/>
        <pt x="93" y="139" on="1"/>
        <pt x="106" y="117" on="0"/>
        <pt x="187" y="88" on="0"/>
        <pt x="236" y="88" on="1"/>
        <pt x="287" y="88" on="0"/>
        <pt x="383" y="106" on="0"/>
        <pt x="433" y="125" on="1"/>
        <pt x="451" y="86" on="1"/>
        <pt x="434" y="64" on="0"/>
        <pt x="384" y="27" on="0"/>
        <pt x="327" y="1" on="0"/>
        <pt x="265" y="-14" on="0"/>
      </contour>
    </TTGlyph>
    <TTGlyph name="epsilonacute" xMin="34" yMin="-14" xMax="451" yMax="775">
      <component glyphName="epsilon" x="0" y="0" flags="0x204"/>
      <component glyphName="grAcute" x="101" y="0" flags="0x4"/>
    </TTGlyph>
    <TTGlyph name="epsilonasper" xMin="34" yMin="-14" xMax="451" yMax="775">
      <component glyphName="asper" x="45" y="0" flags="0x4"/>
      <component glyphName="epsilon" x="0" y="0" flags="0x204"/>
    </TTGlyph>
    <TTGlyph name="epsilonasperacute" xMin="34" yMin="-14" xMax="451" yMax="775">
      <component glyphName="epsilon" x="0" y="0" flags="0x204"/>
      <component glyphName="asperacute" x="51" y="0" flags="0x4"/>
    </TTGlyph>
    <TTGlyph name="epsilonaspergrave" xMin="34" yMin="-14" xMax="451" yMax="775">
      <component glyphName="epsilon" x="0" y="0" flags="0x204"/>
      <component glyphName="aspergrave" x="46" y="0" flags="0x4"/>
    </TTGlyph>
    <TTGlyph name="epsilongrave" xMin="34" yMin="-14" xMax="451" yMax="775">
      <component glyphName="epsilon" x="0" y="0" flags="0x204"/>
      <component glyphName="grGrave" x="40" y="0" flags="0x4"/>
    </TTGlyph>
    <TTGlyph name="epsilonlenis" xMin="34" yMin="-14" xMax="451" yMax="775">
      <component glyphName="epsilon" x="0" y="0" flags="0x204"/>
      <component glyphName="lenis" x="66" y="0" flags="0x4"/>
    </TTGlyph>
    <TTGlyph name="epsilonlenisacute" xMin="34" yMin="-14" xMax="451" yMax="775">
      <component glyphName="epsilon" x="0" y="0" flags="0x204"/>
      <component glyphName="lenisacute" x="82" y="0" flags="0x4"/>
    </TTGlyph>
    <TTGlyph name="epsilonlenisgrave" xMin="34" yMin="-14" xMax="451" yMax="775">
      <component glyphName="epsilon" x="0" y="0" flags="0x204"/>
      <component glyphName="lenisgrave" x="46" y="0" flags="0x4"/>
    </TTGlyph>
    <TTGlyph name="epsilonwithtonos" xMin="34" yMin="-14" xMax="451" yMax="775">
      <component glyphName="tonos" x="101" y="0" flags="0x4"/>
      <component glyphName="epsilon" x="0" y="0" flags="0x204"/>
    </TTGlyph>
    <TTGlyph name="equal" xMin="58" yMin="122" xMax="530" yMax="377">
      <contour>
        <pt x="58" y="377" on="1"/>
        <pt x="530" y="377" on="1"/>
        <pt x="530" y="304" on="1"/>
        <pt x="58" y="304" on="1"/>
      </contour>
      <contour>
        <pt x="58" y="195" on="1"/>
        <pt x="530" y="195" on="1"/>
        <pt x="530" y="122" on="1"/>
        <pt x="58" y="122" on="1"/>
      </contour>
    </TTGlyph>
    <TTGlyph name="eta" xMin="5" yMin="-224" xMax="487" yMax="492">
      <contour>
        <pt x="91" y="6" on="1"/>
        <pt x="136" y="376" on="1"/>
        <pt x="21" y="368" on="1"/>
        <pt x="5" y="402" on="1"/>
        <pt x="24" y="442" on="0"/>
        <pt x="83" y="492" on="0"/>
        <pt x="111" y="492" on="1"/>
        <pt x="127" y="492" on="0"/>
        <pt x="157" y="472" on="0"/>
        <pt x="168" y="455" on="1"/>
        <pt x="177" y="440" on="0"/>
        <pt x="191" y="401" on="0"/>
        <pt x="195" y="377" on="1"/>
        <pt x="216" y="430" on="0"/>
        <pt x="292" y="492" on="0"/>
        <pt x="339" y="492" on="1"/>
        <pt x="413" y="492" on="0"/>
        <pt x="487" y="366" on="0"/>
        <pt x="487" y="240" on="1"/>
        <pt x="486" y="-209" on="1"/>
        <pt x="455" y="-224" on="1"/>
        <pt x="426" y="-224" on="0"/>
        <pt x="372" y="-210" on="0"/>
        <pt x="349" y="-197" on="1"/>
        <pt x="368" y="-87" on="0"/>
        <pt x="392" y="75" on="0"/>
        <pt x="406" y="193" on="0"/>
        <pt x="412" y="281" on="0"/>
        <pt x="412" y="318" on="1"/>
        <pt x="412" y="335" on="0"/>
        <pt x="409" y="355" on="0"/>
        <pt x="408" y="359" on="1"/>
        <pt x="401" y="368" on="0"/>
        <pt x="375" y="376" on="0"/>
        <pt x="355" y="376" on="1"/>
        <pt x="305" y="376" on="0"/>
        <pt x="215" y="276" on="0"/>
        <pt x="197" y="204" on="1"/>
        <pt x="212" y="0" on="1"/>
        <pt x="190" y="-5" on="0"/>
        <pt x="120" y="-7" on="0"/>
        <pt x="98" y="-3" on="1"/>
      </contour>
    </TTGlyph>
    <TTGlyph name="etaacute" xMin="5" yMin="-224" xMax="487" yMax="775">
      <component glyphName="grAcute" x="151" y="0" flags="0x4"/>
      <component glyphName="eta" x="0" y="0" flags="0x4"/>
    </TTGlyph>
    <TTGlyph name="etaacuteiotasub" xMin="5" yMin="-233" xMax="487" yMax="775">
      <component glyphName="grAcute" x="151" y="0" flags="0x4"/>
      <component glyphName="eta" x="0" y="0" flags="0x4"/>
      <component glyphName="iotaadscript" x="38" y="0" flags="0x4"/>
    </TTGlyph>
    <TTGlyph name="etaasper" xMin="5" yMin="-224" xMax="487" yMax="775">
      <component glyphName="asper" x="88" y="0" flags="0x4"/>
      <component glyphName="eta" x="0" y="0" flags="0x4"/>
    </TTGlyph>
    <TTGlyph name="etaasperacute" xMin="5" yMin="-224" xMax="487" yMax="775">
      <component glyphName="eta" x="0" y="0" flags="0x4"/>
      <component glyphName="asperacute" x="99" y="0" flags="0x4"/>
    </TTGlyph>
    <TTGlyph name="etaasperacuteiotasub" xMin="5" yMin="-233" xMax="487" yMax="775">
      <component glyphName="eta" x="0" y="0" flags="0x4"/>
      <component glyphName="iotaadscript" x="38" y="0" flags="0x4"/>
      <component glyphName="asperacute" x="99" y="0" flags="0x4"/>
    </TTGlyph>
    <TTGlyph name="etaaspergrave" xMin="5" yMin="-224" xMax="487" yMax="775">
      <component glyphName="eta" x="0" y="0" flags="0x4"/>
      <component glyphName="aspergrave" x="93" y="0" flags="0x4"/>
    </TTGlyph>
    <TTGlyph name="etaaspergraveiotasub" xMin="5" yMin="-233" xMax="487" yMax="775">
      <component glyphName="eta" x="0" y="0" flags="0x4"/>
      <component glyphName="iotaadscript" x="38" y="0" flags="0x4"/>
      <component glyphName="aspergrave" x="93" y="0" flags="0x4"/>
    </TTGlyph>
    <TTGlyph name="etaasperiotasub" xMin="5" yMin="-233" xMax="487" yMax="775">
      <component glyphName="asper" x="88" y="0" flags="0x4"/>
      <component glyphName="eta" x="0" y="0" flags="0x4"/>
      <component glyphName="iotaadscript" x="38" y="0" flags="0x4"/>
    </TTGlyph>
    <TTGlyph name="etaaspertilde" xMin="5" yMin="-224" xMax="487" yMax="924">
      <component glyphName="eta" x="0" y="0" flags="0x4"/>
      <component glyphName="aspertilde" x="97" y="0" flags="0x4"/>
    </TTGlyph>
    <TTGlyph name="etaaspertildeiotasub" xMin="5" yMin="-233" xMax="487" yMax="924">
      <component glyphName="eta" x="0" y="0" flags="0x4"/>
      <component glyphName="iotaadscript" x="38" y="0" flags="0x4"/>
      <component glyphName="aspertilde" x="97" y="0" flags="0x4"/>
    </TTGlyph>
    <TTGlyph name="etagrave" xMin="5" yMin="-224" xMax="487" yMax="775">
      <component glyphName="eta" x="0" y="0" flags="0x4"/>
      <component glyphName="grGrave" x="88" y="0" flags="0x4"/>
    </TTGlyph>
    <TTGlyph name="etagraveiotasub" xMin="5" yMin="-233" xMax="487" yMax="775">
      <component glyphName="eta" x="0" y="0" flags="0x4"/>
      <component glyphName="iotaadscript" x="38" y="0" flags="0x4"/>
      <component glyphName="grGrave" x="88" y="0" flags="0x4"/>
    </TTGlyph>
    <TTGlyph name="etaiotasub" xMin="5" yMin="-233" xMax="487" yMax="492">
      <component glyphName="eta" x="0" y="0" flags="0x4"/>
      <component glyphName="iotaadscript" x="38" y="0" flags="0x4"/>
    </TTGlyph>
    <TTGlyph name="etalenis" xMin="5" yMin="-224" xMax="487" yMax="775">
      <component glyphName="eta" x="0" y="0" flags="0x4"/>
      <component glyphName="lenis" x="110" y="0" flags="0x4"/>
    </TTGlyph>
    <TTGlyph name="etalenisacute" xMin="5" yMin="-224" xMax="487" yMax="775">
      <component glyphName="lenisacute" x="129" y="0" flags="0x4"/>
      <component glyphName="eta" x="0" y="0" flags="0x4"/>
    </TTGlyph>
    <TTGlyph name="etalenisacuteiotasub" xMin="5" yMin="-233" xMax="487" yMax="775">
      <component glyphName="lenisacute" x="129" y="0" flags="0x4"/>
      <component glyphName="eta" x="0" y="0" flags="0x4"/>
      <component glyphName="iotaadscript" x="38" y="0" flags="0x4"/>
    </TTGlyph>
    <TTGlyph name="etalenisgrave" xMin="5" yMin="-224" xMax="487" yMax="775">
      <component glyphName="lenisgrave" x="93" y="0" flags="0x4"/>
      <component glyphName="eta" x="0" y="0" flags="0x4"/>
    </TTGlyph>
    <TTGlyph name="etalenisgraveiotasub" xMin="5" yMin="-233" xMax="487" yMax="775">
      <component glyphName="lenisgrave" x="93" y="0" flags="0x4"/>
      <component glyphName="eta" x="0" y="0" flags="0x4"/>
      <component glyphName="iotaadscript" x="38" y="0" flags="0x4"/>
    </TTGlyph>
    <TTGlyph name="etalenisiotasub" xMin="5" yMin="-233" xMax="487" yMax="775">
      <component glyphName="iotaadscript" x="38" y="0" flags="0x4"/>
      <component glyphName="lenis" x="110" y="0" flags="0x4"/>
      <component glyphName="eta" x="0" y="0" flags="0x4"/>
    </TTGlyph>
    <TTGlyph name="etalenistilde" xMin="5" yMin="-224" xMax="487" yMax="924">
      <component glyphName="lenistilde" x="100" y="0" flags="0x4"/>
      <component glyphName="eta" x="0" y="0" flags="0x4"/>
    </TTGlyph>
    <TTGlyph name="etalenistildeiotasub" xMin="5" yMin="-233" xMax="487" yMax="924">
      <component glyphName="lenistilde" x="100" y="0" flags="0x4"/>
      <component glyphName="iotaadscript" x="38" y="0" flags="0x4"/>
      <component glyphName="eta" x="0" y="0" flags="0x4"/>
    </TTGlyph>
    <TTGlyph name="etatilde" xMin="5" yMin="-224" xMax="487" yMax="716">
      <component glyphName="grTilde" x="124" y="0" flags="0x4"/>
      <component glyphName="eta" x="0" y="0" flags="0x4"/>
    </TTGlyph>
    <TTGlyph name="etatildeiotasub" xMin="5" yMin="-233" xMax="487" yMax="716">
      <component glyphName="grTilde" x="124" y="0" flags="0x4"/>
      <component glyphName="iotaadscript" x="38" y="0" flags="0x4"/>
      <component glyphName="eta" x="0" y="0" flags="0x4"/>
    </TTGlyph>
    <TTGlyph name="etawithtonos" xMin="5" yMin="-224" xMax="487" yMax="775">
      <component glyphName="tonos" x="151" y="0" flags="0x4"/>
      <component glyphName="eta" x="0" y="0" flags="0x4"/>
    </TTGlyph>
</ttFont>
